Teranoptia-Furiae.ufo
<glyph name="dollar" format="2">
	<advance width="1000"/>
	<unicode hex="0024"/>
	<outline>
		<contour>
			<point x="-10" y="158" type="line"/>
			<point x="1010" y="158" type="line"/>
			<point x="1010" y="442" type="line"/>
			<point x="-10" y="442" type="line"/>
		</contour>
	</outline>
</glyph>
<glyph name="parenleft" format="2">
	<advance width="1000"/>
	<unicode hex="0028"/>
	<outline>
		<contour>
			<point x="1010" y="158" type="line"/>
			<point x="1010" y="442" type="line"/>
			<point x="490" y="442" type="line"/>
			<point x="490" y="158" type="line"/>
		</contour>
		<contour>
			<point x="535" y="27" type="curve" smooth="yes"/>
			<point x="616" y="27"/>
			<point x="668" y="134"/>
			<point x="668" y="300" type="curve" smooth="yes"/>
			<point x="668" y="465"/>
			<point x="616" y="572"/>
			<point x="535" y="572" type="curve" smooth="yes"/>
			<point x="454" y="572"/>
			<point x="402" y="465"/>
			<point x="402" y="300" type="curve" smooth="yes"/>
			<point x="402" y="134"/>
			<point x="454" y="27"/>
		</contour>
		<contour>
			<point x="522" y="-82" type="curve" smooth="yes"/>
			<point x="409" y="-82"/>
			<point x="336" y="67"/>
			<point x="335" y="299" type="curve" smooth="yes"/>
			<point x="336" y="531"/>
			<point x="409" y="681"/>
			<point x="522" y="681" type="curve" smooth="yes"/>
			<point x="636" y="681"/>
			<point x="709" y="531"/>
			<point x="708" y="299" type="curve" smooth="yes"/>
			<point x="708" y="67"/>
			<point x="635" y="-82"/>
		</contour>
		<contour>
			<point x="494" y="-159" type="curve" smooth="yes"/>
			<point x="675" y="-159"/>
			<point x="792" y="21"/>
			<point x="791" y="300" type="curve" smooth="yes"/>
			<point x="792" y="578"/>
			<point x="674" y="758"/>
			<point x="494" y="758" type="curve" smooth="yes"/>
			<point x="313" y="758"/>
			<point x="196" y="578"/>
			<point x="196" y="300" type="curve" smooth="yes"/>
			<point x="196" y="21"/>
			<point x="313" y="-159"/>
		</contour>
	</outline>
</glyph>
<glyph name="asterisk" format="2">
	<advance width="1000"/>
	<unicode hex="002A"/>
	<outline>
		<contour>
			<point x="775" y="-95" type="curve" smooth="yes"/>
			<point x="787" y="-95"/>
			<point x="800" y="-78"/>
			<point x="798" y="-45" type="curve" smooth="yes"/>
			<point x="795" y="-11"/>
			<point x="788" y="77"/>
			<point x="754" y="137" type="curve" smooth="yes"/>
			<point x="720" y="198"/>
			<point x="678" y="229"/>
			<point x="653" y="251" type="curve" smooth="yes"/>
			<point x="633" y="269"/>
			<point x="625" y="287"/>
			<point x="625" y="302" type="curve" smooth="yes"/>
			<point x="625" y="322"/>
			<point x="638" y="335"/>
			<point x="662" y="336" type="curve" smooth="yes"/>
			<point x="686" y="338"/>
			<point x="708" y="346"/>
			<point x="751" y="364" type="curve" smooth="yes"/>
			<point x="800" y="385"/>
			<point x="935" y="499"/>
			<point x="935" y="556" type="curve" smooth="yes"/>
			<point x="935" y="568"/>
			<point x="929" y="576"/>
			<point x="920" y="576" type="curve" smooth="yes"/>
			<point x="913" y="576"/>
			<point x="906" y="572"/>
			<point x="898" y="564" type="curve" smooth="yes"/>
			<point x="843" y="512"/>
			<point x="748" y="537"/>
			<point x="681" y="506" type="curve" smooth="yes"/>
			<point x="652" y="492"/>
			<point x="623" y="452"/>
			<point x="607" y="434" type="curve" smooth="yes"/>
			<point x="592" y="416"/>
			<point x="576" y="413"/>
			<point x="576" y="436" type="curve" smooth="yes"/>
			<point x="576" y="450"/>
			<point x="579" y="465"/>
			<point x="568" y="493" type="curve" smooth="yes"/>
			<point x="557" y="521"/>
			<point x="547" y="549"/>
			<point x="551" y="591" type="curve" smooth="yes"/>
			<point x="554" y="615"/>
			<point x="557" y="640"/>
			<point x="557" y="662" type="curve" smooth="yes"/>
			<point x="557" y="748"/>
			<point x="527" y="801"/>
			<point x="502" y="801" type="curve" smooth="yes"/>
			<point x="495" y="801"/>
			<point x="490" y="794"/>
			<point x="490" y="780" type="curve" smooth="yes"/>
			<point x="490" y="744"/>
			<point x="457" y="665"/>
			<point x="443" y="636" type="curve" smooth="yes"/>
			<point x="429" y="606"/>
			<point x="394" y="550"/>
			<point x="417" y="483" type="curve" smooth="yes"/>
			<point x="429" y="445"/>
			<point x="441" y="433"/>
			<point x="441" y="424" type="curve" smooth="yes"/>
			<point x="441" y="416"/>
			<point x="435" y="409"/>
			<point x="429" y="409" type="curve" smooth="yes"/>
			<point x="418" y="409"/>
			<point x="406" y="419"/>
			<point x="385" y="440" type="curve" smooth="yes"/>
			<point x="364" y="461"/>
			<point x="329" y="487"/>
			<point x="255" y="500" type="curve" smooth="yes"/>
			<point x="180" y="513"/>
			<point x="142" y="510"/>
			<point x="122" y="524" type="curve" smooth="yes"/>
			<point x="102" y="538"/>
			<point x="93" y="546"/>
			<point x="83" y="546" type="curve" smooth="yes"/>
			<point x="73" y="546"/>
			<point x="65" y="539"/>
			<point x="65" y="527" type="curve" smooth="yes"/>
			<point x="65" y="514"/>
			<point x="70" y="469"/>
			<point x="137" y="412" type="curve" smooth="yes"/>
			<point x="205" y="355"/>
			<point x="254" y="345"/>
			<point x="294" y="332" type="curve" smooth="yes"/>
			<point x="342" y="316"/>
			<point x="375" y="305"/>
			<point x="375" y="291" type="curve" smooth="yes"/>
			<point x="375" y="278"/>
			<point x="364" y="263"/>
			<point x="341" y="242" type="curve" smooth="yes"/>
			<point x="319" y="222"/>
			<point x="280" y="193"/>
			<point x="263" y="123" type="curve" smooth="yes"/>
			<point x="246" y="54"/>
			<point x="232" y="0"/>
			<point x="214" y="-15" type="curve" smooth="yes"/>
			<point x="196" y="-31"/>
			<point x="186" y="-53"/>
			<point x="186" y="-59" type="curve" smooth="yes"/>
			<point x="186" y="-64"/>
			<point x="193" y="-74"/>
			<point x="204" y="-74" type="curve" smooth="yes"/>
			<point x="215" y="-74"/>
			<point x="241" y="-68"/>
			<point x="277" y="-46" type="curve" smooth="yes"/>
			<point x="313" y="-24"/>
			<point x="365" y="14"/>
			<point x="401" y="70" type="curve" smooth="yes"/>
			<point x="437" y="126"/>
			<point x="446" y="157"/>
			<point x="457" y="181" type="curve" smooth="yes"/>
			<point x="470" y="208"/>
			<point x="486" y="227"/>
			<point x="500" y="227" type="curve" smooth="yes"/>
			<point x="511" y="227"/>
			<point x="521" y="217"/>
			<point x="529" y="193" type="curve" smooth="yes"/>
			<point x="537" y="170"/>
			<point x="550" y="134"/>
			<point x="593" y="95" type="curve" smooth="yes"/>
			<point x="636" y="57"/>
			<point x="664" y="47"/>
			<point x="693" y="14" type="curve" smooth="yes"/>
			<point x="721" y="-19"/>
			<point x="733" y="-37"/>
			<point x="742" y="-57" type="curve" smooth="yes"/>
			<point x="751" y="-77"/>
			<point x="763" y="-95"/>
		</contour>
	</outline>
</glyph>
<glyph name="comma" format="2">
	<advance width="1000"/>
	<unicode hex="002C"/>
	<outline>
		<contour>
			<point x="449" y="-120" type="curve" smooth="yes"/>
			<point x="754" y="-120"/>
			<point x="870" y="97"/>
			<point x="870" y="309" type="curve" smooth="yes"/>
			<point x="870" y="516"/>
			<point x="742" y="720"/>
			<point x="449" y="720" type="curve" smooth="yes"/>
			<point x="301" y="720"/>
			<point x="174" y="656"/>
			<point x="174" y="574" type="curve" smooth="yes"/>
			<point x="174" y="558"/>
			<point x="184" y="546"/>
			<point x="196" y="546" type="curve" smooth="yes"/>
			<point x="208" y="546"/>
			<point x="241" y="582"/>
			<point x="319" y="582" type="curve" smooth="yes"/>
			<point x="427" y="582"/>
			<point x="540" y="518"/>
			<point x="540" y="448" type="curve" smooth="yes"/>
			<point x="540" y="414"/>
			<point x="525" y="390"/>
			<point x="498" y="377" type="curve" smooth="yes"/>
			<point x="477" y="367"/>
			<point x="446" y="341"/>
			<point x="430" y="320" type="curve" smooth="yes"/>
			<point x="423" y="311"/>
			<point x="412" y="303"/>
			<point x="401" y="300" type="curve" smooth="yes"/>
			<point x="380" y="294"/>
			<point x="372" y="286"/>
			<point x="372" y="274" type="curve" smooth="yes"/>
			<point x="372" y="247"/>
			<point x="389" y="226"/>
			<point x="410" y="226" type="curve" smooth="yes"/>
			<point x="435" y="226"/>
			<point x="467" y="245"/>
			<point x="487" y="245" type="curve" smooth="yes"/>
			<point x="507" y="245"/>
			<point x="507" y="218"/>
			<point x="535" y="218" type="curve" smooth="yes"/>
			<point x="540" y="218"/>
			<point x="543" y="215"/>
			<point x="543" y="212" type="curve" smooth="yes"/>
			<point x="543" y="210"/>
			<point x="541" y="207"/>
			<point x="536" y="205" type="curve" smooth="yes"/>
			<point x="521" y="200"/>
			<point x="515" y="192"/>
			<point x="515" y="183" type="curve" smooth="yes"/>
			<point x="515" y="165"/>
			<point x="539" y="151"/>
			<point x="569" y="151" type="curve" smooth="yes"/>
			<point x="598" y="151"/>
			<point x="632" y="161"/>
			<point x="657" y="181" type="curve" smooth="yes"/>
			<point x="668" y="189"/>
			<point x="669" y="194"/>
			<point x="676" y="194" type="curve" smooth="yes"/>
			<point x="681" y="194"/>
			<point x="682" y="189"/>
			<point x="682" y="182" type="curve" smooth="yes"/>
			<point x="682" y="131"/>
			<point x="642" y="94"/>
			<point x="568" y="94" type="curve" smooth="yes"/>
			<point x="523" y="94"/>
			<point x="514" y="114"/>
			<point x="496" y="114" type="curve" smooth="yes"/>
			<point x="487" y="114"/>
			<point x="480" y="108"/>
			<point x="480" y="100" type="curve" smooth="yes"/>
			<point x="480" y="90"/>
			<point x="495" y="96"/>
			<point x="495" y="82" type="curve" smooth="yes"/>
			<point x="495" y="55"/>
			<point x="441" y="34"/>
			<point x="372" y="34" type="curve" smooth="yes"/>
			<point x="296" y="34"/>
			<point x="219" y="51"/>
			<point x="171" y="105" type="curve" smooth="yes"/>
			<point x="155" y="122"/>
			<point x="152" y="133"/>
			<point x="141" y="133" type="curve" smooth="yes"/>
			<point x="129" y="133"/>
			<point x="120" y="123"/>
			<point x="120" y="103" type="curve" smooth="yes"/>
			<point x="120" y="-21"/>
			<point x="280" y="-120"/>
		</contour>
		<contour>
			<point x="655" y="391" type="curve" smooth="yes"/>
			<point x="669" y="391"/>
			<point x="676" y="402"/>
			<point x="676" y="413" type="curve" smooth="yes"/>
			<point x="676" y="424"/>
			<point x="669" y="435"/>
			<point x="655" y="435" type="curve" smooth="yes"/>
			<point x="640" y="435"/>
			<point x="633" y="424"/>
			<point x="633" y="413" type="curve" smooth="yes"/>
			<point x="633" y="402"/>
			<point x="640" y="391"/>
		</contour>
		<contour>
			<point x="675" y="352" type="curve" smooth="yes"/>
			<point x="638" y="352"/>
			<point x="609" y="382"/>
			<point x="609" y="420" type="curve" smooth="yes"/>
			<point x="609" y="452"/>
			<point x="638" y="478"/>
			<point x="675" y="478" type="curve" smooth="yes"/>
			<point x="710" y="478"/>
			<point x="737" y="452"/>
			<point x="737" y="420" type="curve" smooth="yes"/>
			<point x="737" y="382"/>
			<point x="710" y="352"/>
		</contour>
	</outline>
</glyph>
<glyph name="hyphen" format="2">
	<advance width="1000"/>
	<unicode hex="002D"/>
	<guideline x="796" y="512" angle="0"/>
	<outline>
		<contour>
			<point x="228" y="139" type="curve" smooth="yes"/>
			<point x="288" y="139"/>
			<point x="276" y="247"/>
			<point x="381" y="247" type="curve" smooth="yes"/>
			<point x="415" y="247"/>
			<point x="473" y="236"/>
			<point x="545" y="217" type="curve" smooth="yes"/>
			<point x="643" y="191"/>
			<point x="755" y="158"/>
			<point x="812" y="158" type="curve" smooth="yes"/>
			<point x="870" y="158"/>
			<point x="915" y="190"/>
			<point x="915" y="233" type="curve" smooth="yes"/>
			<point x="915" y="261"/>
			<point x="896" y="283"/>
			<point x="871" y="283" type="curve" smooth="yes"/>
			<point x="852" y="283"/>
			<point x="838" y="271"/>
			<point x="817" y="271" type="curve" smooth="yes"/>
			<point x="803" y="271"/>
			<point x="795" y="280"/>
			<point x="795" y="291" type="curve" smooth="yes"/>
			<point x="795" y="301"/>
			<point x="802" y="313"/>
			<point x="816" y="320" type="curve" smooth="yes"/>
			<point x="838" y="331"/>
			<point x="846" y="348"/>
			<point x="846" y="363" type="curve" smooth="yes"/>
			<point x="846" y="384"/>
			<point x="827" y="402"/>
			<point x="798" y="402" type="curve" smooth="yes"/>
			<point x="728" y="402"/>
			<point x="736" y="296"/>
			<point x="638" y="296" type="curve" smooth="yes"/>
			<point x="464" y="296"/>
			<point x="410" y="392"/>
			<point x="228" y="392" type="curve" smooth="yes"/>
			<point x="122" y="392"/>
			<point x="85" y="335"/>
			<point x="85" y="291" type="curve" smooth="yes"/>
			<point x="85" y="259"/>
			<point x="107" y="240"/>
			<point x="134" y="240" type="curve" smooth="yes"/>
			<point x="172" y="240"/>
			<point x="183" y="286"/>
			<point x="217" y="286" type="curve" smooth="yes"/>
			<point x="233" y="286"/>
			<point x="242" y="274"/>
			<point x="242" y="262" type="curve" smooth="yes"/>
			<point x="242" y="252"/>
			<point x="236" y="239"/>
			<point x="223" y="225" type="curve" smooth="yes"/>
			<point x="204" y="206"/>
			<point x="193" y="190"/>
			<point x="193" y="173" type="curve" smooth="yes"/>
			<point x="193" y="151"/>
			<point x="208" y="139"/>
		</contour>
	</outline>
</glyph>
<glyph name="a" format="2">
	<advance width="1000"/>
	<unicode hex="0061"/>
	<outline>
		<contour>
			<point x="792" y="87" type="curve" smooth="yes"/>
			<point x="843" y="87"/>
			<point x="898" y="97"/>
			<point x="917" y="106" type="curve" smooth="yes"/>
			<point x="960" y="127"/>
			<point x="978" y="158"/>
			<point x="999" y="158" type="curve"/>
			<point x="1010" y="158" type="line"/>
			<point x="1010" y="442" type="line"/>
			<point x="999" y="442" type="line"/>
			<point x="978" y="442"/>
			<point x="936" y="456"/>
			<point x="910" y="465" type="curve" smooth="yes"/>
			<point x="884" y="474"/>
			<point x="859" y="489"/>
			<point x="806" y="489" type="curve" smooth="yes"/>
			<point x="721" y="489"/>
			<point x="547" y="431"/>
			<point x="399" y="364" type="curve" smooth="yes"/>
			<point x="363" y="348"/>
			<point x="342" y="325"/>
			<point x="342" y="302" type="curve" smooth="yes"/>
			<point x="342" y="240"/>
			<point x="350" y="216"/>
			<point x="388" y="194" type="curve" smooth="yes"/>
			<point x="426" y="172"/>
			<point x="659" y="87"/>
		</contour>
		<contour>
			<point x="123" y="83" type="curve" smooth="yes"/>
			<point x="132" y="83"/>
			<point x="154" y="124"/>
			<point x="165" y="139" type="curve" smooth="yes"/>
			<point x="180" y="160"/>
			<point x="208" y="183"/>
			<point x="248" y="208" type="curve" smooth="yes"/>
			<point x="275" y="225"/>
			<point x="304" y="233"/>
			<point x="333" y="233" type="curve" smooth="yes"/>
			<point x="350" y="233"/>
			<point x="378" y="230"/>
			<point x="394" y="224" type="curve"/>
			<point x="392" y="274" type="line"/>
			<point x="332" y="274"/>
			<point x="278" y="272"/>
			<point x="213" y="228" type="curve" smooth="yes"/>
			<point x="148" y="184"/>
			<point x="91" y="180"/>
			<point x="74" y="180" type="curve" smooth="yes"/>
			<point x="66" y="180"/>
			<point x="62" y="178"/>
			<point x="62" y="176" type="curve" smooth="yes"/>
			<point x="62" y="174"/>
			<point x="66" y="171"/>
			<point x="70" y="168" type="curve" smooth="yes"/>
			<point x="79" y="163"/>
			<point x="96" y="160"/>
			<point x="115" y="160" type="curve" smooth="yes"/>
			<point x="128" y="160"/>
			<point x="141" y="162"/>
			<point x="151" y="166" type="curve"/>
			<point x="137" y="151"/>
			<point x="120" y="108"/>
			<point x="120" y="91" type="curve" smooth="yes"/>
			<point x="120" y="85"/>
			<point x="121" y="83"/>
		</contour>
		<contour>
			<point x="782" y="267" type="curve"/>
			<point x="741" y="267"/>
			<point x="676" y="311"/>
			<point x="676" y="335" type="curve" smooth="yes"/>
			<point x="676" y="364"/>
			<point x="741" y="407"/>
			<point x="786" y="407" type="curve"/>
			<point x="774" y="377"/>
			<point x="768" y="355"/>
			<point x="768" y="333" type="curve" smooth="yes"/>
			<point x="768" y="312"/>
			<point x="773" y="292"/>
		</contour>
		<contour>
			<point x="808" y="267" type="curve"/>
			<point x="817" y="292"/>
			<point x="822" y="312"/>
			<point x="822" y="333" type="curve" smooth="yes"/>
			<point x="822" y="355"/>
			<point x="816" y="377"/>
			<point x="804" y="407" type="curve"/>
			<point x="849" y="407"/>
			<point x="914" y="364"/>
			<point x="914" y="335" type="curve" smooth="yes"/>
			<point x="914" y="311"/>
			<point x="849" y="267"/>
		</contour>
	</outline>
</glyph>
<glyph name="b" format="2">
	<advance width="1000"/>
	<unicode hex="0062"/>
	<outline>
		<contour>
			<point x="346" y="-47" type="curve" smooth="yes"/>
			<point x="613" y="-47"/>
			<point x="577" y="255"/>
			<point x="741" y="255" type="curve" smooth="yes"/>
			<point x="822" y="255"/>
			<point x="867" y="158"/>
			<point x="990" y="158" type="curve" smooth="yes"/>
			<point x="1010" y="158" type="line"/>
			<point x="1010" y="442" type="line"/>
			<point x="990" y="442" type="line" smooth="yes"/>
			<point x="909" y="442"/>
			<point x="870" y="548"/>
			<point x="729" y="548" type="curve" smooth="yes"/>
			<point x="477" y="548"/>
			<point x="451" y="269"/>
			<point x="336" y="269" type="curve" smooth="yes"/>
			<point x="235" y="269"/>
			<point x="194" y="442"/>
			<point x="10" y="442" type="curve" smooth="yes"/>
			<point x="-10" y="442" type="line"/>
			<point x="-10" y="158" type="line"/>
			<point x="10" y="158" type="line" smooth="yes"/>
			<point x="142" y="158"/>
			<point x="147" y="-47"/>
		</contour>
	</outline>
</glyph>
<glyph name="d" format="2">
	<advance width="1000"/>
	<unicode hex="0064"/>
	<outline>
		<contour>
			<point x="624" y="138" type="curve" smooth="yes"/>
			<point x="794" y="138"/>
			<point x="946" y="268"/>
			<point x="946" y="306" type="curve" smooth="yes"/>
			<point x="946" y="316"/>
			<point x="940" y="320"/>
			<point x="929" y="320" type="curve" smooth="yes"/>
			<point x="898" y="320"/>
			<point x="829" y="289"/>
			<point x="753" y="289" type="curve" smooth="yes"/>
			<point x="476" y="289"/>
			<point x="345" y="477"/>
			<point x="154" y="477" type="curve" smooth="yes"/>
			<point x="95" y="477"/>
			<point x="39" y="442"/>
			<point x="10" y="442" type="curve"/>
			<point x="-10" y="442" type="line"/>
			<point x="-10" y="158" type="line"/>
			<point x="10" y="158" type="line"/>
			<point x="67" y="158"/>
			<point x="132" y="231"/>
			<point x="206" y="231" type="curve" smooth="yes"/>
			<point x="314" y="231"/>
			<point x="431" y="138"/>
		</contour>
	</outline>
</glyph>
<glyph name="e" format="2">
	<advance width="1000"/>
	<unicode hex="0065"/>
	<outline>
		<contour>
			<point x="693" y="-97" type="curve" smooth="yes"/>
			<point x="762" y="-97"/>
			<point x="822" y="-36"/>
			<point x="868" y="37" type="curve" smooth="yes"/>
			<point x="914" y="110"/>
			<point x="970" y="158"/>
			<point x="1000" y="158" type="curve"/>
			<point x="1010" y="158" type="line"/>
			<point x="1010" y="442" type="line"/>
			<point x="1000" y="442" type="line"/>
			<point x="990" y="442" type="line" smooth="yes"/>
			<point x="948" y="442"/>
			<point x="998" y="779"/>
			<point x="660" y="779" type="curve" smooth="yes"/>
			<point x="554" y="779"/>
			<point x="479" y="741"/>
			<point x="407" y="648" type="curve" smooth="yes"/>
			<point x="370" y="600"/>
			<point x="343" y="504"/>
			<point x="343" y="457" type="curve" smooth="yes"/>
			<point x="343" y="445"/>
			<point x="357" y="440"/>
			<point x="364" y="440" type="curve" smooth="yes"/>
			<point x="372" y="440"/>
			<point x="382" y="448"/>
			<point x="392" y="459" type="curve"/>
			<point x="396" y="427"/>
			<point x="402" y="412"/>
			<point x="402" y="372" type="curve" smooth="yes"/>
			<point x="402" y="308"/>
			<point x="392" y="188"/>
			<point x="392" y="144" type="curve" smooth="yes"/>
			<point x="392" y="111"/>
			<point x="414" y="100"/>
			<point x="432" y="100" type="curve" smooth="yes"/>
			<point x="450" y="100"/>
			<point x="466" y="111"/>
			<point x="476" y="107" type="curve" smooth="yes"/>
			<point x="480" y="106"/>
			<point x="480" y="98"/>
			<point x="480" y="88" type="curve" smooth="yes"/>
			<point x="480" y="81"/>
			<point x="480" y="74"/>
			<point x="480" y="66" type="curve" smooth="yes"/>
			<point x="480" y="50"/>
			<point x="481" y="34"/>
			<point x="488" y="27" type="curve" smooth="yes"/>
			<point x="497" y="18"/>
			<point x="503" y="16"/>
			<point x="507" y="16" type="curve" smooth="yes"/>
			<point x="511" y="16"/>
			<point x="513" y="17"/>
			<point x="516" y="18" type="curve"/>
			<point x="513" y="11"/>
			<point x="512" y="5"/>
			<point x="512" y="0" type="curve" smooth="yes"/>
			<point x="512" y="-7"/>
			<point x="515" y="-12"/>
			<point x="522" y="-16" type="curve" smooth="yes"/>
			<point x="533" y="-22"/>
			<point x="557" y="-28"/>
			<point x="565" y="-38" type="curve" smooth="yes"/>
			<point x="586" y="-65"/>
			<point x="599" y="-97"/>
		</contour>
		<contour>
			<point x="602" y="351" type="curve"/>
			<point x="560" y="346"/>
			<point x="531" y="364"/>
			<point x="502" y="387" type="curve"/>
			<point x="522" y="418"/>
			<point x="557" y="449"/>
			<point x="591" y="453" type="curve"/>
			<point x="571" y="440"/>
			<point x="563" y="422"/>
			<point x="563" y="404" type="curve" smooth="yes"/>
			<point x="563" y="380"/>
			<point x="579" y="356"/>
		</contour>
		<contour>
			<point x="627" y="353" type="curve"/>
			<point x="649" y="363"/>
			<point x="661" y="384"/>
			<point x="661" y="406" type="curve" smooth="yes"/>
			<point x="661" y="423"/>
			<point x="654" y="441"/>
			<point x="638" y="454" type="curve"/>
			<point x="664" y="453"/>
			<point x="700" y="437"/>
			<point x="725" y="409" type="curve"/>
			<point x="714" y="407"/>
			<point x="705" y="400"/>
			<point x="696" y="392" type="curve" smooth="yes"/>
			<point x="687" y="384"/>
			<point x="658" y="360"/>
		</contour>
	</outline>
</glyph>
<glyph name="f" format="2">
	<advance width="1000"/>
	<unicode hex="0066"/>
	<outline>
		<contour>
			<point x="673" y="-189" type="curve" smooth="yes"/>
			<point x="884" y="-189"/>
			<point x="978" y="-114"/>
			<point x="978" y="-112" type="curve" smooth="yes"/>
			<point x="978" y="-110"/>
			<point x="976" y="-107"/>
			<point x="972" y="-107" type="curve" smooth="yes"/>
			<point x="965" y="-107"/>
			<point x="951" y="-114"/>
			<point x="906" y="-114" type="curve" smooth="yes"/>
			<point x="861" y="-114"/>
			<point x="799" y="-93"/>
			<point x="799" y="-64" type="curve" smooth="yes"/>
			<point x="799" y="-42"/>
			<point x="826" y="-31"/>
			<point x="826" y="-26" type="curve" smooth="yes"/>
			<point x="826" y="-22"/>
			<point x="823" y="-20"/>
			<point x="811" y="-20" type="curve" smooth="yes"/>
			<point x="797" y="-20"/>
			<point x="787" y="-23"/>
			<point x="732" y="-23" type="curve" smooth="yes"/>
			<point x="689" y="-23"/>
			<point x="648" y="0"/>
			<point x="648" y="15" type="curve" smooth="yes"/>
			<point x="648" y="34"/>
			<point x="671" y="50"/>
			<point x="671" y="52" type="curve" smooth="yes"/>
			<point x="671" y="54"/>
			<point x="672" y="59"/>
			<point x="653" y="59" type="curve" smooth="yes"/>
			<point x="634" y="59"/>
			<point x="605" y="49"/>
			<point x="567" y="49" type="curve" smooth="yes"/>
			<point x="493" y="49"/>
			<point x="455" y="81"/>
			<point x="455" y="90" type="curve" smooth="yes"/>
			<point x="455" y="96"/>
			<point x="461" y="101"/>
			<point x="461" y="105" type="curve" smooth="yes"/>
			<point x="461" y="109"/>
			<point x="459" y="111"/>
			<point x="456" y="111" type="curve" smooth="yes"/>
			<point x="449" y="111"/>
			<point x="434" y="102"/>
			<point x="407" y="102" type="curve" smooth="yes"/>
			<point x="340" y="102"/>
			<point x="288" y="140"/>
			<point x="288" y="157" type="curve" smooth="yes"/>
			<point x="288" y="169"/>
			<point x="312" y="188"/>
			<point x="344" y="188" type="curve" smooth="yes"/>
			<point x="469" y="188"/>
			<point x="572" y="120"/>
			<point x="717" y="120" type="curve" smooth="yes"/>
			<point x="836" y="120"/>
			<point x="938" y="158"/>
			<point x="990" y="158" type="curve"/>
			<point x="1010" y="158" type="line"/>
			<point x="1010" y="442" type="line"/>
			<point x="990" y="442" type="line"/>
			<point x="906" y="442"/>
			<point x="844" y="412"/>
			<point x="717" y="412" type="curve" smooth="yes"/>
			<point x="563" y="412"/>
			<point x="464" y="458"/>
			<point x="304" y="478" type="curve" smooth="yes"/>
			<point x="279" y="481"/>
			<point x="254" y="483"/>
			<point x="227" y="483" type="curve" smooth="yes"/>
			<point x="210" y="483"/>
			<point x="194" y="482"/>
			<point x="179" y="481" type="curve" smooth="yes"/>
			<point x="91" y="473"/>
			<point x="40" y="442"/>
			<point x="0" y="442" type="curve"/>
			<point x="-10" y="442" type="line"/>
			<point x="-10" y="158" type="line"/>
			<point x="1" y="158" type="line"/>
			<point x="100" y="158"/>
			<point x="164" y="219"/>
			<point x="196" y="219" type="curve" smooth="yes"/>
			<point x="204" y="219"/>
			<point x="218" y="215"/>
			<point x="218" y="202" type="curve" smooth="yes"/>
			<point x="218" y="159"/>
			<point x="149" y="124"/>
			<point x="126" y="124" type="curve" smooth="yes"/>
			<point x="100" y="124"/>
			<point x="87" y="139"/>
			<point x="84" y="139" type="curve"/>
			<point x="82" y="139"/>
			<point x="81" y="137"/>
			<point x="81" y="133" type="curve" smooth="yes"/>
			<point x="81" y="81"/>
			<point x="294" y="-189"/>
		</contour>
		<contour>
			<point x="304" y="331" type="line"/>
			<point x="304" y="478" type="line"/>
			<point x="278" y="482"/>
			<point x="263" y="487"/>
			<point x="263" y="507" type="curve" smooth="yes"/>
			<point x="263" y="525"/>
			<point x="289" y="542"/>
			<point x="336" y="542" type="curve" smooth="yes"/>
			<point x="383" y="542"/>
			<point x="510" y="498"/>
			<point x="568" y="498" type="curve" smooth="yes"/>
			<point x="576" y="498"/>
			<point x="578" y="500"/>
			<point x="578" y="503" type="curve" smooth="yes"/>
			<point x="578" y="506"/>
			<point x="574" y="510"/>
			<point x="571" y="512" type="curve" smooth="yes"/>
			<point x="565" y="516"/>
			<point x="557" y="523"/>
			<point x="557" y="533" type="curve" smooth="yes"/>
			<point x="557" y="551"/>
			<point x="588" y="564"/>
			<point x="611" y="564" type="curve" smooth="yes"/>
			<point x="661" y="564"/>
			<point x="718" y="553"/>
			<point x="730" y="551" type="curve" smooth="yes"/>
			<point x="736" y="550"/>
			<point x="740" y="551"/>
			<point x="740" y="554" type="curve" smooth="yes"/>
			<point x="740" y="557"/>
			<point x="737" y="563"/>
			<point x="729" y="571" type="curve" smooth="yes"/>
			<point x="713" y="588"/>
			<point x="703" y="602"/>
			<point x="703" y="613" type="curve" smooth="yes"/>
			<point x="703" y="637"/>
			<point x="722" y="643"/>
			<point x="745" y="643" type="curve" smooth="yes"/>
			<point x="769" y="643"/>
			<point x="797" y="637"/>
			<point x="816" y="637" type="curve" smooth="yes"/>
			<point x="820" y="637"/>
			<point x="823" y="638"/>
			<point x="823" y="641" type="curve" smooth="yes"/>
			<point x="823" y="643"/>
			<point x="821" y="646"/>
			<point x="817" y="649" type="curve" smooth="yes"/>
			<point x="806" y="657"/>
			<point x="794" y="665"/>
			<point x="794" y="682" type="curve" smooth="yes"/>
			<point x="794" y="699"/>
			<point x="852" y="719"/>
			<point x="939" y="719" type="curve" smooth="yes"/>
			<point x="943" y="719"/>
			<point x="946" y="721"/>
			<point x="946" y="723" type="curve" smooth="yes"/>
			<point x="946" y="725"/>
			<point x="946" y="727"/>
			<point x="941" y="729" type="curve" smooth="yes"/>
			<point x="874" y="754"/>
			<point x="795" y="764"/>
			<point x="711" y="764" type="curve" smooth="yes"/>
			<point x="491" y="764"/>
			<point x="240" y="686"/>
			<point x="103" y="549" type="curve" smooth="yes"/>
			<point x="101" y="547"/>
			<point x="99" y="544"/>
			<point x="99" y="542" type="curve"/>
			<point x="99" y="538"/>
			<point x="102" y="537"/>
			<point x="106" y="537" type="curve" smooth="yes"/>
			<point x="118" y="537"/>
			<point x="168" y="557"/>
			<point x="182" y="557" type="curve" smooth="yes"/>
			<point x="196" y="557"/>
			<point x="212" y="546"/>
			<point x="212" y="528" type="curve"/>
			<point x="212" y="498"/>
			<point x="194" y="482"/>
			<point x="179" y="481" type="curve"/>
			<point x="179" y="431" type="line"/>
		</contour>
	</outline>
</glyph>
<glyph name="g" format="2">
	<advance width="1000"/>
	<unicode hex="0067"/>
	<outline>
		<contour>
			<point x="539" y="37" type="curve" smooth="yes"/>
			<point x="585" y="37"/>
			<point x="658" y="96"/>
			<point x="744" y="96" type="curve" smooth="yes"/>
			<point x="802" y="96"/>
			<point x="842" y="158"/>
			<point x="1000" y="158" type="curve" smooth="yes"/>
			<point x="1010" y="158" type="line"/>
			<point x="1010" y="442" type="line"/>
			<point x="1000" y="442" type="line" smooth="yes"/>
			<point x="923" y="442"/>
			<point x="861" y="578"/>
			<point x="779" y="578" type="curve" smooth="yes"/>
			<point x="725" y="578"/>
			<point x="700" y="551"/>
			<point x="630" y="551" type="curve" smooth="yes"/>
			<point x="510" y="551"/>
			<point x="473" y="637"/>
			<point x="401" y="637" type="curve" smooth="yes"/>
			<point x="363" y="637"/>
			<point x="347" y="613"/>
			<point x="334" y="613" type="curve" smooth="yes"/>
			<point x="321" y="613"/>
			<point x="306" y="624"/>
			<point x="277" y="624" type="curve" smooth="yes"/>
			<point x="214" y="624"/>
			<point x="94" y="442"/>
			<point x="0" y="442" type="curve" smooth="yes"/>
			<point x="-10" y="442" type="line"/>
			<point x="-10" y="158" type="line"/>
			<point x="0" y="158" type="line" smooth="yes"/>
			<point x="13" y="158"/>
			<point x="36" y="149"/>
			<point x="62" y="149" type="curve" smooth="yes"/>
			<point x="91" y="149"/>
			<point x="103" y="158"/>
			<point x="118" y="158" type="curve" smooth="yes"/>
			<point x="130" y="158"/>
			<point x="145" y="152"/>
			<point x="173" y="134" type="curve" smooth="yes"/>
			<point x="210" y="110"/>
			<point x="265" y="75"/>
			<point x="308" y="75" type="curve" smooth="yes"/>
			<point x="373" y="75"/>
			<point x="493" y="37"/>
		</contour>
		<contour>
			<point x="67" y="-210" type="curve" smooth="yes"/>
			<point x="89" y="-210"/>
			<point x="102" y="-200"/>
			<point x="110" y="-200" type="curve" smooth="yes"/>
			<point x="116" y="-200"/>
			<point x="119" y="-210"/>
			<point x="156" y="-210" type="curve" smooth="yes"/>
			<point x="188" y="-210"/>
			<point x="221" y="-199"/>
			<point x="245" y="-199" type="curve" smooth="yes"/>
			<point x="269" y="-199"/>
			<point x="311" y="-210"/>
			<point x="348" y="-210" type="curve" smooth="yes"/>
			<point x="377" y="-210"/>
			<point x="397" y="-195"/>
			<point x="397" y="-162" type="curve" smooth="yes"/>
			<point x="397" y="-131"/>
			<point x="380" y="-106"/>
			<point x="380" y="-57" type="curve" smooth="yes"/>
			<point x="380" y="40"/>
			<point x="398" y="69"/>
			<point x="398" y="178" type="curve"/>
			<point x="189" y="178" type="line"/>
			<point x="189" y="127" type="line"/>
			<point x="189" y="99"/>
			<point x="222" y="-28"/>
			<point x="222" y="-44" type="curve" smooth="yes"/>
			<point x="222" y="-55"/>
			<point x="206" y="-83"/>
			<point x="198" y="-91" type="curve" smooth="yes"/>
			<point x="190" y="-99"/>
			<point x="145" y="-113"/>
			<point x="135" y="-118" type="curve" smooth="yes"/>
			<point x="125" y="-123"/>
			<point x="102" y="-146"/>
			<point x="86" y="-146" type="curve" smooth="yes"/>
			<point x="59" y="-146"/>
			<point x="38" y="-151"/>
			<point x="38" y="-173" type="curve" smooth="yes"/>
			<point x="38" y="-192"/>
			<point x="45" y="-210"/>
		</contour>
		<contour>
			<point x="607" y="-210" type="curve" smooth="yes"/>
			<point x="629" y="-210"/>
			<point x="642" y="-200"/>
			<point x="650" y="-200" type="curve" smooth="yes"/>
			<point x="656" y="-200"/>
			<point x="659" y="-210"/>
			<point x="696" y="-210" type="curve" smooth="yes"/>
			<point x="728" y="-210"/>
			<point x="761" y="-199"/>
			<point x="785" y="-199" type="curve" smooth="yes"/>
			<point x="810" y="-199"/>
			<point x="855" y="-209"/>
			<point x="892" y="-210" type="curve" smooth="yes"/>
			<point x="919" y="-209"/>
			<point x="937" y="-193"/>
			<point x="937" y="-162" type="curve" smooth="yes"/>
			<point x="937" y="-131"/>
			<point x="920" y="-106"/>
			<point x="920" y="-57" type="curve" smooth="yes"/>
			<point x="920" y="40"/>
			<point x="938" y="69"/>
			<point x="938" y="178" type="curve"/>
			<point x="729" y="178" type="line"/>
			<point x="729" y="127" type="line"/>
			<point x="729" y="99"/>
			<point x="762" y="-28"/>
			<point x="762" y="-44" type="curve" smooth="yes"/>
			<point x="762" y="-55"/>
			<point x="746" y="-83"/>
			<point x="738" y="-91" type="curve" smooth="yes"/>
			<point x="730" y="-99"/>
			<point x="685" y="-113"/>
			<point x="675" y="-118" type="curve" smooth="yes"/>
			<point x="665" y="-123"/>
			<point x="642" y="-146"/>
			<point x="626" y="-146" type="curve" smooth="yes"/>
			<point x="599" y="-146"/>
			<point x="578" y="-151"/>
			<point x="578" y="-173" type="curve" smooth="yes"/>
			<point x="578" y="-192"/>
			<point x="585" y="-210"/>
		</contour>
	</outline>
</glyph>
<glyph name="h" format="2">
	<advance width="1000"/>
	<unicode hex="0068"/>
	<outline>
		<contour>
			<point x="499" y="-24" type="curve" smooth="yes"/>
			<point x="747" y="-24"/>
			<point x="888" y="154"/>
			<point x="888" y="338" type="curve" smooth="yes"/>
			<point x="888" y="482"/>
			<point x="800" y="642"/>
			<point x="606" y="642" type="curve" smooth="yes"/>
			<point x="491" y="642"/>
			<point x="381" y="552"/>
			<point x="381" y="440" type="curve" smooth="yes"/>
			<point x="381" y="333"/>
			<point x="441" y="275"/>
			<point x="511" y="275" type="curve" smooth="yes"/>
			<point x="572" y="275"/>
			<point x="599" y="326"/>
			<point x="599" y="343" type="curve" smooth="yes"/>
			<point x="599" y="349"/>
			<point x="595" y="355"/>
			<point x="589" y="355" type="curve" smooth="yes"/>
			<point x="571" y="355"/>
			<point x="572" y="317"/>
			<point x="526" y="317" type="curve" smooth="yes"/>
			<point x="499" y="317"/>
			<point x="470" y="337"/>
			<point x="470" y="384" type="curve" smooth="yes"/>
			<point x="470" y="457"/>
			<point x="532" y="517"/>
			<point x="590" y="517" type="curve" smooth="yes"/>
			<point x="680" y="517"/>
			<point x="724" y="422"/>
			<point x="724" y="349" type="curve" smooth="yes"/>
			<point x="724" y="243"/>
			<point x="658" y="161"/>
			<point x="557" y="161" type="curve" smooth="yes"/>
			<point x="354" y="161"/>
			<point x="364" y="442"/>
			<point x="0" y="442" type="curve"/>
			<point x="-10" y="442" type="line"/>
			<point x="-10" y="158" type="line"/>
			<point x="0" y="158" type="line"/>
			<point x="160" y="158"/>
			<point x="257" y="-24"/>
		</contour>
	</outline>
</glyph>
<glyph name="i" format="2">
	<advance width="1000"/>
	<unicode hex="0069"/>
	<outline>
		<contour>
			<point x="425" y="-157" type="curve" smooth="yes"/>
			<point x="749" y="-157"/>
			<point x="866" y="150"/>
			<point x="866" y="252" type="curve" smooth="yes"/>
			<point x="866" y="309"/>
			<point x="805" y="329"/>
			<point x="762" y="329" type="curve" smooth="yes"/>
			<point x="744" y="329"/>
			<point x="729" y="325"/>
			<point x="724" y="319" type="curve" smooth="yes"/>
			<point x="714" y="304"/>
			<point x="702" y="281"/>
			<point x="702" y="253" type="curve" smooth="yes"/>
			<point x="702" y="241"/>
			<point x="704" y="227"/>
			<point x="710" y="213" type="curve"/>
			<point x="700" y="209"/>
			<point x="684" y="150"/>
			<point x="687" y="113" type="curve"/>
			<point x="668" y="95"/>
			<point x="649" y="66"/>
			<point x="643" y="36" type="curve"/>
			<point x="597" y="17"/>
			<point x="577" y="-14"/>
			<point x="566" y="-26" type="curve" smooth="yes"/>
			<point x="564" y="-29"/>
			<point x="560" y="-31"/>
			<point x="555" y="-31" type="curve" smooth="yes"/>
			<point x="554" y="-31"/>
			<point x="553" y="-31"/>
			<point x="552" y="-31" type="curve" smooth="yes"/>
			<point x="546" y="-30"/>
			<point x="539" y="-29"/>
			<point x="530" y="-29" type="curve" smooth="yes"/>
			<point x="521" y="-29"/>
			<point x="509" y="-30"/>
			<point x="495" y="-35" type="curve" smooth="yes"/>
			<point x="450" y="-50"/>
			<point x="439" y="-78"/>
			<point x="407" y="-78" type="curve" smooth="yes"/>
			<point x="396" y="-78"/>
			<point x="364" y="-59"/>
			<point x="343" y="-59" type="curve" smooth="yes"/>
			<point x="317" y="-59"/>
			<point x="290" y="-67"/>
			<point x="270" y="-77" type="curve"/>
			<point x="238" y="-51"/>
			<point x="217" y="-55"/>
			<point x="193" y="-55" type="curve" smooth="yes"/>
			<point x="183" y="-55"/>
			<point x="172" y="-54"/>
			<point x="159" y="-50" type="curve" smooth="yes"/>
			<point x="82" y="-26"/>
			<point x="62" y="10"/>
			<point x="41" y="10" type="curve"/>
			<point x="38" y="10"/>
			<point x="36" y="7"/>
			<point x="36" y="3" type="curve" smooth="yes"/>
			<point x="36" y="-8"/>
			<point x="96" y="-157"/>
		</contour>
		<contour>
			<point x="106" y="209" type="curve" smooth="yes"/>
			<point x="109" y="209"/>
			<point x="110" y="212"/>
			<point x="110" y="216" type="curve" smooth="yes"/>
			<point x="110" y="220"/>
			<point x="106" y="222"/>
			<point x="106" y="232" type="curve" smooth="yes"/>
			<point x="106" y="242"/>
			<point x="118" y="254"/>
			<point x="118" y="276" type="curve" smooth="yes"/>
			<point x="118" y="293"/>
			<point x="117" y="306"/>
			<point x="121" y="312" type="curve" smooth="yes"/>
			<point x="125" y="318"/>
			<point x="141" y="336"/>
			<point x="146" y="356" type="curve" smooth="yes"/>
			<point x="151" y="376"/>
			<point x="150" y="396"/>
			<point x="160" y="401" type="curve" smooth="yes"/>
			<point x="170" y="406"/>
			<point x="193" y="425"/>
			<point x="208" y="443" type="curve" smooth="yes"/>
			<point x="221" y="458"/>
			<point x="241" y="485"/>
			<point x="246" y="487" type="curve" smooth="yes"/>
			<point x="249" y="488"/>
			<point x="259" y="487"/>
			<point x="271" y="487" type="curve" smooth="yes"/>
			<point x="349" y="487"/>
			<point x="396" y="524"/>
			<point x="412" y="524" type="curve" smooth="yes"/>
			<point x="430" y="524"/>
			<point x="450" y="499"/>
			<point x="505" y="499" type="curve" smooth="yes"/>
			<point x="520" y="499"/>
			<point x="535" y="500"/>
			<point x="549" y="500" type="curve" smooth="yes"/>
			<point x="567" y="500"/>
			<point x="584" y="498"/>
			<point x="596" y="489" type="curve" smooth="yes"/>
			<point x="622" y="470"/>
			<point x="632" y="450"/>
			<point x="650" y="430" type="curve" smooth="yes"/>
			<point x="660" y="419"/>
			<point x="671" y="411"/>
			<point x="678" y="409" type="curve"/>
			<point x="678" y="385"/>
			<point x="711" y="365"/>
			<point x="737" y="366" type="curve"/>
			<point x="844" y="366" type="line"/>
			<point x="844" y="443" type="line"/>
			<point x="771" y="443"/>
			<point x="675" y="606"/>
			<point x="439" y="606" type="curve" smooth="yes"/>
			<point x="243" y="606"/>
			<point x="85" y="463"/>
			<point x="85" y="308" type="curve" smooth="yes"/>
			<point x="85" y="249"/>
			<point x="92" y="209"/>
		</contour>
		<contour>
			<point x="755" y="-110" type="curve" smooth="yes"/>
			<point x="759" y="-110"/>
			<point x="818" y="-93"/>
			<point x="891" y="-6" type="curve" smooth="yes"/>
			<point x="964" y="81"/>
			<point x="988" y="147"/>
			<point x="988" y="171" type="curve" smooth="yes"/>
			<point x="988" y="189"/>
			<point x="964" y="194"/>
			<point x="957" y="194" type="curve" smooth="yes"/>
			<point x="950" y="194"/>
			<point x="930" y="188"/>
			<point x="918" y="176" type="curve" smooth="yes"/>
			<point x="889" y="145"/>
			<point x="875" y="104"/>
			<point x="875" y="75" type="curve" smooth="yes"/>
			<point x="875" y="46"/>
			<point x="860" y="31"/>
			<point x="853" y="24" type="curve" smooth="yes"/>
			<point x="842" y="13"/>
			<point x="835" y="-6"/>
			<point x="832" y="-14" type="curve" smooth="yes"/>
			<point x="829" y="-22"/>
			<point x="822" y="-29"/>
			<point x="810" y="-40" type="curve" smooth="yes"/>
			<point x="798" y="-51"/>
			<point x="782" y="-73"/>
			<point x="778" y="-79" type="curve" smooth="yes"/>
			<point x="774" y="-85"/>
			<point x="748" y="-95"/>
			<point x="748" y="-103" type="curve" smooth="yes"/>
			<point x="748" y="-107"/>
			<point x="750" y="-110"/>
		</contour>
		<contour>
			<point x="941" y="148" type="curve" smooth="yes"/>
			<point x="970" y="148"/>
			<point x="988" y="158"/>
			<point x="1000" y="158" type="curve" smooth="yes"/>
			<point x="1010" y="158" type="line"/>
			<point x="1010" y="442" type="line"/>
			<point x="989" y="442" type="line" smooth="yes"/>
			<point x="971" y="442"/>
			<point x="939" y="479"/>
			<point x="896" y="479" type="curve" smooth="yes"/>
			<point x="792" y="479"/>
			<point x="749" y="382"/>
			<point x="741" y="376" type="curve" smooth="yes"/>
			<point x="733" y="370"/>
			<point x="719" y="361"/>
			<point x="719" y="344" type="curve" smooth="yes"/>
			<point x="719" y="325"/>
			<point x="739" y="306"/>
			<point x="755" y="277" type="curve" smooth="yes"/>
			<point x="771" y="248"/>
			<point x="821" y="148"/>
		</contour>
		<contour>
			<point x="946" y="436" type="curve" smooth="yes"/>
			<point x="979" y="436" type="line"/>
			<point x="979" y="470"/>
			<point x="946" y="533"/>
			<point x="901" y="574" type="curve" smooth="yes"/>
			<point x="882" y="592"/>
			<point x="850" y="599"/>
			<point x="840" y="608" type="curve" smooth="yes"/>
			<point x="830" y="617"/>
			<point x="814" y="629"/>
			<point x="803" y="633" type="curve" smooth="yes"/>
			<point x="792" y="637"/>
			<point x="785" y="637"/>
			<point x="777" y="637" type="curve" smooth="yes"/>
			<point x="769" y="637"/>
			<point x="756" y="647"/>
			<point x="745" y="647" type="curve" smooth="yes"/>
			<point x="734" y="647"/>
			<point x="726" y="644"/>
			<point x="713" y="644" type="curve" smooth="yes"/>
			<point x="700" y="644"/>
			<point x="660" y="643"/>
			<point x="660" y="634" type="curve"/>
			<point x="660" y="626"/>
			<point x="679" y="625"/>
			<point x="688" y="625" type="curve" smooth="yes"/>
			<point x="697" y="625"/>
			<point x="719" y="626"/>
			<point x="725" y="622" type="curve" smooth="yes"/>
			<point x="731" y="618"/>
			<point x="737" y="612"/>
			<point x="746" y="609" type="curve" smooth="yes"/>
			<point x="755" y="606"/>
			<point x="767" y="605"/>
			<point x="773" y="600" type="curve" smooth="yes"/>
			<point x="779" y="595"/>
			<point x="780" y="587"/>
			<point x="797" y="579" type="curve" smooth="yes"/>
			<point x="814" y="571"/>
			<point x="828" y="575"/>
			<point x="845" y="558" type="curve" smooth="yes"/>
			<point x="882" y="521"/>
			<point x="875" y="478"/>
			<point x="891" y="461" type="curve" smooth="yes"/>
			<point x="907" y="444"/>
			<point x="927" y="436"/>
		</contour>
	</outline>
</glyph>
<glyph name="j" format="2">
	<advance width="1000"/>
	<unicode hex="006A"/>
	<outline>
		<contour>
			<point x="-10" y="157" type="curve"/>
			<point x="10" y="157" type="line" smooth="yes"/>
			<point x="149" y="157"/>
			<point x="372" y="262"/>
			<point x="451" y="262" type="curve" smooth="yes"/>
			<point x="600" y="262"/>
			<point x="920" y="157"/>
			<point x="980" y="157" type="curve" smooth="yes"/>
			<point x="1010" y="157" type="line"/>
			<point x="1010" y="442" type="line"/>
			<point x="1009" y="442"/>
			<point x="991" y="442"/>
			<point x="990" y="442" type="curve" smooth="yes"/>
			<point x="779" y="444"/>
			<point x="524" y="553"/>
			<point x="430" y="553" type="curve" smooth="yes"/>
			<point x="335" y="553"/>
			<point x="152" y="442"/>
			<point x="0" y="442" type="curve"/>
			<point x="-10" y="442" type="line"/>
			<point x="-10" y="414"/>
			<point x="-10" y="320"/>
		</contour>
		<contour>
			<point x="203" y="-109" type="curve"/>
			<point x="209" y="-109"/>
			<point x="206" y="-102"/>
			<point x="206" y="-102" type="curve" smooth="yes"/>
			<point x="206" y="-102"/>
			<point x="187" y="-80"/>
			<point x="182" y="-66" type="curve" smooth="yes"/>
			<point x="177" y="-52"/>
			<point x="183" y="-38"/>
			<point x="168" y="-17" type="curve" smooth="yes"/>
			<point x="153" y="2"/>
			<point x="139" y="11"/>
			<point x="139" y="36" type="curve" smooth="yes"/>
			<point x="139" y="63"/>
			<point x="129" y="77"/>
			<point x="123" y="84" type="curve" smooth="yes"/>
			<point x="120" y="88"/>
			<point x="117" y="93"/>
			<point x="117" y="102" type="curve" smooth="yes"/>
			<point x="117" y="106"/>
			<point x="117" y="111"/>
			<point x="119" y="117" type="curve" smooth="yes"/>
			<point x="121" y="126"/>
			<point x="124" y="141"/>
			<point x="124" y="158" type="curve" smooth="yes"/>
			<point x="124" y="177"/>
			<point x="121" y="197"/>
			<point x="111" y="211" type="curve"/>
			<point x="106" y="216"/>
			<point x="99" y="220"/>
			<point x="91" y="220" type="curve" smooth="yes"/>
			<point x="75" y="220"/>
			<point x="58" y="204"/>
			<point x="58" y="149" type="curve" smooth="yes"/>
			<point x="58" y="61"/>
			<point x="97" y="8"/>
			<point x="126" y="-33" type="curve" smooth="yes"/>
			<point x="159" y="-80"/>
			<point x="196" y="-109"/>
		</contour>
		<contour>
			<point x="371" y="-56" type="curve" smooth="yes"/>
			<point x="378" y="-56"/>
			<point x="381" y="-54"/>
			<point x="381" y="-51" type="curve" smooth="yes"/>
			<point x="381" y="-50"/>
			<point x="381" y="-49"/>
			<point x="380" y="-48" type="curve" smooth="yes"/>
			<point x="378" y="-44"/>
			<point x="367" y="-35"/>
			<point x="363" y="-25" type="curve" smooth="yes"/>
			<point x="360" y="-14"/>
			<point x="355" y="15"/>
			<point x="331" y="37" type="curve" smooth="yes"/>
			<point x="325" y="43"/>
			<point x="322" y="50"/>
			<point x="322" y="58" type="curve" smooth="yes"/>
			<point x="322" y="66"/>
			<point x="324" y="73"/>
			<point x="324" y="79" type="curve" smooth="yes"/>
			<point x="324" y="81"/>
			<point x="325" y="85"/>
			<point x="325" y="90" type="curve" smooth="yes"/>
			<point x="325" y="93"/>
			<point x="325" y="96"/>
			<point x="324" y="99" type="curve" smooth="yes"/>
			<point x="323" y="104"/>
			<point x="322" y="111"/>
			<point x="319" y="115" type="curve" smooth="yes"/>
			<point x="308" y="128"/>
			<point x="302" y="134"/>
			<point x="302" y="145" type="curve" smooth="yes"/>
			<point x="302" y="154"/>
			<point x="308" y="180"/>
			<point x="308" y="200" type="curve" smooth="yes"/>
			<point x="308" y="223"/>
			<point x="292" y="230"/>
			<point x="274" y="230" type="curve" smooth="yes"/>
			<point x="269" y="230"/>
			<point x="265" y="230"/>
			<point x="261" y="229" type="curve" smooth="yes"/>
			<point x="251" y="227"/>
			<point x="241" y="217"/>
			<point x="241" y="196" type="curve" smooth="yes"/>
			<point x="241" y="190"/>
			<point x="242" y="184"/>
			<point x="243" y="177" type="curve" smooth="yes"/>
			<point x="245" y="166"/>
			<point x="247" y="153"/>
			<point x="253" y="138" type="curve"/>
			<point x="279" y="62"/>
			<point x="341" y="-56"/>
		</contour>
		<contour>
			<point x="93" y="143" type="curve" smooth="yes"/>
			<point x="204" y="143"/>
			<point x="236" y="246"/>
			<point x="236" y="352" type="curve" smooth="yes"/>
			<point x="236" y="458"/>
			<point x="188" y="489"/>
			<point x="118" y="489" type="curve" smooth="yes"/>
			<point x="23" y="489"/>
			<point x="-11" y="419"/>
			<point x="-11" y="314" type="curve"/>
			<point x="-11" y="235"/>
			<point x="3" y="143"/>
		</contour>
		<contour>
			<point x="470" y="-49" type="curve" smooth="yes"/>
			<point x="478" y="-48"/>
			<point x="487" y="-22"/>
			<point x="484" y="-6" type="curve" smooth="yes"/>
			<point x="481" y="10"/>
			<point x="478" y="27"/>
			<point x="480" y="38" type="curve" smooth="yes"/>
			<point x="482" y="49"/>
			<point x="500" y="86"/>
			<point x="497" y="108" type="curve" smooth="yes"/>
			<point x="495" y="124"/>
			<point x="492" y="137"/>
			<point x="492" y="149" type="curve" smooth="yes"/>
			<point x="492" y="152"/>
			<point x="492" y="156"/>
			<point x="493" y="160" type="curve" smooth="yes"/>
			<point x="496" y="174"/>
			<point x="503" y="212"/>
			<point x="503" y="235" type="curve" smooth="yes"/>
			<point x="503" y="265"/>
			<point x="491" y="266"/>
			<point x="469" y="265" type="curve"/>
			<point x="446" y="262"/>
			<point x="432" y="242"/>
			<point x="432" y="213" type="curve" smooth="yes"/>
			<point x="432" y="208"/>
			<point x="432" y="204"/>
			<point x="433" y="199" type="curve" smooth="yes"/>
			<point x="439" y="156"/>
			<point x="448" y="125"/>
			<point x="448" y="106" type="curve" smooth="yes"/>
			<point x="448" y="89"/>
			<point x="443" y="81"/>
			<point x="443" y="68" type="curve" smooth="yes"/>
			<point x="443" y="65"/>
			<point x="443" y="62"/>
			<point x="444" y="59" type="curve" smooth="yes"/>
			<point x="447" y="42"/>
			<point x="460" y="7"/>
			<point x="463" y="-11" type="curve" smooth="yes"/>
			<point x="466" y="-28"/>
			<point x="462" y="-50"/>
		</contour>
		<contour>
			<point x="238" y="192" type="curve" smooth="yes"/>
			<point x="288" y="192"/>
			<point x="413" y="254"/>
			<point x="413" y="411" type="curve" smooth="yes"/>
			<point x="413" y="517"/>
			<point x="370" y="555"/>
			<point x="294" y="555" type="curve" smooth="yes"/>
			<point x="192" y="555"/>
			<point x="149" y="488"/>
			<point x="149" y="352" type="curve" smooth="yes"/>
			<point x="149" y="255"/>
			<point x="175" y="192"/>
		</contour>
		<contour>
			<point x="79" y="425" type="curve" smooth="yes"/>
			<point x="88" y="425"/>
			<point x="96" y="429"/>
			<point x="100" y="434" type="curve"/>
			<point x="108" y="446"/>
			<point x="110" y="463"/>
			<point x="110" y="480" type="curve" smooth="yes"/>
			<point x="110" y="499"/>
			<point x="107" y="518"/>
			<point x="104" y="528" type="curve" smooth="yes"/>
			<point x="102" y="535"/>
			<point x="101" y="541"/>
			<point x="101" y="546" type="curve" smooth="yes"/>
			<point x="101" y="553"/>
			<point x="103" y="558"/>
			<point x="106" y="562" type="curve" smooth="yes"/>
			<point x="111" y="569"/>
			<point x="122" y="582"/>
			<point x="120" y="608" type="curve" smooth="yes"/>
			<point x="118" y="634"/>
			<point x="132" y="644"/>
			<point x="146" y="665" type="curve" smooth="yes"/>
			<point x="160" y="686"/>
			<point x="154" y="700"/>
			<point x="158" y="714" type="curve" smooth="yes"/>
			<point x="162" y="728"/>
			<point x="180" y="751"/>
			<point x="180" y="751" type="curve" smooth="yes"/>
			<point x="180" y="751"/>
			<point x="183" y="758"/>
			<point x="177" y="758" type="curve"/>
			<point x="170" y="758"/>
			<point x="134" y="727"/>
			<point x="104" y="679" type="curve" smooth="yes"/>
			<point x="78" y="638"/>
			<point x="43" y="588"/>
			<point x="43" y="508" type="curve" smooth="yes"/>
			<point x="43" y="442"/>
			<point x="62" y="425"/>
		</contour>
		<contour>
			<point x="626" y="-63" type="curve" smooth="yes"/>
			<point x="634" y="-59"/>
			<point x="627" y="-41"/>
			<point x="646" y="-12" type="curve" smooth="yes"/>
			<point x="666" y="19"/>
			<point x="669" y="35"/>
			<point x="669" y="41" type="curve" smooth="yes"/>
			<point x="669" y="46"/>
			<point x="668" y="44"/>
			<point x="668" y="55" type="curve" smooth="yes"/>
			<point x="668" y="68"/>
			<point x="669" y="85"/>
			<point x="677" y="91" type="curve" smooth="yes"/>
			<point x="688" y="99"/>
			<point x="696" y="114"/>
			<point x="696" y="130" type="curve" smooth="yes"/>
			<point x="696" y="137"/>
			<point x="692" y="148"/>
			<point x="692" y="160" type="curve" smooth="yes"/>
			<point x="692" y="172"/>
			<point x="697" y="186"/>
			<point x="714" y="202" type="curve" smooth="yes"/>
			<point x="725" y="212"/>
			<point x="730" y="221"/>
			<point x="730" y="230" type="curve" smooth="yes"/>
			<point x="730" y="246"/>
			<point x="715" y="260"/>
			<point x="700" y="270" type="curve" smooth="yes"/>
			<point x="692" y="275"/>
			<point x="685" y="277"/>
			<point x="678" y="277" type="curve" smooth="yes"/>
			<point x="663" y="277"/>
			<point x="651" y="269"/>
			<point x="646" y="265" type="curve"/>
			<point x="636" y="254"/>
			<point x="632" y="217"/>
			<point x="632" y="190" type="curve" smooth="yes"/>
			<point x="632" y="179"/>
			<point x="633" y="170"/>
			<point x="634" y="165" type="curve" smooth="yes"/>
			<point x="636" y="156"/>
			<point x="640" y="142"/>
			<point x="640" y="127" type="curve" smooth="yes"/>
			<point x="640" y="113"/>
			<point x="637" y="98"/>
			<point x="630" y="84" type="curve" smooth="yes"/>
			<point x="616" y="56"/>
			<point x="618" y="-34"/>
			<point x="618" y="-48" type="curve" smooth="yes"/>
			<point x="618" y="-49"/>
			<point x="618" y="-50"/>
			<point x="618" y="-51" type="curve" smooth="yes"/>
			<point x="618" y="-57"/>
			<point x="616" y="-59"/>
			<point x="620" y="-61" type="curve" smooth="yes"/>
			<point x="622" y="-62"/>
			<point x="624" y="-64"/>
		</contour>
		<contour>
			<point x="447" y="227" type="curve" smooth="yes"/>
			<point x="540" y="227"/>
			<point x="593" y="298"/>
			<point x="593" y="385" type="curve" smooth="yes"/>
			<point x="593" y="509"/>
			<point x="551" y="567"/>
			<point x="447" y="567" type="curve"/>
			<point x="378" y="567"/>
			<point x="322" y="480"/>
			<point x="322" y="395" type="curve" smooth="yes"/>
			<point x="322" y="310"/>
			<point x="347" y="227"/>
		</contour>
		<contour>
			<point x="251" y="484" type="curve" smooth="yes"/>
			<point x="259" y="484"/>
			<point x="273" y="483"/>
			<point x="285" y="497" type="curve" smooth="yes"/>
			<point x="297" y="511"/>
			<point x="300" y="547"/>
			<point x="298" y="567" type="curve" smooth="yes"/>
			<point x="297" y="581"/>
			<point x="290" y="597"/>
			<point x="290" y="610" type="curve" smooth="yes"/>
			<point x="290" y="616"/>
			<point x="291" y="621"/>
			<point x="294" y="625" type="curve" smooth="yes"/>
			<point x="305" y="640"/>
			<point x="313" y="669"/>
			<point x="314" y="681" type="curve" smooth="yes"/>
			<point x="315" y="693"/>
			<point x="329" y="700"/>
			<point x="341" y="712" type="curve" smooth="yes"/>
			<point x="353" y="724"/>
			<point x="361" y="747"/>
			<point x="371" y="755" type="curve" smooth="yes"/>
			<point x="380" y="762"/>
			<point x="385" y="764"/>
			<point x="385" y="770" type="curve" smooth="yes"/>
			<point x="385" y="773"/>
			<point x="383" y="775"/>
			<point x="380" y="775" type="curve" smooth="yes"/>
			<point x="356" y="775"/>
			<point x="284" y="704"/>
			<point x="266" y="666" type="curve" smooth="yes"/>
			<point x="248" y="629"/>
			<point x="222" y="592"/>
			<point x="222" y="520" type="curve"/>
			<point x="222" y="495"/>
			<point x="243" y="484"/>
		</contour>
		<contour>
			<point x="975" y="-104" type="curve" smooth="yes"/>
			<point x="980" y="-104"/>
			<point x="982" y="-101"/>
			<point x="982" y="-98" type="curve" smooth="yes"/>
			<point x="982" y="-92"/>
			<point x="966" y="-67"/>
			<point x="966" y="-57" type="curve" smooth="yes"/>
			<point x="966" y="-47"/>
			<point x="961" y="-30"/>
			<point x="961" y="-23" type="curve" smooth="yes"/>
			<point x="961" y="-16"/>
			<point x="965" y="-11"/>
			<point x="965" y="3" type="curve" smooth="yes"/>
			<point x="965" y="17"/>
			<point x="948" y="35"/>
			<point x="948" y="52" type="curve" smooth="yes"/>
			<point x="948" y="69"/>
			<point x="953" y="104"/>
			<point x="953" y="120" type="curve" smooth="yes"/>
			<point x="953" y="178"/>
			<point x="935" y="192"/>
			<point x="916" y="192" type="curve" smooth="yes"/>
			<point x="901" y="192"/>
			<point x="877" y="172"/>
			<point x="877" y="158" type="curve"/>
			<point x="877" y="134"/>
			<point x="886" y="84"/>
			<point x="901" y="35" type="curve" smooth="yes"/>
			<point x="922" y="-34"/>
			<point x="960" y="-104"/>
		</contour>
		<contour>
			<point x="657" y="190" type="curve" smooth="yes"/>
			<point x="765" y="190"/>
			<point x="820" y="286"/>
			<point x="820" y="378" type="curve" smooth="yes"/>
			<point x="820" y="463"/>
			<point x="773" y="545"/>
			<point x="676" y="545" type="curve"/>
			<point x="574" y="545"/>
			<point x="532" y="460"/>
			<point x="532" y="355" type="curve" smooth="yes"/>
			<point x="532" y="250"/>
			<point x="569" y="190"/>
		</contour>
		<contour>
			<point x="475" y="514" type="curve"/>
			<point x="498" y="514"/>
			<point x="508" y="534"/>
			<point x="508" y="548" type="curve" smooth="yes"/>
			<point x="508" y="562"/>
			<point x="507" y="582"/>
			<point x="502" y="601" type="curve" smooth="yes"/>
			<point x="501" y="605"/>
			<point x="501" y="608"/>
			<point x="501" y="612" type="curve" smooth="yes"/>
			<point x="501" y="625"/>
			<point x="508" y="636"/>
			<point x="511" y="642" type="curve" smooth="yes"/>
			<point x="515" y="649"/>
			<point x="529" y="678"/>
			<point x="531" y="696" type="curve" smooth="yes"/>
			<point x="533" y="714"/>
			<point x="545" y="727"/>
			<point x="559" y="737" type="curve" smooth="yes"/>
			<point x="573" y="747"/>
			<point x="593" y="763"/>
			<point x="593" y="776" type="curve" smooth="yes"/>
			<point x="593" y="779"/>
			<point x="591" y="781"/>
			<point x="588" y="781" type="curve" smooth="yes"/>
			<point x="585" y="781"/>
			<point x="578" y="775"/>
			<point x="571" y="769" type="curve" smooth="yes"/>
			<point x="564" y="763"/>
			<point x="556" y="768"/>
			<point x="507" y="725" type="curve" smooth="yes"/>
			<point x="458" y="682"/>
			<point x="442" y="587"/>
			<point x="442" y="560" type="curve" smooth="yes"/>
			<point x="442" y="533"/>
			<point x="452" y="514"/>
		</contour>
		<contour>
			<point x="860" y="153" type="curve" smooth="yes"/>
			<point x="961" y="153"/>
			<point x="1002" y="219"/>
			<point x="1002" y="302" type="curve" smooth="yes"/>
			<point x="1002" y="414"/>
			<point x="933" y="489"/>
			<point x="842" y="489" type="curve"/>
			<point x="764" y="489"/>
			<point x="723" y="416"/>
			<point x="723" y="331" type="curve" smooth="yes"/>
			<point x="723" y="243"/>
			<point x="768" y="153"/>
		</contour>
		<contour>
			<point x="691" y="482" type="curve" smooth="yes"/>
			<point x="716" y="482"/>
			<point x="732" y="497"/>
			<point x="732" y="527" type="curve" smooth="yes"/>
			<point x="732" y="537"/>
			<point x="730" y="556"/>
			<point x="725" y="574" type="curve" smooth="yes"/>
			<point x="723" y="581"/>
			<point x="722" y="588"/>
			<point x="722" y="596" type="curve" smooth="yes"/>
			<point x="722" y="616"/>
			<point x="728" y="635"/>
			<point x="734" y="646" type="curve" smooth="yes"/>
			<point x="742" y="661"/>
			<point x="743" y="684"/>
			<point x="746" y="702" type="curve" smooth="yes"/>
			<point x="749" y="720"/>
			<point x="757" y="720"/>
			<point x="760" y="736" type="curve" smooth="yes"/>
			<point x="763" y="752"/>
			<point x="780" y="759"/>
			<point x="780" y="773" type="curve" smooth="yes"/>
			<point x="780" y="777"/>
			<point x="778" y="781"/>
			<point x="774" y="781" type="curve" smooth="yes"/>
			<point x="757" y="781"/>
			<point x="710" y="731"/>
			<point x="683" y="652" type="curve" smooth="yes"/>
			<point x="668" y="608"/>
			<point x="660" y="559"/>
			<point x="660" y="525" type="curve"/>
			<point x="660" y="496"/>
			<point x="672" y="482"/>
		</contour>
		<contour>
			<point x="901" y="424" type="curve" smooth="yes"/>
			<point x="909" y="424"/>
			<point x="923" y="423"/>
			<point x="935" y="437" type="curve" smooth="yes"/>
			<point x="947" y="451"/>
			<point x="949" y="487"/>
			<point x="948" y="507" type="curve" smooth="yes"/>
			<point x="947" y="521"/>
			<point x="940" y="537"/>
			<point x="940" y="550" type="curve" smooth="yes"/>
			<point x="940" y="556"/>
			<point x="941" y="561"/>
			<point x="944" y="565" type="curve" smooth="yes"/>
			<point x="955" y="580"/>
			<point x="963" y="609"/>
			<point x="964" y="621" type="curve" smooth="yes"/>
			<point x="965" y="633"/>
			<point x="979" y="640"/>
			<point x="991" y="652" type="curve" smooth="yes"/>
			<point x="1003" y="664"/>
			<point x="1011" y="687"/>
			<point x="1021" y="695" type="curve" smooth="yes"/>
			<point x="1030" y="702"/>
			<point x="1035" y="704"/>
			<point x="1035" y="710" type="curve" smooth="yes"/>
			<point x="1035" y="713"/>
			<point x="1033" y="715"/>
			<point x="1030" y="715" type="curve" smooth="yes"/>
			<point x="1006" y="715"/>
			<point x="934" y="644"/>
			<point x="916" y="606" type="curve" smooth="yes"/>
			<point x="898" y="569"/>
			<point x="872" y="532"/>
			<point x="872" y="460" type="curve"/>
			<point x="872" y="435"/>
			<point x="893" y="424"/>
		</contour>
	</outline>
</glyph>
<glyph name="l" format="2">
	<advance width="1000"/>
	<unicode hex="006C"/>
	<outline>
		<contour>
			<point x="782" y="-29" type="curve"/>
			<point x="787" y="-23"/>
			<point x="789" y="-16"/>
			<point x="790" y="-7" type="curve"/>
			<point x="778" y="-14" type="line"/>
			<point x="787" y="-23"/>
			<point x="808" y="-27"/>
			<point x="828" y="-27" type="curve" smooth="yes"/>
			<point x="843" y="-27"/>
			<point x="857" y="-25"/>
			<point x="867" y="-22" type="curve"/>
			<point x="869" y="-15"/>
			<point x="870" y="-9"/>
			<point x="870" y="-3" type="curve" smooth="yes"/>
			<point x="870" y="1"/>
			<point x="869" y="4"/>
			<point x="869" y="8" type="curve"/>
			<point x="839" y="8" type="line"/>
			<point x="851" y="-6"/>
			<point x="879" y="-11"/>
			<point x="902" y="-11" type="curve" smooth="yes"/>
			<point x="909" y="-11"/>
			<point x="916" y="-11"/>
			<point x="921" y="-10" type="curve" smooth="yes"/>
			<point x="936" y="-7"/>
			<point x="947" y="-2"/>
			<point x="947" y="7" type="curve" smooth="yes"/>
			<point x="947" y="23"/>
			<point x="930" y="29"/>
			<point x="910" y="29" type="curve" smooth="yes"/>
			<point x="904" y="29"/>
			<point x="898" y="28"/>
			<point x="891" y="27" type="curve" smooth="yes"/>
			<point x="873" y="24"/>
			<point x="854" y="17"/>
			<point x="839" y="10" type="curve"/>
			<point x="868" y="11" type="line"/>
			<point x="867" y="16"/>
			<point x="866" y="22"/>
			<point x="863" y="27" type="curve"/>
			<point x="846" y="35"/>
			<point x="825" y="37"/>
			<point x="811" y="37" type="curve" smooth="yes"/>
			<point x="804" y="37"/>
			<point x="799" y="37"/>
			<point x="796" y="36" type="curve"/>
			<point x="797" y="43"/>
			<point x="792" y="48"/>
			<point x="788" y="51" type="curve" smooth="yes"/>
			<point x="778" y="58"/>
			<point x="743" y="70"/>
			<point x="712" y="70" type="curve" smooth="yes"/>
			<point x="706" y="70"/>
			<point x="699" y="69"/>
			<point x="693" y="68" type="curve"/>
			<point x="704" y="57" type="line"/>
			<point x="713" y="68"/>
			<point x="716" y="77"/>
			<point x="718" y="86" type="curve"/>
			<point x="697" y="102"/>
			<point x="638" y="131"/>
			<point x="616" y="129" type="curve"/>
			<point x="642" y="140"/>
			<point x="657" y="157"/>
			<point x="661" y="165" type="curve" smooth="yes"/>
			<point x="663" y="168"/>
			<point x="663" y="175"/>
			<point x="663" y="184" type="curve" smooth="yes"/>
			<point x="663" y="197"/>
			<point x="662" y="214"/>
			<point x="658" y="230" type="curve"/>
			<point x="678" y="220"/>
			<point x="712" y="212"/>
			<point x="744" y="212" type="curve" smooth="yes"/>
			<point x="754" y="212"/>
			<point x="765" y="213"/>
			<point x="775" y="215" type="curve"/>
			<point x="780" y="220"/>
			<point x="782" y="224"/>
			<point x="784" y="229" type="curve"/>
			<point x="812" y="199"/>
			<point x="829" y="198"/>
			<point x="843" y="192" type="curve"/>
			<point x="859" y="206"/>
			<point x="865" y="214"/>
			<point x="874" y="243" type="curve"/>
			<point x="849" y="221" type="line"/>
			<point x="859" y="206"/>
			<point x="915" y="179"/>
			<point x="924" y="177" type="curve"/>
			<point x="930" y="185" type="line"/>
			<point x="961" y="148"/>
			<point x="976" y="140"/>
			<point x="984" y="140" type="curve" smooth="yes"/>
			<point x="993" y="140"/>
			<point x="996" y="144"/>
			<point x="996" y="153" type="curve" smooth="yes"/>
			<point x="996" y="154"/>
			<point x="996" y="155"/>
			<point x="996" y="156" type="curve" smooth="yes"/>
			<point x="995" y="166"/>
			<point x="975" y="199"/>
			<point x="946" y="205" type="curve"/>
			<point x="949" y="213"/>
			<point x="948" y="221"/>
			<point x="933" y="236" type="curve" smooth="yes"/>
			<point x="912" y="257"/>
			<point x="862" y="270"/>
			<point x="862" y="266" type="curve"/>
			<point x="876" y="255" type="line"/>
			<point x="877" y="263"/>
			<point x="878" y="271"/>
			<point x="878" y="278" type="curve" smooth="yes"/>
			<point x="878" y="280"/>
			<point x="878" y="281"/>
			<point x="878" y="283" type="curve"/>
			<point x="866" y="288"/>
			<point x="839" y="299"/>
			<point x="790" y="300" type="curve"/>
			<point x="789" y="306"/>
			<point x="787" y="312"/>
			<point x="782" y="318" type="curve"/>
			<point x="746" y="321"/>
			<point x="672" y="297"/>
			<point x="639" y="271" type="curve"/>
			<point x="623" y="290"/>
			<point x="607" y="295"/>
			<point x="592" y="295" type="curve" smooth="yes"/>
			<point x="586" y="295"/>
			<point x="579" y="294"/>
			<point x="573" y="293" type="curve" smooth="yes"/>
			<point x="554" y="289"/>
			<point x="488" y="264"/>
			<point x="488" y="183" type="curve" smooth="yes"/>
			<point x="488" y="173"/>
			<point x="489" y="163"/>
			<point x="491" y="152" type="curve" smooth="yes"/>
			<point x="497" y="118"/>
			<point x="537" y="101"/>
			<point x="556" y="104" type="curve" smooth="yes"/>
			<point x="573" y="107"/>
			<point x="587" y="112"/>
			<point x="595" y="116" type="curve"/>
			<point x="556" y="118" type="line"/>
			<point x="579" y="54"/>
			<point x="620" y="10"/>
			<point x="681" y="-3" type="curve"/>
			<point x="689" y="9"/>
			<point x="694" y="27"/>
			<point x="692" y="43" type="curve"/>
			<point x="672" y="43" type="line"/>
			<point x="683" y="4"/>
			<point x="740" y="-31"/>
		</contour>
		<contour>
			<point x="227" y="-88" type="curve" smooth="yes"/>
			<point x="232" y="-88"/>
			<point x="235" y="-84"/>
			<point x="229" y="-80" type="curve" smooth="yes"/>
			<point x="223" y="-76"/>
			<point x="200" y="-48"/>
			<point x="154" y="-19" type="curve"/>
			<point x="153" y="-4"/>
			<point x="152" y="12"/>
			<point x="142" y="28" type="curve" smooth="yes"/>
			<point x="132" y="45"/>
			<point x="114" y="61"/>
			<point x="110" y="64" type="curve" smooth="yes"/>
			<point x="105" y="68"/>
			<point x="109" y="76"/>
			<point x="112" y="100" type="curve" smooth="yes"/>
			<point x="113" y="111"/>
			<point x="114" y="122"/>
			<point x="114" y="134" type="curve" smooth="yes"/>
			<point x="114" y="176"/>
			<point x="105" y="220"/>
			<point x="78" y="235" type="curve" smooth="yes"/>
			<point x="69" y="240"/>
			<point x="54" y="228"/>
			<point x="44" y="213" type="curve" smooth="yes"/>
			<point x="33" y="197"/>
			<point x="28" y="176"/>
			<point x="28" y="152" type="curve" smooth="yes"/>
			<point x="28" y="79"/>
			<point x="76" y="-17"/>
			<point x="143" y="-58" type="curve" smooth="yes"/>
			<point x="182" y="-82"/>
			<point x="222" y="-88"/>
		</contour>
		<contour>
			<point x="326" y="-60" type="curve"/>
			<point x="336" y="-63"/>
			<point x="340" y="-60"/>
			<point x="340" y="-56" type="curve" smooth="yes"/>
			<point x="340" y="-54"/>
			<point x="339" y="-51"/>
			<point x="337" y="-49" type="curve" smooth="yes"/>
			<point x="332" y="-43"/>
			<point x="318" y="-23"/>
			<point x="314" y="-11" type="curve" smooth="yes"/>
			<point x="310" y="2"/>
			<point x="287" y="4"/>
			<point x="276" y="21" type="curve" smooth="yes"/>
			<point x="265" y="39"/>
			<point x="263" y="60"/>
			<point x="261" y="72" type="curve" smooth="yes"/>
			<point x="259" y="83"/>
			<point x="236" y="104"/>
			<point x="234" y="116" type="curve" smooth="yes"/>
			<point x="230" y="139"/>
			<point x="247" y="164"/>
			<point x="247" y="195" type="curve" smooth="yes"/>
			<point x="247" y="227"/>
			<point x="233" y="250"/>
			<point x="217" y="250" type="curve" smooth="yes"/>
			<point x="200" y="250"/>
			<point x="162" y="227"/>
			<point x="162" y="170" type="curve" smooth="yes"/>
			<point x="162" y="163"/>
			<point x="163" y="155"/>
			<point x="164" y="146" type="curve"/>
			<point x="180" y="49"/>
			<point x="247" y="-32"/>
		</contour>
		<contour>
			<point x="87" y="152" type="curve" smooth="yes"/>
			<point x="163" y="152"/>
			<point x="227" y="218"/>
			<point x="227" y="300" type="curve" smooth="yes"/>
			<point x="227" y="309"/>
			<point x="227" y="318"/>
			<point x="225" y="327" type="curve" smooth="yes"/>
			<point x="209" y="425"/>
			<point x="155" y="471"/>
			<point x="97" y="471" type="curve" smooth="yes"/>
			<point x="90" y="471"/>
			<point x="84" y="470"/>
			<point x="77" y="469" type="curve"/>
			<point x="37" y="462"/>
			<point x="-6" y="435"/>
			<point x="-6" y="341" type="curve" smooth="yes"/>
			<point x="-6" y="249"/>
			<point x="1" y="152"/>
		</contour>
		<contour>
			<point x="-10" y="157" type="line"/>
			<point x="19" y="157" type="line" smooth="yes"/>
			<point x="40" y="157"/>
			<point x="108" y="166"/>
			<point x="149" y="166" type="curve" smooth="yes"/>
			<point x="197" y="166"/>
			<point x="242" y="162"/>
			<point x="267" y="157" type="curve"/>
			<point x="314" y="392" type="line"/>
			<point x="212" y="434"/>
			<point x="62" y="442"/>
			<point x="-1" y="442" type="curve"/>
			<point x="-11" y="442" type="line"/>
		</contour>
		<contour>
			<point x="464" y="-43" type="curve"/>
			<point x="472" y="-46"/>
			<point x="476" y="-44"/>
			<point x="476" y="-40" type="curve" smooth="yes"/>
			<point x="476" y="-37"/>
			<point x="475" y="-35"/>
			<point x="472" y="-32" type="curve" smooth="yes"/>
			<point x="463" y="-24"/>
			<point x="457" y="-22"/>
			<point x="449" y="-8" type="curve" smooth="yes"/>
			<point x="441" y="6"/>
			<point x="425" y="20"/>
			<point x="410" y="25" type="curve" smooth="yes"/>
			<point x="400" y="28"/>
			<point x="394" y="39"/>
			<point x="391" y="53" type="curve" smooth="yes"/>
			<point x="385" y="81"/>
			<point x="384" y="105"/>
			<point x="372" y="129" type="curve" smooth="yes"/>
			<point x="370" y="133"/>
			<point x="370" y="147"/>
			<point x="369" y="151" type="curve" smooth="yes"/>
			<point x="363" y="175"/>
			<point x="341" y="191"/>
			<point x="326" y="191" type="curve" smooth="yes"/>
			<point x="317" y="191"/>
			<point x="310" y="186"/>
			<point x="310" y="172" type="curve" smooth="yes"/>
			<point x="310" y="169"/>
			<point x="310" y="166"/>
			<point x="311" y="163" type="curve"/>
			<point x="324" y="83"/>
			<point x="332" y="-4"/>
		</contour>
		<contour>
			<point x="265" y="118" type="curve" smooth="yes"/>
			<point x="269" y="118"/>
			<point x="273" y="118"/>
			<point x="277" y="119" type="curve" smooth="yes"/>
			<point x="336" y="129"/>
			<point x="388" y="195"/>
			<point x="388" y="310" type="curve" smooth="yes"/>
			<point x="388" y="395"/>
			<point x="339" y="421"/>
			<point x="303" y="421" type="curve" smooth="yes"/>
			<point x="299" y="421"/>
			<point x="296" y="421"/>
			<point x="292" y="420" type="curve"/>
			<point x="222" y="408"/>
			<point x="139" y="355"/>
			<point x="139" y="277" type="curve" smooth="yes"/>
			<point x="139" y="271"/>
			<point x="140" y="265"/>
			<point x="141" y="258" type="curve" smooth="yes"/>
			<point x="155" y="177"/>
			<point x="211" y="118"/>
		</contour>
		<contour>
			<point x="628" y="-92" type="curve" smooth="yes"/>
			<point x="632" y="-90"/>
			<point x="632" y="-85"/>
			<point x="630" y="-77" type="curve" smooth="yes"/>
			<point x="627" y="-65"/>
			<point x="613" y="-45"/>
			<point x="600" y="-31" type="curve" smooth="yes"/>
			<point x="588" y="-18"/>
			<point x="577" y="-17"/>
			<point x="570" y="5" type="curve" smooth="yes"/>
			<point x="555" y="51"/>
			<point x="535" y="51"/>
			<point x="535" y="60" type="curve" smooth="yes"/>
			<point x="535" y="66"/>
			<point x="540" y="90"/>
			<point x="540" y="111" type="curve" smooth="yes"/>
			<point x="540" y="120"/>
			<point x="539" y="128"/>
			<point x="537" y="134" type="curve" smooth="yes"/>
			<point x="531" y="156"/>
			<point x="511" y="177"/>
			<point x="497" y="177" type="curve" smooth="yes"/>
			<point x="488" y="177"/>
			<point x="481" y="168"/>
			<point x="481" y="145" type="curve"/>
			<point x="485" y="90"/>
			<point x="487" y="82"/>
			<point x="496" y="52" type="curve" smooth="yes"/>
			<point x="508" y="12"/>
			<point x="546" y="-41"/>
			<point x="588" y="-65" type="curve" smooth="yes"/>
			<point x="620" y="-83"/>
			<point x="623" y="-94"/>
		</contour>
		<contour>
			<point x="85" y="341" type="curve" smooth="yes"/>
			<point x="105" y="354"/>
			<point x="113" y="385"/>
			<point x="113" y="417" type="curve" smooth="yes"/>
			<point x="113" y="438"/>
			<point x="109" y="459"/>
			<point x="104" y="477" type="curve" smooth="yes"/>
			<point x="97" y="500"/>
			<point x="92" y="510"/>
			<point x="97" y="514" type="curve" smooth="yes"/>
			<point x="101" y="517"/>
			<point x="118" y="535"/>
			<point x="125" y="553" type="curve" smooth="yes"/>
			<point x="132" y="570"/>
			<point x="131" y="587"/>
			<point x="131" y="601" type="curve"/>
			<point x="174" y="635"/>
			<point x="194" y="667"/>
			<point x="199" y="671" type="curve" smooth="yes"/>
			<point x="204" y="675"/>
			<point x="202" y="679"/>
			<point x="198" y="679" type="curve" smooth="yes"/>
			<point x="198" y="679"/>
			<point x="197" y="679"/>
			<point x="196" y="679" type="curve" smooth="yes"/>
			<point x="192" y="677"/>
			<point x="152" y="667"/>
			<point x="116" y="638" type="curve" smooth="yes"/>
			<point x="61" y="593"/>
			<point x="26" y="507"/>
			<point x="26" y="438" type="curve" smooth="yes"/>
			<point x="26" y="406"/>
			<point x="33" y="378"/>
			<point x="49" y="358" type="curve" smooth="yes"/>
			<point x="60" y="344"/>
			<point x="76" y="335"/>
		</contour>
		<contour>
			<point x="409" y="105" type="curve" smooth="yes"/>
			<point x="488" y="105"/>
			<point x="547" y="212"/>
			<point x="540" y="253" type="curve" smooth="yes"/>
			<point x="522" y="347"/>
			<point x="480" y="370"/>
			<point x="443" y="370" type="curve" smooth="yes"/>
			<point x="377" y="370"/>
			<point x="331" y="295"/>
			<point x="331" y="225" type="curve" smooth="yes"/>
			<point x="331" y="217"/>
			<point x="332" y="209"/>
			<point x="333" y="201" type="curve" smooth="yes"/>
			<point x="338" y="172"/>
			<point x="351" y="105"/>
		</contour>
		<contour>
			<point x="215" y="343" type="curve" smooth="yes"/>
			<point x="252" y="350"/>
			<point x="287" y="405"/>
			<point x="297" y="453" type="curve" smooth="yes"/>
			<point x="302" y="476"/>
			<point x="302" y="486"/>
			<point x="308" y="487" type="curve" smooth="yes"/>
			<point x="314" y="488"/>
			<point x="337" y="496"/>
			<point x="351" y="509" type="curve" smooth="yes"/>
			<point x="365" y="522"/>
			<point x="374" y="536"/>
			<point x="380" y="548" type="curve"/>
			<point x="434" y="557"/>
			<point x="467" y="575"/>
			<point x="474" y="576" type="curve" smooth="yes"/>
			<point x="481" y="577"/>
			<point x="480" y="584"/>
			<point x="475" y="585" type="curve" smooth="yes"/>
			<point x="472" y="586"/>
			<point x="452" y="590"/>
			<point x="425" y="590" type="curve" smooth="yes"/>
			<point x="413" y="590"/>
			<point x="400" y="589"/>
			<point x="386" y="587" type="curve" smooth="yes"/>
			<point x="289" y="570"/>
			<point x="190" y="467"/>
			<point x="190" y="389" type="curve" smooth="yes"/>
			<point x="190" y="366"/>
			<point x="201" y="340"/>
		</contour>
		<contour>
			<point x="395" y="329" type="curve" smooth="yes"/>
			<point x="397" y="329"/>
			<point x="400" y="329"/>
			<point x="403" y="330" type="curve" smooth="yes"/>
			<point x="425" y="334"/>
			<point x="468" y="378"/>
			<point x="482" y="411" type="curve" smooth="yes"/>
			<point x="485" y="418"/>
			<point x="487" y="426"/>
			<point x="491" y="430" type="curve" smooth="yes"/>
			<point x="496" y="435"/>
			<point x="551" y="423"/>
			<point x="582" y="465" type="curve" smooth="yes"/>
			<point x="585" y="469"/>
			<point x="587" y="471"/>
			<point x="591" y="471" type="curve" smooth="yes"/>
			<point x="602" y="471"/>
			<point x="613" y="470"/>
			<point x="626" y="472" type="curve" smooth="yes"/>
			<point x="639" y="474"/>
			<point x="653" y="478"/>
			<point x="669" y="486" type="curve" smooth="yes"/>
			<point x="673" y="488"/>
			<point x="678" y="490"/>
			<point x="677" y="493" type="curve" smooth="yes"/>
			<point x="676" y="495"/>
			<point x="675" y="497"/>
			<point x="667" y="500" type="curve" smooth="yes"/>
			<point x="656" y="504"/>
			<point x="631" y="507"/>
			<point x="604" y="507" type="curve" smooth="yes"/>
			<point x="587" y="507"/>
			<point x="569" y="506"/>
			<point x="553" y="503" type="curve" smooth="yes"/>
			<point x="474" y="490"/>
			<point x="357" y="405"/>
			<point x="365" y="367" type="curve" smooth="yes"/>
			<point x="369" y="345"/>
			<point x="376" y="329"/>
		</contour>
		<contour>
			<point x="546" y="271" type="curve" smooth="yes"/>
			<point x="559" y="271"/>
			<point x="580" y="278"/>
			<point x="597" y="330" type="curve" smooth="yes"/>
			<point x="601" y="342"/>
			<point x="609" y="356"/>
			<point x="617" y="357" type="curve" smooth="yes"/>
			<point x="622" y="358"/>
			<point x="628" y="356"/>
			<point x="635" y="356" type="curve" smooth="yes"/>
			<point x="636" y="356"/>
			<point x="637" y="356"/>
			<point x="638" y="356" type="curve" smooth="yes"/>
			<point x="658" y="358"/>
			<point x="673" y="368"/>
			<point x="680" y="368" type="curve" smooth="yes"/>
			<point x="683" y="368"/>
			<point x="685" y="368"/>
			<point x="688" y="367" type="curve" smooth="yes"/>
			<point x="698" y="365"/>
			<point x="703" y="360"/>
			<point x="707" y="359" type="curve" smooth="yes"/>
			<point x="714" y="358"/>
			<point x="728" y="354"/>
			<point x="736" y="354" type="curve" smooth="yes"/>
			<point x="739" y="354"/>
			<point x="741" y="354"/>
			<point x="741" y="356" type="curve" smooth="yes"/>
			<point x="741" y="358"/>
			<point x="740" y="360"/>
			<point x="736" y="363" type="curve" smooth="yes"/>
			<point x="719" y="377"/>
			<point x="679" y="401"/>
			<point x="637" y="401" type="curve" smooth="yes"/>
			<point x="631" y="401"/>
			<point x="626" y="401"/>
			<point x="620" y="400" type="curve" smooth="yes"/>
			<point x="551" y="388"/>
			<point x="517" y="320"/>
			<point x="521" y="294" type="curve"/>
			<point x="524" y="281"/>
			<point x="535" y="271"/>
		</contour>
	</outline>
</glyph>
<glyph name="m" format="2">
	<advance width="1000"/>
	<unicode hex="006D"/>
	<outline>
		<contour>
			<point x="446" y="-32" type="curve" smooth="yes"/>
			<point x="475" y="-32"/>
			<point x="668" y="10"/>
			<point x="740" y="48" type="curve" smooth="yes"/>
			<point x="812" y="86"/>
			<point x="927" y="158"/>
			<point x="990" y="158" type="curve" smooth="yes"/>
			<point x="1010" y="158" type="line"/>
			<point x="1010" y="442" type="line"/>
			<point x="990" y="442" type="line" smooth="yes"/>
			<point x="891" y="442"/>
			<point x="791" y="530"/>
			<point x="728" y="542" type="curve" smooth="yes"/>
			<point x="689" y="549"/>
			<point x="654" y="551"/>
			<point x="622" y="551" type="curve" smooth="yes"/>
			<point x="574" y="551"/>
			<point x="535" y="546"/>
			<point x="511" y="546" type="curve" smooth="yes"/>
			<point x="471" y="546"/>
			<point x="360" y="570"/>
			<point x="318" y="570" type="curve" smooth="yes"/>
			<point x="276" y="570"/>
			<point x="222" y="576"/>
			<point x="181" y="585" type="curve" smooth="yes"/>
			<point x="140" y="594"/>
			<point x="108" y="605"/>
			<point x="98" y="605" type="curve" smooth="yes"/>
			<point x="90" y="605"/>
			<point x="83" y="600"/>
			<point x="83" y="593" type="curve" smooth="yes"/>
			<point x="83" y="577"/>
			<point x="106" y="544"/>
			<point x="114" y="532" type="curve" smooth="yes"/>
			<point x="143" y="491"/>
			<point x="169" y="477"/>
			<point x="200" y="444" type="curve" smooth="yes"/>
			<point x="231" y="411"/>
			<point x="236" y="390"/>
			<point x="245" y="345" type="curve" smooth="yes"/>
			<point x="254" y="300"/>
			<point x="273" y="278"/>
			<point x="290" y="251" type="curve" smooth="yes"/>
			<point x="302" y="231"/>
			<point x="317" y="210"/>
			<point x="317" y="225" type="curve" smooth="yes"/>
			<point x="317" y="231"/>
			<point x="315" y="241"/>
			<point x="310" y="259" type="curve" smooth="yes"/>
			<point x="306" y="274"/>
			<point x="304" y="286"/>
			<point x="304" y="294" type="curve" smooth="yes"/>
			<point x="304" y="308"/>
			<point x="308" y="315"/>
			<point x="314" y="315" type="curve" smooth="yes"/>
			<point x="319" y="315"/>
			<point x="326" y="306"/>
			<point x="331" y="290" type="curve" smooth="yes"/>
			<point x="343" y="250"/>
			<point x="362" y="216"/>
			<point x="372" y="200" type="curve" smooth="yes"/>
			<point x="377" y="192"/>
			<point x="384" y="187"/>
			<point x="388" y="187" type="curve" smooth="yes"/>
			<point x="390" y="187"/>
			<point x="391" y="188"/>
			<point x="391" y="191" type="curve" smooth="yes"/>
			<point x="391" y="195"/>
			<point x="389" y="201"/>
			<point x="385" y="210" type="curve" smooth="yes"/>
			<point x="370" y="243"/>
			<point x="368" y="262"/>
			<point x="368" y="276" type="curve" smooth="yes"/>
			<point x="368" y="285"/>
			<point x="377" y="301"/>
			<point x="389" y="301" type="curve" smooth="yes"/>
			<point x="396" y="301"/>
			<point x="405" y="294"/>
			<point x="413" y="274" type="curve" smooth="yes"/>
			<point x="434" y="222"/>
			<point x="445" y="210"/>
			<point x="451" y="200" type="curve" smooth="yes"/>
			<point x="454" y="196"/>
			<point x="457" y="193"/>
			<point x="459" y="193" type="curve" smooth="yes"/>
			<point x="461" y="193"/>
			<point x="463" y="195"/>
			<point x="463" y="201" type="curve" smooth="yes"/>
			<point x="463" y="203"/>
			<point x="463" y="207"/>
			<point x="462" y="211" type="curve" smooth="yes"/>
			<point x="457" y="234"/>
			<point x="455" y="256"/>
			<point x="453" y="272" type="curve" smooth="yes"/>
			<point x="452" y="282"/>
			<point x="457" y="307"/>
			<point x="468" y="307" type="curve" smooth="yes"/>
			<point x="474" y="307"/>
			<point x="482" y="300"/>
			<point x="492" y="281" type="curve" smooth="yes"/>
			<point x="520" y="226"/>
			<point x="520" y="231"/>
			<point x="525" y="223" type="curve" smooth="yes"/>
			<point x="528" y="219"/>
			<point x="534" y="209"/>
			<point x="538" y="209" type="curve" smooth="yes"/>
			<point x="540" y="209"/>
			<point x="541" y="211"/>
			<point x="541" y="216" type="curve" smooth="yes"/>
			<point x="541" y="220"/>
			<point x="541" y="226"/>
			<point x="539" y="234" type="curve" smooth="yes"/>
			<point x="537" y="245"/>
			<point x="535" y="256"/>
			<point x="535" y="265" type="curve" smooth="yes"/>
			<point x="535" y="280"/>
			<point x="539" y="291"/>
			<point x="546" y="291" type="curve" smooth="yes"/>
			<point x="552" y="291"/>
			<point x="561" y="284"/>
			<point x="573" y="266" type="curve" smooth="yes"/>
			<point x="601" y="224"/>
			<point x="618" y="200"/>
			<point x="618" y="213" type="curve" smooth="yes"/>
			<point x="618" y="217"/>
			<point x="617" y="224"/>
			<point x="614" y="234" type="curve" smooth="yes"/>
			<point x="611" y="246"/>
			<point x="609" y="255"/>
			<point x="609" y="261" type="curve" smooth="yes"/>
			<point x="609" y="268"/>
			<point x="611" y="271"/>
			<point x="614" y="271" type="curve" smooth="yes"/>
			<point x="619" y="271"/>
			<point x="627" y="262"/>
			<point x="637" y="246" type="curve" smooth="yes"/>
			<point x="655" y="216"/>
			<point x="670" y="198"/>
			<point x="670" y="214" type="curve" smooth="yes"/>
			<point x="670" y="217"/>
			<point x="669" y="222"/>
			<point x="668" y="228" type="curve" smooth="yes"/>
			<point x="667" y="232"/>
			<point x="667" y="236"/>
			<point x="667" y="239" type="curve" smooth="yes"/>
			<point x="667" y="257"/>
			<point x="677" y="267"/>
			<point x="692" y="267" type="curve" smooth="yes"/>
			<point x="700" y="267"/>
			<point x="710" y="264"/>
			<point x="721" y="256" type="curve" smooth="yes"/>
			<point x="753" y="233"/>
			<point x="760" y="222"/>
			<point x="760" y="206" type="curve" smooth="yes"/>
			<point x="760" y="190"/>
			<point x="743" y="164"/>
			<point x="731" y="164" type="curve" smooth="yes"/>
			<point x="719" y="164"/>
			<point x="709" y="162"/>
			<point x="702" y="170" type="curve" smooth="yes"/>
			<point x="698" y="175"/>
			<point x="686" y="188"/>
			<point x="681" y="188" type="curve" smooth="yes"/>
			<point x="681" y="188"/>
			<point x="680" y="187"/>
			<point x="680" y="186" type="curve" smooth="yes"/>
			<point x="680" y="183"/>
			<point x="683" y="176"/>
			<point x="690" y="162" type="curve" smooth="yes"/>
			<point x="695" y="152"/>
			<point x="697" y="146"/>
			<point x="697" y="140" type="curve" smooth="yes"/>
			<point x="697" y="130"/>
			<point x="689" y="126"/>
			<point x="678" y="119" type="curve" smooth="yes"/>
			<point x="668" y="112"/>
			<point x="658" y="104"/>
			<point x="645" y="104" type="curve" smooth="yes"/>
			<point x="636" y="104"/>
			<point x="626" y="107"/>
			<point x="613" y="118" type="curve" smooth="yes"/>
			<point x="589" y="139"/>
			<point x="568" y="151"/>
			<point x="568" y="142" type="curve" smooth="yes"/>
			<point x="568" y="139"/>
			<point x="570" y="134"/>
			<point x="575" y="127" type="curve" smooth="yes"/>
			<point x="586" y="109"/>
			<point x="595" y="97"/>
			<point x="595" y="86" type="curve" smooth="yes"/>
			<point x="595" y="78"/>
			<point x="590" y="72"/>
			<point x="577" y="65" type="curve" smooth="yes"/>
			<point x="565" y="59"/>
			<point x="555" y="55"/>
			<point x="547" y="55" type="curve" smooth="yes"/>
			<point x="534" y="55"/>
			<point x="524" y="63"/>
			<point x="512" y="78" type="curve" smooth="yes"/>
			<point x="485" y="111"/>
			<point x="470" y="118"/>
			<point x="470" y="106" type="curve" smooth="yes"/>
			<point x="470" y="102"/>
			<point x="473" y="95"/>
			<point x="477" y="85" type="curve" smooth="yes"/>
			<point x="485" y="67"/>
			<point x="489" y="55"/>
			<point x="489" y="46" type="curve" smooth="yes"/>
			<point x="489" y="38"/>
			<point x="485" y="33"/>
			<point x="478" y="30" type="curve" smooth="yes"/>
			<point x="472" y="28"/>
			<point x="467" y="26"/>
			<point x="461" y="26" type="curve" smooth="yes"/>
			<point x="451" y="26"/>
			<point x="440" y="31"/>
			<point x="426" y="44" type="curve" smooth="yes"/>
			<point x="408" y="61"/>
			<point x="388" y="78"/>
			<point x="388" y="68" type="curve" smooth="yes"/>
			<point x="388" y="65"/>
			<point x="389" y="61"/>
			<point x="392" y="55" type="curve" smooth="yes"/>
			<point x="399" y="39"/>
			<point x="402" y="29"/>
			<point x="402" y="23" type="curve" smooth="yes"/>
			<point x="402" y="16"/>
			<point x="398" y="13"/>
			<point x="393" y="13" type="curve" smooth="yes"/>
			<point x="383" y="13"/>
			<point x="362" y="22"/>
			<point x="337" y="39" type="curve" smooth="yes"/>
			<point x="319" y="51"/>
			<point x="290" y="67"/>
			<point x="290" y="59" type="curve" smooth="yes"/>
			<point x="290" y="56"/>
			<point x="296" y="47"/>
			<point x="313" y="30" type="curve" smooth="yes"/>
			<point x="366" y="-23"/>
			<point x="417" y="-32"/>
		</contour>
		<contour>
			<point x="341" y="427" type="curve" smooth="yes"/>
			<point x="324" y="427"/>
			<point x="314" y="451"/>
			<point x="314" y="466" type="curve" smooth="yes"/>
			<point x="314" y="473"/>
			<point x="316" y="478"/>
			<point x="320" y="478" type="curve"/>
			<point x="332" y="478"/>
			<point x="351" y="451"/>
			<point x="351" y="436" type="curve" smooth="yes"/>
			<point x="351" y="431"/>
			<point x="348" y="427"/>
		</contour>
		<contour>
			<point x="705" y="368" type="curve" smooth="yes"/>
			<point x="678" y="368"/>
			<point x="656" y="416"/>
			<point x="656" y="439" type="curve" smooth="yes"/>
			<point x="656" y="461"/>
			<point x="679" y="506"/>
			<point x="740" y="506" type="curve"/>
			<point x="771" y="506"/>
			<point x="799" y="481"/>
			<point x="799" y="436" type="curve" smooth="yes"/>
			<point x="799" y="391"/>
			<point x="732" y="368"/>
		</contour>
		<contour>
			<point x="722" y="406" type="curve" smooth="yes"/>
			<point x="738" y="406"/>
			<point x="750" y="428"/>
			<point x="750" y="455" type="curve" smooth="yes"/>
			<point x="750" y="472"/>
			<point x="743" y="479"/>
			<point x="734" y="479" type="curve" smooth="yes"/>
			<point x="720" y="479"/>
			<point x="703" y="461"/>
			<point x="703" y="426" type="curve" smooth="yes"/>
			<point x="703" y="413"/>
			<point x="711" y="406"/>
		</contour>
		<contour>
			<point x="626" y="584" type="curve" smooth="yes"/>
			<point x="649" y="584"/>
			<point x="679" y="598"/>
			<point x="679" y="631" type="curve" smooth="yes"/>
			<point x="679" y="658"/>
			<point x="657" y="676"/>
			<point x="623" y="676" type="curve" smooth="yes"/>
			<point x="589" y="676"/>
			<point x="564" y="654"/>
			<point x="564" y="635" type="curve"/>
			<point x="564" y="599"/>
			<point x="603" y="584"/>
		</contour>
		<contour>
			<point x="822" y="619" type="curve" smooth="yes"/>
			<point x="845" y="619"/>
			<point x="881" y="628"/>
			<point x="881" y="664" type="curve" smooth="yes"/>
			<point x="881" y="700"/>
			<point x="845" y="720"/>
			<point x="797" y="720" type="curve" smooth="yes"/>
			<point x="749" y="720"/>
			<point x="717" y="688"/>
			<point x="717" y="663" type="curve" smooth="yes"/>
			<point x="717" y="648"/>
			<point x="727" y="635"/>
			<point x="741" y="635" type="curve" smooth="yes"/>
			<point x="755" y="635"/>
			<point x="799" y="619"/>
		</contour>
		<contour>
			<point x="731" y="741" type="curve" smooth="yes"/>
			<point x="769" y="741"/>
			<point x="799" y="755"/>
			<point x="799" y="772" type="curve" smooth="yes"/>
			<point x="799" y="787"/>
			<point x="777" y="798"/>
			<point x="750" y="798" type="curve" smooth="yes"/>
			<point x="720" y="798"/>
			<point x="696" y="784"/>
			<point x="696" y="766" type="curve"/>
			<point x="696" y="752"/>
			<point x="711" y="741"/>
		</contour>
	</outline>
</glyph>
<glyph name="n" format="2">
	<advance width="1000"/>
	<unicode hex="006E"/>
	<outline>
		<contour>
			<point x="504" y="-179" type="curve" smooth="yes"/>
			<point x="557" y="-179"/>
			<point x="575" y="-176"/>
			<point x="575" y="-172" type="curve" smooth="yes"/>
			<point x="575" y="-170"/>
			<point x="573" y="-167"/>
			<point x="568" y="-166" type="curve" smooth="yes"/>
			<point x="545" y="-162"/>
			<point x="526" y="-155"/>
			<point x="504" y="-139" type="curve" smooth="yes"/>
			<point x="493" y="-131"/>
			<point x="478" y="-118"/>
			<point x="476" y="-104" type="curve" smooth="yes"/>
			<point x="473" y="-84"/>
			<point x="475" y="-68"/>
			<point x="457" y="-61" type="curve" smooth="yes"/>
			<point x="447" y="-57"/>
			<point x="407" y="-48"/>
			<point x="407" y="-27" type="curve" smooth="yes"/>
			<point x="407" y="-15"/>
			<point x="421" y="-15"/>
			<point x="421" y="-2" type="curve" smooth="yes"/>
			<point x="421" y="12"/>
			<point x="393" y="17"/>
			<point x="393" y="57" type="curve" smooth="yes"/>
			<point x="393" y="80"/>
			<point x="419" y="94"/>
			<point x="452" y="94" type="curve" smooth="yes"/>
			<point x="485" y="94"/>
			<point x="514" y="84"/>
			<point x="563" y="84" type="curve" smooth="yes"/>
			<point x="693" y="84"/>
			<point x="728" y="102"/>
			<point x="761" y="102" type="curve" smooth="yes"/>
			<point x="794" y="102"/>
			<point x="901" y="22"/>
			<point x="946" y="22" type="curve" smooth="yes"/>
			<point x="962" y="22"/>
			<point x="966" y="28"/>
			<point x="966" y="34" type="curve" smooth="yes"/>
			<point x="966" y="43"/>
			<point x="930" y="56"/>
			<point x="930" y="94" type="curve" smooth="yes"/>
			<point x="930" y="126"/>
			<point x="957" y="158"/>
			<point x="989" y="158" type="curve"/>
			<point x="1010" y="158" type="line"/>
			<point x="1010" y="442" type="line"/>
			<point x="981" y="442" type="line" smooth="yes"/>
			<point x="953" y="442"/>
			<point x="786" y="480"/>
			<point x="756" y="491" type="curve" smooth="yes"/>
			<point x="726" y="502"/>
			<point x="687" y="543"/>
			<point x="687" y="584" type="curve" smooth="yes"/>
			<point x="687" y="637"/>
			<point x="708" y="676"/>
			<point x="708" y="744" type="curve" smooth="yes"/>
			<point x="708" y="763"/>
			<point x="703" y="792"/>
			<point x="674" y="792" type="curve" smooth="yes"/>
			<point x="593" y="792"/>
			<point x="363" y="566"/>
			<point x="339" y="536" type="curve" smooth="yes"/>
			<point x="319" y="512"/>
			<point x="282" y="502"/>
			<point x="248" y="477" type="curve"/>
			<point x="187" y="477"/>
			<point x="85" y="442"/>
			<point x="0" y="442" type="curve" smooth="yes"/>
			<point x="-10" y="442" type="line"/>
			<point x="-10" y="158" type="line"/>
			<point x="0" y="158" type="line" smooth="yes"/>
			<point x="20" y="158"/>
			<point x="39" y="161"/>
			<point x="58" y="161" type="curve" smooth="yes"/>
			<point x="79" y="161"/>
			<point x="102" y="113"/>
			<point x="110" y="77" type="curve" smooth="yes"/>
			<point x="124" y="14"/>
			<point x="247" y="-179"/>
		</contour>
		<contour>
			<point x="90" y="206" type="curve"/>
			<point x="90" y="244"/>
			<point x="108" y="265"/>
			<point x="108" y="292" type="curve" smooth="yes"/>
			<point x="108" y="314"/>
			<point x="84" y="354"/>
			<point x="84" y="381" type="curve" smooth="yes"/>
			<point x="84" y="387"/>
			<point x="85" y="389"/>
			<point x="86" y="389" type="curve" smooth="yes"/>
			<point x="88" y="389"/>
			<point x="90" y="386"/>
			<point x="92" y="381" type="curve" smooth="yes"/>
			<point x="96" y="371"/>
			<point x="112" y="345"/>
			<point x="124" y="334" type="curve" smooth="yes"/>
			<point x="136" y="323"/>
			<point x="146" y="309"/>
			<point x="146" y="288" type="curve" smooth="yes"/>
			<point x="146" y="267"/>
			<point x="131" y="255"/>
			<point x="116" y="239" type="curve" smooth="yes"/>
			<point x="101" y="223"/>
			<point x="90" y="192"/>
		</contour>
		<contour>
			<point x="158" y="206" type="curve"/>
			<point x="158" y="244"/>
			<point x="178" y="255"/>
			<point x="178" y="292" type="curve" smooth="yes"/>
			<point x="178" y="314"/>
			<point x="144" y="354"/>
			<point x="144" y="381" type="curve" smooth="yes"/>
			<point x="144" y="387"/>
			<point x="145" y="389"/>
			<point x="146" y="389" type="curve" smooth="yes"/>
			<point x="148" y="389"/>
			<point x="150" y="386"/>
			<point x="152" y="381" type="curve" smooth="yes"/>
			<point x="156" y="371"/>
			<point x="182" y="345"/>
			<point x="194" y="334" type="curve" smooth="yes"/>
			<point x="206" y="323"/>
			<point x="216" y="309"/>
			<point x="216" y="288" type="curve" smooth="yes"/>
			<point x="216" y="267"/>
			<point x="201" y="255"/>
			<point x="186" y="239" type="curve" smooth="yes"/>
			<point x="171" y="223"/>
			<point x="158" y="192"/>
		</contour>
		<contour>
			<point x="220" y="206" type="curve"/>
			<point x="220" y="234"/>
			<point x="248" y="255"/>
			<point x="248" y="292" type="curve" smooth="yes"/>
			<point x="248" y="314"/>
			<point x="214" y="354"/>
			<point x="214" y="381" type="curve" smooth="yes"/>
			<point x="214" y="387"/>
			<point x="215" y="389"/>
			<point x="216" y="389" type="curve" smooth="yes"/>
			<point x="218" y="389"/>
			<point x="220" y="386"/>
			<point x="222" y="381" type="curve" smooth="yes"/>
			<point x="226" y="371"/>
			<point x="252" y="345"/>
			<point x="264" y="334" type="curve" smooth="yes"/>
			<point x="276" y="323"/>
			<point x="286" y="309"/>
			<point x="286" y="288" type="curve" smooth="yes"/>
			<point x="286" y="267"/>
			<point x="271" y="255"/>
			<point x="256" y="239" type="curve" smooth="yes"/>
			<point x="241" y="223"/>
			<point x="220" y="192"/>
		</contour>
		<contour>
			<point x="280" y="206" type="curve"/>
			<point x="280" y="234"/>
			<point x="318" y="255"/>
			<point x="318" y="292" type="curve" smooth="yes"/>
			<point x="318" y="324"/>
			<point x="274" y="354"/>
			<point x="274" y="381" type="curve" smooth="yes"/>
			<point x="274" y="387"/>
			<point x="275" y="389"/>
			<point x="276" y="389" type="curve" smooth="yes"/>
			<point x="278" y="389"/>
			<point x="280" y="386"/>
			<point x="282" y="381" type="curve" smooth="yes"/>
			<point x="286" y="371"/>
			<point x="317" y="345"/>
			<point x="329" y="334" type="curve" smooth="yes"/>
			<point x="341" y="323"/>
			<point x="356" y="309"/>
			<point x="356" y="288" type="curve" smooth="yes"/>
			<point x="356" y="267"/>
			<point x="339" y="251"/>
			<point x="321" y="239" type="curve" smooth="yes"/>
			<point x="296" y="223"/>
			<point x="280" y="192"/>
		</contour>
	</outline>
</glyph>
<glyph name="o" format="2">
	<advance width="1000"/>
	<unicode hex="006F"/>
	<outline>
		<contour>
			<point x="792" y="5" type="curve" smooth="yes"/>
			<point x="807" y="5"/>
			<point x="813" y="14"/>
			<point x="813" y="22" type="curve" smooth="yes"/>
			<point x="813" y="31"/>
			<point x="715" y="120"/>
			<point x="680" y="178" type="curve" smooth="yes"/>
			<point x="661" y="209"/>
			<point x="650" y="231"/>
			<point x="650" y="248" type="curve" smooth="yes"/>
			<point x="650" y="282"/>
			<point x="693" y="345"/>
			<point x="737" y="386" type="curve" smooth="yes"/>
			<point x="782" y="428"/>
			<point x="828" y="458"/>
			<point x="828" y="468" type="curve" smooth="yes"/>
			<point x="828" y="474"/>
			<point x="817" y="478"/>
			<point x="806" y="478" type="curve" smooth="yes"/>
			<point x="723" y="478"/>
			<point x="439" y="377"/>
			<point x="349" y="377" type="curve" smooth="yes"/>
			<point x="308" y="377"/>
			<point x="281" y="380"/>
			<point x="281" y="404" type="curve" smooth="yes"/>
			<point x="281" y="438"/>
			<point x="349" y="482"/>
			<point x="349" y="498" type="curve" smooth="yes"/>
			<point x="349" y="502"/>
			<point x="347" y="505"/>
			<point x="342" y="505" type="curve" smooth="yes"/>
			<point x="280" y="505"/>
			<point x="159" y="425"/>
			<point x="110" y="425" type="curve" smooth="yes"/>
			<point x="82" y="425"/>
			<point x="55" y="442"/>
			<point x="10" y="442" type="curve" smooth="yes"/>
			<point x="-10" y="442" type="line"/>
			<point x="-10" y="158" type="line"/>
			<point x="10" y="158" type="line" smooth="yes"/>
			<point x="107" y="158"/>
			<point x="127" y="162"/>
			<point x="152" y="162" type="curve" smooth="yes"/>
			<point x="177" y="162"/>
			<point x="291" y="116"/>
			<point x="330" y="116" type="curve" smooth="yes"/>
			<point x="343" y="116"/>
			<point x="349" y="119"/>
			<point x="349" y="123" type="curve" smooth="yes"/>
			<point x="349" y="131"/>
			<point x="304" y="150"/>
			<point x="304" y="176" type="curve" smooth="yes"/>
			<point x="304" y="190"/>
			<point x="316" y="198"/>
			<point x="336" y="198" type="curve" smooth="yes"/>
			<point x="396" y="198"/>
			<point x="479" y="124"/>
			<point x="570" y="75" type="curve" smooth="yes"/>
			<point x="670" y="21"/>
			<point x="744" y="5"/>
		</contour>
	</outline>
</glyph>
<glyph name="p" format="2">
	<advance width="1000"/>
	<unicode hex="0070"/>
	<outline>
		<contour>
			<point x="816" y="-87" type="curve" smooth="yes"/>
			<point x="841" y="-87"/>
			<point x="846" y="-68"/>
			<point x="856" y="-63" type="curve" smooth="yes"/>
			<point x="866" y="-58"/>
			<point x="883" y="-58"/>
			<point x="893" y="-48" type="curve" smooth="yes"/>
			<point x="903" y="-38"/>
			<point x="907" y="-27"/>
			<point x="918" y="-21" type="curve" smooth="yes"/>
			<point x="929" y="-15"/>
			<point x="934" y="-7"/>
			<point x="934" y="8" type="curve" smooth="yes"/>
			<point x="934" y="23"/>
			<point x="922" y="50"/>
			<point x="914" y="63" type="curve" smooth="yes"/>
			<point x="906" y="76"/>
			<point x="895" y="83"/>
			<point x="895" y="101" type="curve" smooth="yes"/>
			<point x="895" y="112"/>
			<point x="904" y="117"/>
			<point x="912" y="121" type="curve" smooth="yes"/>
			<point x="920" y="125"/>
			<point x="929" y="126"/>
			<point x="935" y="132" type="curve" smooth="yes"/>
			<point x="940" y="137"/>
			<point x="961" y="157"/>
			<point x="990" y="157" type="curve" smooth="yes"/>
			<point x="1009" y="157" type="line"/>
			<point x="1009" y="442" type="line"/>
			<point x="990" y="442" type="line" smooth="yes"/>
			<point x="956" y="442"/>
			<point x="934" y="445"/>
			<point x="926" y="450" type="curve" smooth="yes"/>
			<point x="916" y="456"/>
			<point x="909" y="465"/>
			<point x="909" y="474" type="curve" smooth="yes"/>
			<point x="909" y="483"/>
			<point x="922" y="490"/>
			<point x="927" y="494" type="curve" smooth="yes"/>
			<point x="935" y="500"/>
			<point x="938" y="503"/>
			<point x="938" y="511" type="curve" smooth="yes"/>
			<point x="938" y="519"/>
			<point x="938" y="529"/>
			<point x="941" y="534" type="curve" smooth="yes"/>
			<point x="944" y="539"/>
			<point x="951" y="546"/>
			<point x="954" y="549" type="curve" smooth="yes"/>
			<point x="957" y="552"/>
			<point x="958" y="555"/>
			<point x="958" y="557" type="curve" smooth="yes"/>
			<point x="958" y="561"/>
			<point x="955" y="563"/>
			<point x="952" y="563" type="curve" smooth="yes"/>
			<point x="942" y="563"/>
			<point x="932" y="554"/>
			<point x="922" y="554" type="curve" smooth="yes"/>
			<point x="912" y="554"/>
			<point x="903" y="555"/>
			<point x="903" y="564" type="curve" smooth="yes"/>
			<point x="903" y="570"/>
			<point x="906" y="575"/>
			<point x="909" y="579" type="curve" smooth="yes"/>
			<point x="912" y="583"/>
			<point x="916" y="590"/>
			<point x="916" y="599" type="curve" smooth="yes"/>
			<point x="916" y="608"/>
			<point x="912" y="613"/>
			<point x="905" y="620" type="curve" smooth="yes"/>
			<point x="898" y="627"/>
			<point x="890" y="636"/>
			<point x="890" y="649" type="curve" smooth="yes"/>
			<point x="890" y="662"/>
			<point x="894" y="679"/>
			<point x="897" y="684" type="curve" smooth="yes"/>
			<point x="900" y="689"/>
			<point x="903" y="696"/>
			<point x="903" y="699" type="curve" smooth="yes"/>
			<point x="903" y="702"/>
			<point x="901" y="709"/>
			<point x="895" y="709" type="curve" smooth="yes"/>
			<point x="889" y="709"/>
			<point x="882" y="703"/>
			<point x="874" y="693" type="curve" smooth="yes"/>
			<point x="868" y="686"/>
			<point x="850" y="658"/>
			<point x="837" y="641" type="curve" smooth="yes"/>
			<point x="828" y="629"/>
			<point x="822" y="626"/>
			<point x="814" y="626" type="curve" smooth="yes"/>
			<point x="806" y="626"/>
			<point x="800" y="634"/>
			<point x="798" y="639" type="curve" smooth="yes"/>
			<point x="796" y="644"/>
			<point x="791" y="655"/>
			<point x="784" y="662" type="curve" smooth="yes"/>
			<point x="777" y="669"/>
			<point x="765" y="675"/>
			<point x="752" y="678" type="curve" smooth="yes"/>
			<point x="740" y="681"/>
			<point x="740" y="688"/>
			<point x="740" y="693" type="curve" smooth="yes"/>
			<point x="740" y="696"/>
			<point x="741" y="701"/>
			<point x="741" y="705" type="curve" smooth="yes"/>
			<point x="741" y="707"/>
			<point x="741" y="710"/>
			<point x="740" y="712" type="curve" smooth="yes"/>
			<point x="737" y="719"/>
			<point x="731" y="725"/>
			<point x="731" y="735" type="curve" smooth="yes"/>
			<point x="731" y="745"/>
			<point x="738" y="755"/>
			<point x="739" y="756" type="curve" smooth="yes"/>
			<point x="740" y="757"/>
			<point x="742" y="759"/>
			<point x="742" y="762" type="curve" smooth="yes"/>
			<point x="742" y="765"/>
			<point x="740" y="768"/>
			<point x="735" y="768" type="curve" smooth="yes"/>
			<point x="730" y="768"/>
			<point x="720" y="764"/>
			<point x="709" y="749" type="curve" smooth="yes"/>
			<point x="698" y="734"/>
			<point x="678" y="696"/>
			<point x="670" y="662" type="curve" smooth="yes"/>
			<point x="662" y="628"/>
			<point x="646" y="578"/>
			<point x="630" y="578" type="curve" smooth="yes"/>
			<point x="621" y="578"/>
			<point x="615" y="583"/>
			<point x="611" y="589" type="curve" smooth="yes"/>
			<point x="607" y="595"/>
			<point x="602" y="606"/>
			<point x="596" y="606" type="curve" smooth="yes"/>
			<point x="590" y="606"/>
			<point x="589" y="600"/>
			<point x="589" y="595" type="curve" smooth="yes"/>
			<point x="589" y="590"/>
			<point x="594" y="563"/>
			<point x="602" y="546" type="curve" smooth="yes"/>
			<point x="612" y="525"/>
			<point x="637" y="500"/>
			<point x="637" y="486" type="curve" smooth="yes"/>
			<point x="637" y="476"/>
			<point x="618" y="470"/>
			<point x="611" y="463" type="curve" smooth="yes"/>
			<point x="606" y="458"/>
			<point x="601" y="452"/>
			<point x="601" y="439" type="curve" smooth="yes"/>
			<point x="601" y="426"/>
			<point x="607" y="424"/>
			<point x="607" y="420" type="curve" smooth="yes"/>
			<point x="607" y="412"/>
			<point x="589" y="399"/>
			<point x="578" y="397" type="curve" smooth="yes"/>
			<point x="549" y="392"/>
			<point x="535" y="385"/>
			<point x="523" y="373" type="curve" smooth="yes"/>
			<point x="511" y="361"/>
			<point x="504" y="332"/>
			<point x="502" y="321" type="curve" smooth="yes"/>
			<point x="500" y="310"/>
			<point x="493" y="300"/>
			<point x="478" y="291" type="curve" smooth="yes"/>
			<point x="463" y="282"/>
			<point x="404" y="260"/>
			<point x="382" y="245" type="curve" smooth="yes"/>
			<point x="360" y="230"/>
			<point x="339" y="196"/>
			<point x="339" y="162" type="curve" smooth="yes"/>
			<point x="339" y="158"/>
			<point x="341" y="156"/>
			<point x="344" y="156" type="curve" smooth="yes"/>
			<point x="353" y="156"/>
			<point x="367" y="193"/>
			<point x="398" y="202" type="curve" smooth="yes"/>
			<point x="411" y="206"/>
			<point x="422" y="207"/>
			<point x="436" y="208" type="curve" smooth="yes"/>
			<point x="446" y="209"/>
			<point x="456" y="210"/>
			<point x="470" y="212" type="curve" smooth="yes"/>
			<point x="499" y="216"/>
			<point x="519" y="231"/>
			<point x="521" y="231" type="curve" smooth="yes"/>
			<point x="523" y="231"/>
			<point x="523" y="231"/>
			<point x="523" y="228" type="curve" smooth="yes"/>
			<point x="523" y="223"/>
			<point x="514" y="215"/>
			<point x="509" y="211" type="curve" smooth="yes"/>
			<point x="504" y="207"/>
			<point x="488" y="200"/>
			<point x="477" y="197" type="curve" smooth="yes"/>
			<point x="466" y="194"/>
			<point x="456" y="178"/>
			<point x="448" y="171" type="curve" smooth="yes"/>
			<point x="440" y="164"/>
			<point x="434" y="160"/>
			<point x="434" y="154" type="curve" smooth="yes"/>
			<point x="434" y="151"/>
			<point x="436" y="149"/>
			<point x="439" y="149" type="curve" smooth="yes"/>
			<point x="442" y="149"/>
			<point x="445" y="150"/>
			<point x="449" y="152" type="curve" smooth="yes"/>
			<point x="463" y="159"/>
			<point x="496" y="173"/>
			<point x="509" y="177" type="curve" smooth="yes"/>
			<point x="516" y="179"/>
			<point x="522" y="181"/>
			<point x="525" y="181" type="curve" smooth="yes"/>
			<point x="528" y="181"/>
			<point x="529" y="180"/>
			<point x="529" y="178" type="curve" smooth="yes"/>
			<point x="529" y="174"/>
			<point x="521" y="165"/>
			<point x="508" y="154" type="curve" smooth="yes"/>
			<point x="495" y="143"/>
			<point x="454" y="117"/>
			<point x="435" y="109" type="curve" smooth="yes"/>
			<point x="416" y="101"/>
			<point x="399" y="97"/>
			<point x="399" y="91" type="curve" smooth="yes"/>
			<point x="399" y="85"/>
			<point x="408" y="79"/>
			<point x="431" y="79" type="curve" smooth="yes"/>
			<point x="549" y="79"/>
			<point x="593" y="137"/>
			<point x="628" y="137" type="curve" smooth="yes"/>
			<point x="663" y="137"/>
			<point x="679" y="117"/>
			<point x="679" y="92" type="curve" smooth="yes"/>
			<point x="679" y="67"/>
			<point x="660" y="55"/>
			<point x="660" y="44" type="curve" smooth="yes"/>
			<point x="660" y="33"/>
			<point x="671" y="21"/>
			<point x="674" y="13" type="curve" smooth="yes"/>
			<point x="677" y="5"/>
			<point x="675" y="-34"/>
			<point x="719" y="-34" type="curve" smooth="yes"/>
			<point x="751" y="-34"/>
			<point x="762" y="-19"/>
			<point x="767" y="-10" type="curve" smooth="yes"/>
			<point x="770" y="-4"/>
			<point x="773" y="-3"/>
			<point x="775" y="-3" type="curve" smooth="yes"/>
			<point x="778" y="-3"/>
			<point x="779" y="-7"/>
			<point x="777" y="-14" type="curve" smooth="yes"/>
			<point x="774" y="-25"/>
			<point x="770" y="-36"/>
			<point x="770" y="-45" type="curve" smooth="yes"/>
			<point x="770" y="-70"/>
			<point x="785" y="-87"/>
		</contour>
		<contour>
			<point x="752" y="295" type="curve" smooth="yes"/>
			<point x="717" y="295"/>
			<point x="674" y="318"/>
			<point x="674" y="373" type="curve" smooth="yes"/>
			<point x="674" y="430"/>
			<point x="735" y="441"/>
			<point x="751" y="441" type="curve"/>
			<point x="793" y="441"/>
			<point x="829" y="407"/>
			<point x="829" y="368" type="curve" smooth="yes"/>
			<point x="829" y="335"/>
			<point x="808" y="295"/>
		</contour>
		<contour>
			<point x="752" y="329" type="curve" smooth="yes"/>
			<point x="775" y="329"/>
			<point x="791" y="347"/>
			<point x="791" y="366" type="curve" smooth="yes"/>
			<point x="791" y="393"/>
			<point x="772" y="407"/>
			<point x="752" y="407" type="curve" smooth="yes"/>
			<point x="732" y="407"/>
			<point x="712" y="393"/>
			<point x="712" y="366" type="curve" smooth="yes"/>
			<point x="712" y="346"/>
			<point x="729" y="329"/>
		</contour>
	</outline>
</glyph>
<glyph name="q" format="2">
	<advance width="1000"/>
	<unicode hex="0071"/>
	<outline>
		<contour>
			<point x="548" y="-53" type="curve" smooth="yes"/>
			<point x="600" y="-53"/>
			<point x="620" y="-44"/>
			<point x="653" y="-27" type="curve" smooth="yes"/>
			<point x="686" y="-10"/>
			<point x="693" y="-16"/>
			<point x="715" y="-12" type="curve" smooth="yes"/>
			<point x="737" y="-8"/>
			<point x="754" y="1"/>
			<point x="764" y="1" type="curve" smooth="yes"/>
			<point x="774" y="1"/>
			<point x="778" y="-6"/>
			<point x="815" y="-6" type="curve" smooth="yes"/>
			<point x="852" y="-6"/>
			<point x="907" y="28"/>
			<point x="934" y="65" type="curve" smooth="yes"/>
			<point x="961" y="102"/>
			<point x="979" y="157"/>
			<point x="1000" y="157" type="curve"/>
			<point x="1010" y="157" type="line"/>
			<point x="1010" y="442" type="line"/>
			<point x="1000" y="442" type="line"/>
			<point x="943" y="442"/>
			<point x="872" y="477"/>
			<point x="850" y="478" type="curve"/>
			<point x="853" y="484"/>
			<point x="858" y="487"/>
			<point x="860" y="489" type="curve" smooth="yes"/>
			<point x="862" y="491"/>
			<point x="865" y="494"/>
			<point x="865" y="497" type="curve" smooth="yes"/>
			<point x="865" y="500"/>
			<point x="864" y="503"/>
			<point x="853" y="503" type="curve" smooth="yes"/>
			<point x="842" y="503"/>
			<point x="823" y="501"/>
			<point x="813" y="501" type="curve" smooth="yes"/>
			<point x="774" y="501"/>
			<point x="743" y="516"/>
			<point x="734" y="516" type="curve"/>
			<point x="741" y="523"/>
			<point x="786" y="532"/>
			<point x="796" y="535" type="curve" smooth="yes"/>
			<point x="806" y="538"/>
			<point x="810" y="540"/>
			<point x="810" y="543" type="curve" smooth="yes"/>
			<point x="810" y="546"/>
			<point x="806" y="547"/>
			<point x="800" y="548" type="curve" smooth="yes"/>
			<point x="794" y="549"/>
			<point x="770" y="550"/>
			<point x="748" y="555" type="curve" smooth="yes"/>
			<point x="726" y="560"/>
			<point x="700" y="569"/>
			<point x="681" y="576" type="curve"/>
			<point x="709" y="582"/>
			<point x="747" y="616"/>
			<point x="747" y="627" type="curve" smooth="yes"/>
			<point x="747" y="630"/>
			<point x="745" y="632"/>
			<point x="742" y="632" type="curve" smooth="yes"/>
			<point x="737" y="632"/>
			<point x="718" y="624"/>
			<point x="707" y="624" type="curve" smooth="yes"/>
			<point x="696" y="624"/>
			<point x="661" y="626"/>
			<point x="647" y="626" type="curve" smooth="yes"/>
			<point x="640" y="626"/>
			<point x="626" y="627"/>
			<point x="609" y="627" type="curve" smooth="yes"/>
			<point x="595" y="627"/>
			<point x="577" y="626"/>
			<point x="559" y="623" type="curve"/>
			<point x="592" y="641"/>
			<point x="622" y="671"/>
			<point x="638" y="687" type="curve" smooth="yes"/>
			<point x="643" y="692"/>
			<point x="645" y="695"/>
			<point x="645" y="698" type="curve" smooth="yes"/>
			<point x="645" y="703"/>
			<point x="641" y="705"/>
			<point x="637" y="705" type="curve" smooth="yes"/>
			<point x="633" y="705"/>
			<point x="630" y="704"/>
			<point x="628" y="703" type="curve" smooth="yes"/>
			<point x="606" y="694"/>
			<point x="590" y="695"/>
			<point x="552" y="691" type="curve" smooth="yes"/>
			<point x="514" y="687"/>
			<point x="481" y="678"/>
			<point x="429" y="654" type="curve"/>
			<point x="455" y="686"/>
			<point x="483" y="746"/>
			<point x="483" y="755" type="curve" smooth="yes"/>
			<point x="483" y="759"/>
			<point x="481" y="762"/>
			<point x="477" y="762" type="curve" smooth="yes"/>
			<point x="470" y="762"/>
			<point x="458" y="748"/>
			<point x="405" y="721" type="curve" smooth="yes"/>
			<point x="352" y="694"/>
			<point x="300" y="645"/>
			<point x="282" y="625" type="curve"/>
			<point x="272" y="625"/>
			<point x="264" y="667"/>
			<point x="264" y="672" type="curve" smooth="yes"/>
			<point x="264" y="677"/>
			<point x="267" y="685"/>
			<point x="260" y="685" type="curve" smooth="yes"/>
			<point x="252" y="685"/>
			<point x="225" y="655"/>
			<point x="225" y="603" type="curve" smooth="yes"/>
			<point x="225" y="582"/>
			<point x="232" y="560"/>
			<point x="232" y="545" type="curve" smooth="yes"/>
			<point x="232" y="540"/>
			<point x="231" y="536"/>
			<point x="229" y="532" type="curve" smooth="yes"/>
			<point x="227" y="529"/>
			<point x="224" y="527"/>
			<point x="221" y="527" type="curve" smooth="yes"/>
			<point x="210" y="527"/>
			<point x="190" y="540"/>
			<point x="162" y="540" type="curve" smooth="yes"/>
			<point x="125" y="540"/>
			<point x="93" y="525"/>
			<point x="73" y="495" type="curve" smooth="yes"/>
			<point x="53" y="465"/>
			<point x="33" y="442"/>
			<point x="0" y="442" type="curve"/>
			<point x="-10" y="442" type="line"/>
			<point x="-10" y="157" type="line"/>
			<point x="10" y="157" type="line"/>
			<point x="40" y="157"/>
			<point x="65" y="149"/>
			<point x="90" y="107" type="curve" smooth="yes"/>
			<point x="115" y="65"/>
			<point x="128" y="45"/>
			<point x="153" y="29" type="curve" smooth="yes"/>
			<point x="178" y="13"/>
			<point x="189" y="11"/>
			<point x="225" y="11" type="curve" smooth="yes"/>
			<point x="261" y="11"/>
			<point x="278" y="26"/>
			<point x="289" y="26" type="curve" smooth="yes"/>
			<point x="300" y="26"/>
			<point x="309" y="21"/>
			<point x="321" y="4" type="curve" smooth="yes"/>
			<point x="333" y="-13"/>
			<point x="363" y="-39"/>
			<point x="403" y="-39" type="curve" smooth="yes"/>
			<point x="443" y="-39"/>
			<point x="456" y="-23"/>
			<point x="463" y="-23" type="curve" smooth="yes"/>
			<point x="470" y="-23"/>
			<point x="496" y="-53"/>
		</contour>
		<contour>
			<point x="377" y="-214" type="curve" smooth="yes"/>
			<point x="386" y="-214"/>
			<point x="429" y="-214"/>
			<point x="453" y="-208" type="curve" smooth="yes"/>
			<point x="490" y="-199"/>
			<point x="541" y="-178"/>
			<point x="567" y="-178" type="curve" smooth="yes"/>
			<point x="593" y="-178"/>
			<point x="612" y="-180"/>
			<point x="619" y="-180" type="curve" smooth="yes"/>
			<point x="626" y="-180"/>
			<point x="631" y="-179"/>
			<point x="631" y="-176" type="curve" smooth="yes"/>
			<point x="631" y="-173"/>
			<point x="629" y="-167"/>
			<point x="612" y="-159" type="curve" smooth="yes"/>
			<point x="595" y="-151"/>
			<point x="574" y="-144"/>
			<point x="574" y="-133" type="curve" smooth="yes"/>
			<point x="574" y="-122"/>
			<point x="591" y="-59"/>
			<point x="610" y="-33" type="curve"/>
			<point x="517" y="-16" type="line"/>
			<point x="524" y="-40"/>
			<point x="525" y="-71"/>
			<point x="525" y="-86" type="curve" smooth="yes"/>
			<point x="525" y="-101"/>
			<point x="518" y="-108"/>
			<point x="511" y="-108" type="curve" smooth="yes"/>
			<point x="504" y="-108"/>
			<point x="395" y="-118"/>
			<point x="374" y="-118" type="curve" smooth="yes"/>
			<point x="345" y="-118" type="line" smooth="yes"/>
			<point x="341" y="-118"/>
			<point x="339" y="-121"/>
			<point x="339" y="-124" type="curve" smooth="yes"/>
			<point x="339" y="-127"/>
			<point x="341" y="-130"/>
			<point x="345" y="-130" type="curve" smooth="yes"/>
			<point x="357" y="-130"/>
			<point x="400" y="-137"/>
			<point x="419" y="-142" type="curve"/>
			<point x="381" y="-152"/>
			<point x="356" y="-160"/>
			<point x="337" y="-160" type="curve"/>
			<point x="316" y="-160" type="line" smooth="yes"/>
			<point x="312" y="-160"/>
			<point x="309" y="-164"/>
			<point x="309" y="-168" type="curve" smooth="yes"/>
			<point x="309" y="-171"/>
			<point x="312" y="-175"/>
			<point x="316" y="-175" type="curve" smooth="yes"/>
			<point x="327" y="-175"/>
			<point x="373" y="-179"/>
			<point x="411" y="-179" type="curve" smooth="yes"/>
			<point x="421" y="-179"/>
			<point x="432" y="-179"/>
			<point x="440" y="-178" type="curve"/>
			<point x="404" y="-197"/>
			<point x="379" y="-200"/>
			<point x="374" y="-200" type="curve" smooth="yes"/>
			<point x="368" y="-200"/>
			<point x="365" y="-203"/>
			<point x="365" y="-206" type="curve" smooth="yes"/>
			<point x="365" y="-210"/>
			<point x="369" y="-214"/>
		</contour>
	</outline>
</glyph>
<glyph name="r" format="2">
	<advance width="1000"/>
	<unicode hex="0072"/>
	<outline>
		<contour>
			<point x="115" y="108" type="curve" smooth="yes"/>
			<point x="124" y="108"/>
			<point x="127" y="112"/>
			<point x="127" y="115" type="curve" smooth="yes"/>
			<point x="127" y="117"/>
			<point x="126" y="118"/>
			<point x="124" y="118" type="curve" smooth="yes"/>
			<point x="121" y="118"/>
			<point x="116" y="119"/>
			<point x="113" y="122" type="curve" smooth="yes"/>
			<point x="108" y="127"/>
			<point x="96" y="161"/>
			<point x="90" y="166" type="curve"/>
			<point x="110" y="166"/>
			<point x="132" y="156"/>
			<point x="145" y="150" type="curve" smooth="yes"/>
			<point x="158" y="144"/>
			<point x="187" y="138"/>
			<point x="203" y="138" type="curve" smooth="yes"/>
			<point x="219" y="138"/>
			<point x="253" y="139"/>
			<point x="253" y="145" type="curve" smooth="yes"/>
			<point x="253" y="150"/>
			<point x="241" y="152"/>
			<point x="228" y="158" type="curve" smooth="yes"/>
			<point x="215" y="164"/>
			<point x="185" y="194"/>
			<point x="173" y="211" type="curve" smooth="yes"/>
			<point x="161" y="228"/>
			<point x="158" y="235"/>
			<point x="153" y="239" type="curve"/>
			<point x="175" y="228"/>
			<point x="203" y="219"/>
			<point x="222" y="217" type="curve" smooth="yes"/>
			<point x="232" y="216"/>
			<point x="247" y="216"/>
			<point x="261" y="216" type="curve" smooth="yes"/>
			<point x="276" y="216"/>
			<point x="291" y="216"/>
			<point x="300" y="216" type="curve" smooth="yes"/>
			<point x="318" y="216"/>
			<point x="359" y="204"/>
			<point x="386" y="189" type="curve" smooth="yes"/>
			<point x="404" y="179"/>
			<point x="410" y="178"/>
			<point x="414" y="178" type="curve" smooth="yes"/>
			<point x="416" y="178"/>
			<point x="417" y="178"/>
			<point x="418" y="178" type="curve" smooth="yes"/>
			<point x="422" y="178"/>
			<point x="422" y="181"/>
			<point x="422" y="184" type="curve" smooth="yes"/>
			<point x="422" y="187"/>
			<point x="412" y="191"/>
			<point x="401" y="200" type="curve" smooth="yes"/>
			<point x="390" y="209"/>
			<point x="356" y="255"/>
			<point x="342" y="270" type="curve" smooth="yes"/>
			<point x="328" y="285"/>
			<point x="300" y="306"/>
			<point x="276" y="313" type="curve"/>
			<point x="300" y="324"/>
			<point x="330" y="335"/>
			<point x="363" y="335" type="curve" smooth="yes"/>
			<point x="396" y="335"/>
			<point x="488" y="311"/>
			<point x="517" y="311" type="curve" smooth="yes"/>
			<point x="541" y="311"/>
			<point x="543" y="312"/>
			<point x="543" y="315" type="curve" smooth="yes"/>
			<point x="543" y="316"/>
			<point x="543" y="316"/>
			<point x="543" y="317" type="curve" smooth="yes"/>
			<point x="543" y="321"/>
			<point x="514" y="330"/>
			<point x="501" y="336" type="curve" smooth="yes"/>
			<point x="488" y="342"/>
			<point x="461" y="368"/>
			<point x="423" y="398" type="curve" smooth="yes"/>
			<point x="419" y="401"/>
			<point x="402" y="408"/>
			<point x="387" y="411" type="curve"/>
			<point x="416" y="416"/>
			<point x="439" y="426"/>
			<point x="439" y="430" type="curve" smooth="yes"/>
			<point x="439" y="434"/>
			<point x="432" y="438"/>
			<point x="404" y="445" type="curve"/>
			<point x="431" y="445"/>
			<point x="454" y="459"/>
			<point x="466" y="459" type="curve" smooth="yes"/>
			<point x="496" y="459"/>
			<point x="513" y="465"/>
			<point x="518" y="465" type="curve" smooth="yes"/>
			<point x="523" y="465"/>
			<point x="529" y="466"/>
			<point x="529" y="472" type="curve" smooth="yes"/>
			<point x="529" y="486"/>
			<point x="492" y="500"/>
			<point x="459" y="509" type="curve"/>
			<point x="486" y="509"/>
			<point x="586" y="540"/>
			<point x="618" y="548" type="curve" smooth="yes"/>
			<point x="650" y="556"/>
			<point x="702" y="557"/>
			<point x="710" y="557" type="curve" smooth="yes"/>
			<point x="714" y="557"/>
			<point x="717" y="559"/>
			<point x="717" y="561" type="curve" smooth="yes"/>
			<point x="717" y="563"/>
			<point x="716" y="565"/>
			<point x="712" y="567" type="curve"/>
			<point x="649" y="608"/>
			<point x="475" y="629"/>
			<point x="416" y="629" type="curve" smooth="yes"/>
			<point x="410" y="629"/>
			<point x="404" y="628"/>
			<point x="401" y="628" type="curve"/>
			<point x="411" y="617" type="line"/>
			<point x="469" y="635"/>
			<point x="562" y="684"/>
			<point x="610" y="710" type="curve" smooth="yes"/>
			<point x="632" y="722"/>
			<point x="645" y="725"/>
			<point x="653" y="725" type="curve" smooth="yes"/>
			<point x="661" y="725"/>
			<point x="667" y="723"/>
			<point x="672" y="723" type="curve" smooth="yes"/>
			<point x="679" y="723"/>
			<point x="684" y="724"/>
			<point x="684" y="727" type="curve" smooth="yes"/>
			<point x="684" y="728"/>
			<point x="683" y="731"/>
			<point x="680" y="733" type="curve" smooth="yes"/>
			<point x="671" y="739"/>
			<point x="605" y="767"/>
			<point x="512" y="767" type="curve" smooth="yes"/>
			<point x="203" y="767"/>
			<point x="50" y="602"/>
			<point x="50" y="577" type="curve" smooth="yes"/>
			<point x="50" y="558"/>
			<point x="58" y="535"/>
			<point x="58" y="513" type="curve" smooth="yes"/>
			<point x="58" y="467"/>
			<point x="19" y="442"/>
			<point x="10" y="442" type="curve" smooth="yes"/>
			<point x="-5" y="442" type="line"/>
			<point x="-5" y="157" type="line"/>
			<point x="10" y="157" type="line" smooth="yes"/>
			<point x="21" y="157"/>
			<point x="34" y="151"/>
			<point x="43" y="143" type="curve" smooth="yes"/>
			<point x="55" y="132"/>
			<point x="86" y="108"/>
		</contour>
	</outline>
</glyph>
<glyph name="s" format="2">
	<advance width="1000"/>
	<unicode hex="0073"/>
	<outline>
		<contour>
			<point x="498" y="-196" type="curve" smooth="yes"/>
			<point x="503" y="-196"/>
			<point x="504" y="-192"/>
			<point x="504" y="-184" type="curve" smooth="yes"/>
			<point x="504" y="-178"/>
			<point x="503" y="-169"/>
			<point x="503" y="-158" type="curve" smooth="yes"/>
			<point x="503" y="-132"/>
			<point x="513" y="-120"/>
			<point x="518" y="-120" type="curve" smooth="yes"/>
			<point x="523" y="-120"/>
			<point x="517" y="-152"/>
			<point x="525" y="-152" type="curve" smooth="yes"/>
			<point x="533" y="-152"/>
			<point x="542" y="-116"/>
			<point x="547" y="-100" type="curve" smooth="yes"/>
			<point x="550" y="-91"/>
			<point x="553" y="-85"/>
			<point x="557" y="-85" type="curve" smooth="yes"/>
			<point x="559" y="-85"/>
			<point x="561" y="-87"/>
			<point x="562" y="-91" type="curve" smooth="yes"/>
			<point x="565" y="-100"/>
			<point x="567" y="-104"/>
			<point x="569" y="-104" type="curve" smooth="yes"/>
			<point x="572" y="-104"/>
			<point x="573" y="-91"/>
			<point x="577" y="-73" type="curve" smooth="yes"/>
			<point x="581" y="-55"/>
			<point x="587" y="-36"/>
			<point x="597" y="-26" type="curve" smooth="yes"/>
			<point x="617" y="-7"/>
			<point x="644" y="10"/>
			<point x="674" y="14" type="curve" smooth="yes"/>
			<point x="704" y="18"/>
			<point x="816" y="30"/>
			<point x="854" y="68" type="curve" smooth="yes"/>
			<point x="875" y="89"/>
			<point x="883" y="113"/>
			<point x="905" y="131" type="curve" smooth="yes"/>
			<point x="923" y="147"/>
			<point x="949" y="158"/>
			<point x="1000" y="158" type="curve" smooth="yes"/>
			<point x="1010" y="158" type="line"/>
			<point x="1010" y="442" type="line"/>
			<point x="1000" y="442" type="line" smooth="yes"/>
			<point x="971" y="442"/>
			<point x="962" y="444"/>
			<point x="949" y="455" type="curve" smooth="yes"/>
			<point x="941" y="464"/>
			<point x="931" y="473"/>
			<point x="919" y="482" type="curve" smooth="yes"/>
			<point x="908" y="490"/>
			<point x="908" y="515"/>
			<point x="908" y="551" type="curve" smooth="yes"/>
			<point x="908" y="587"/>
			<point x="922" y="642"/>
			<point x="938" y="675" type="curve" smooth="yes"/>
			<point x="954" y="708"/>
			<point x="965" y="740"/>
			<point x="965" y="746" type="curve" smooth="yes"/>
			<point x="965" y="751"/>
			<point x="961" y="755"/>
			<point x="956" y="755" type="curve" smooth="yes"/>
			<point x="932" y="755"/>
			<point x="881" y="707"/>
			<point x="840" y="647" type="curve" smooth="yes"/>
			<point x="789" y="571"/>
			<point x="784" y="560"/>
			<point x="770" y="560" type="curve" smooth="yes"/>
			<point x="756" y="560"/>
			<point x="746" y="578"/>
			<point x="746" y="627" type="curve" smooth="yes"/>
			<point x="746" y="676"/>
			<point x="767" y="704"/>
			<point x="781" y="729" type="curve" smooth="yes"/>
			<point x="795" y="754"/>
			<point x="807" y="766"/>
			<point x="807" y="773" type="curve" smooth="yes"/>
			<point x="807" y="778"/>
			<point x="803" y="782"/>
			<point x="799" y="782" type="curve" smooth="yes"/>
			<point x="771" y="782"/>
			<point x="722" y="739"/>
			<point x="687" y="684" type="curve" smooth="yes"/>
			<point x="634" y="601"/>
			<point x="620" y="518"/>
			<point x="605" y="509" type="curve" smooth="yes"/>
			<point x="590" y="500"/>
			<point x="565" y="483"/>
			<point x="536" y="431" type="curve" smooth="yes"/>
			<point x="507" y="379"/>
			<point x="461" y="287"/>
			<point x="388" y="223" type="curve" smooth="yes"/>
			<point x="350" y="190"/>
			<point x="325" y="173"/>
			<point x="305" y="159" type="curve" smooth="yes"/>
			<point x="261" y="128"/>
			<point x="227" y="94"/>
			<point x="227" y="53" type="curve" smooth="yes"/>
			<point x="227" y="48"/>
			<point x="228" y="44"/>
			<point x="229" y="40" type="curve" smooth="yes"/>
			<point x="235" y="24"/>
			<point x="212" y="-1"/>
			<point x="212" y="-33" type="curve" smooth="yes"/>
			<point x="212" y="-88"/>
			<point x="254" y="-140"/>
			<point x="349" y="-140" type="curve" smooth="yes"/>
			<point x="396" y="-140"/>
			<point x="406" y="-115"/>
			<point x="429" y="-104" type="curve" smooth="yes"/>
			<point x="452" y="-93"/>
			<point x="454" y="-94"/>
			<point x="464" y="-94" type="curve" smooth="yes"/>
			<point x="474" y="-94"/>
			<point x="479" y="-111"/>
			<point x="479" y="-131" type="curve" smooth="yes"/>
			<point x="479" y="-151"/>
			<point x="487" y="-196"/>
		</contour>
		<contour>
			<point x="259" y="22" type="curve" smooth="yes"/>
			<point x="248" y="22"/>
			<point x="240" y="33"/>
			<point x="240" y="47" type="curve" smooth="yes"/>
			<point x="240" y="50"/>
			<point x="243" y="52"/>
			<point x="247" y="52" type="curve" smooth="yes"/>
			<point x="253" y="52"/>
			<point x="264" y="36"/>
			<point x="264" y="27" type="curve" smooth="yes"/>
			<point x="264" y="24"/>
			<point x="262" y="22"/>
		</contour>
		<contour>
			<point x="346" y="-1" type="curve" smooth="yes"/>
			<point x="332" y="-1"/>
			<point x="329" y="8"/>
			<point x="329" y="14" type="curve"/>
			<point x="329" y="28"/>
			<point x="375" y="36"/>
			<point x="381" y="36" type="curve" smooth="yes"/>
			<point x="387" y="36"/>
			<point x="392" y="33"/>
			<point x="392" y="29" type="curve" smooth="yes"/>
			<point x="392" y="17"/>
			<point x="360" y="-1"/>
		</contour>
		<contour>
			<point x="371" y="254" type="curve" smooth="yes"/>
			<point x="416" y="254"/>
			<point x="414" y="304"/>
			<point x="466" y="304" type="curve" smooth="yes"/>
			<point x="549" y="304" type="line"/>
			<point x="570" y="440" type="line"/>
			<point x="494" y="440"/>
			<point x="466" y="423"/>
			<point x="406" y="379" type="curve" smooth="yes"/>
			<point x="353" y="340"/>
			<point x="292" y="319"/>
			<point x="256" y="319" type="curve" smooth="yes"/>
			<point x="245" y="319"/>
			<point x="234" y="324"/>
			<point x="226" y="324" type="curve" smooth="yes"/>
			<point x="218" y="324"/>
			<point x="214" y="319"/>
			<point x="214" y="313" type="curve" smooth="yes"/>
			<point x="214" y="307"/>
			<point x="219" y="300"/>
			<point x="230" y="300" type="curve" smooth="yes"/>
			<point x="241" y="300"/>
			<point x="256" y="301"/>
			<point x="276" y="288" type="curve" smooth="yes"/>
			<point x="296" y="275"/>
			<point x="326" y="254"/>
		</contour>
		<contour>
			<point x="767" y="198" type="curve" smooth="yes"/>
			<point x="731" y="198"/>
			<point x="702" y="224"/>
			<point x="702" y="258" type="curve" smooth="yes"/>
			<point x="702" y="298"/>
			<point x="733" y="330"/>
			<point x="772" y="330" type="curve" smooth="yes"/>
			<point x="809" y="330"/>
			<point x="838" y="305"/>
			<point x="838" y="274" type="curve" smooth="yes"/>
			<point x="838" y="231"/>
			<point x="807" y="198"/>
		</contour>
		<contour>
			<point x="722" y="265" type="curve" smooth="yes"/>
			<point x="722" y="251"/>
			<point x="732" y="240"/>
			<point x="745" y="240" type="curve" smooth="yes"/>
			<point x="754" y="240"/>
			<point x="759" y="246"/>
			<point x="765" y="246" type="curve" smooth="yes"/>
			<point x="771" y="246"/>
			<point x="779" y="238"/>
			<point x="792" y="238" type="curve" smooth="yes"/>
			<point x="804" y="238"/>
			<point x="815" y="248"/>
			<point x="815" y="262" type="curve" smooth="yes"/>
			<point x="815" y="275"/>
			<point x="805" y="286"/>
			<point x="792" y="286" type="curve" smooth="yes"/>
			<point x="779" y="286"/>
			<point x="775" y="281"/>
			<point x="768" y="281" type="curve" smooth="yes"/>
			<point x="761" y="281"/>
			<point x="757" y="288"/>
			<point x="745" y="288" type="curve" smooth="yes"/>
			<point x="732" y="288"/>
			<point x="722" y="278"/>
		</contour>
		<contour>
			<point x="941" y="72" type="curve" smooth="yes"/>
			<point x="950" y="72"/>
			<point x="974" y="131"/>
			<point x="977" y="149" type="curve" smooth="yes"/>
			<point x="979" y="161"/>
			<point x="980" y="163"/>
			<point x="983" y="163" type="curve" smooth="yes"/>
			<point x="985" y="163"/>
			<point x="988" y="162"/>
			<point x="992" y="162" type="curve"/>
			<point x="993" y="221" type="line"/>
			<point x="883" y="250" type="line"/>
			<point x="883" y="197"/>
			<point x="905" y="186"/>
			<point x="920" y="164" type="curve" smooth="yes"/>
			<point x="930" y="150"/>
			<point x="933" y="129"/>
			<point x="933" y="112" type="curve" smooth="yes"/>
			<point x="933" y="103"/>
			<point x="932" y="95"/>
			<point x="931" y="89" type="curve" smooth="yes"/>
			<point x="928" y="72"/>
			<point x="932" y="72"/>
		</contour>
	</outline>
</glyph>
<glyph name="t" format="2">
	<advance width="1000"/>
	<unicode hex="0074"/>
	<guideline x="787" y="-197" angle="0"/>
	<outline>
		<contour>
			<point x="477" y="-26" type="curve" smooth="yes"/>
			<point x="554" y="-26"/>
			<point x="613" y="-12"/>
			<point x="659" y="5" type="curve" smooth="yes"/>
			<point x="701" y="20"/>
			<point x="732" y="37"/>
			<point x="757" y="49" type="curve" smooth="yes"/>
			<point x="796" y="67"/>
			<point x="845" y="62"/>
			<point x="885" y="77" type="curve" smooth="yes"/>
			<point x="936" y="97"/>
			<point x="952" y="158"/>
			<point x="1000" y="158" type="curve" smooth="yes"/>
			<point x="1010" y="158" type="line"/>
			<point x="1010" y="442" type="line"/>
			<point x="1000" y="442" type="line" smooth="yes"/>
			<point x="895" y="442"/>
			<point x="813" y="472"/>
			<point x="813" y="511" type="curve" smooth="yes"/>
			<point x="813" y="537"/>
			<point x="854" y="541"/>
			<point x="854" y="556" type="curve" smooth="yes"/>
			<point x="854" y="566"/>
			<point x="837" y="574"/>
			<point x="816" y="574" type="curve" smooth="yes"/>
			<point x="784" y="574"/>
			<point x="690" y="550"/>
			<point x="646" y="550" type="curve" smooth="yes"/>
			<point x="602" y="550"/>
			<point x="595" y="580"/>
			<point x="595" y="598" type="curve" smooth="yes"/>
			<point x="595" y="616"/>
			<point x="615" y="627"/>
			<point x="625" y="635" type="curve" smooth="yes"/>
			<point x="629" y="638"/>
			<point x="630" y="641"/>
			<point x="630" y="643" type="curve" smooth="yes"/>
			<point x="630" y="650"/>
			<point x="621" y="655"/>
			<point x="609" y="655" type="curve" smooth="yes"/>
			<point x="500" y="655"/>
			<point x="402" y="529"/>
			<point x="338" y="529" type="curve" smooth="yes"/>
			<point x="322" y="529"/>
			<point x="311" y="538"/>
			<point x="311" y="559" type="curve" smooth="yes"/>
			<point x="311" y="581"/>
			<point x="322" y="598"/>
			<point x="322" y="606" type="curve" smooth="yes"/>
			<point x="322" y="610"/>
			<point x="318" y="614"/>
			<point x="313" y="614" type="curve" smooth="yes"/>
			<point x="292" y="614"/>
			<point x="266" y="584"/>
			<point x="207" y="507" type="curve" smooth="yes"/>
			<point x="185" y="479"/>
			<point x="135" y="435"/>
			<point x="104" y="435" type="curve" smooth="yes"/>
			<point x="69" y="435"/>
			<point x="33" y="442"/>
			<point x="0" y="442" type="curve" smooth="yes"/>
			<point x="-10" y="442" type="line"/>
			<point x="-10" y="158" type="line"/>
			<point x="0" y="158" type="line" smooth="yes"/>
			<point x="119" y="158"/>
			<point x="178" y="125"/>
			<point x="264" y="21" type="curve" smooth="yes"/>
			<point x="290" y="-10"/>
			<point x="323" y="-26"/>
		</contour>
		<contour>
			<point x="466" y="-216" type="curve" smooth="yes"/>
			<point x="520" y="-216"/>
			<point x="537" y="-188"/>
			<point x="572" y="-188" type="curve" smooth="yes"/>
			<point x="607" y="-188"/>
			<point x="630" y="-202"/>
			<point x="662" y="-202" type="curve" smooth="yes"/>
			<point x="694" y="-202"/>
			<point x="704" y="-192"/>
			<point x="725" y="-192" type="curve" smooth="yes"/>
			<point x="746" y="-192"/>
			<point x="756" y="-205"/>
			<point x="768" y="-205" type="curve" smooth="yes"/>
			<point x="773" y="-205"/>
			<point x="777" y="-201"/>
			<point x="777" y="-197" type="curve" smooth="yes"/>
			<point x="777" y="-165"/>
			<point x="725" y="-151"/>
			<point x="706" y="-142" type="curve" smooth="yes"/>
			<point x="687" y="-133"/>
			<point x="694" y="-115"/>
			<point x="690" y="-101" type="curve" smooth="yes"/>
			<point x="686" y="-87"/>
			<point x="674" y="-75"/>
			<point x="637" y="-46" type="curve" smooth="yes"/>
			<point x="627" y="-38"/>
			<point x="623" y="-31"/>
			<point x="623" y="-24" type="curve" smooth="yes"/>
			<point x="623" y="-8"/>
			<point x="649" y="2"/>
			<point x="659" y="5" type="curve"/>
			<point x="421" y="62" type="line"/>
			<point x="446" y="44"/>
			<point x="466" y="-7"/>
			<point x="486" y="-29" type="curve" smooth="yes"/>
			<point x="506" y="-51"/>
			<point x="520" y="-48"/>
			<point x="520" y="-85" type="curve" smooth="yes"/>
			<point x="520" y="-120"/>
			<point x="505" y="-148"/>
			<point x="489" y="-148" type="curve" smooth="yes"/>
			<point x="461" y="-148"/>
			<point x="454" y="-138"/>
			<point x="454" y="-129" type="curve" smooth="yes"/>
			<point x="454" y="-120"/>
			<point x="454" y="-104"/>
			<point x="436" y="-104" type="curve" smooth="yes"/>
			<point x="388" y="-104"/>
			<point x="259" y="-170"/>
			<point x="259" y="-197" type="curve" smooth="yes"/>
			<point x="259" y="-203"/>
			<point x="263" y="-207"/>
			<point x="268" y="-207" type="curve" smooth="yes"/>
			<point x="291" y="-207"/>
			<point x="336" y="-180"/>
			<point x="372" y="-180" type="curve" smooth="yes"/>
			<point x="408" y="-180"/>
			<point x="412" y="-216"/>
		</contour>
	</outline>
</glyph>
<glyph name="u" format="2">
	<advance width="1000"/>
	<unicode hex="0075"/>
	<outline>
		<contour>
			<point x="370" y="-195" type="curve" smooth="yes"/>
			<point x="533" y="-195"/>
			<point x="626" y="-81"/>
			<point x="626" y="91" type="curve"/>
			<point x="454" y="58" type="line"/>
			<point x="454" y="-8"/>
			<point x="415" y="-47"/>
			<point x="377" y="-47" type="curve" smooth="yes"/>
			<point x="339" y="-47"/>
			<point x="328" y="-16"/>
			<point x="328" y="10" type="curve" smooth="yes"/>
			<point x="328" y="80"/>
			<point x="407" y="114"/>
			<point x="621" y="171" type="curve" smooth="yes"/>
			<point x="784" y="214"/>
			<point x="895" y="304"/>
			<point x="895" y="415" type="curve" smooth="yes"/>
			<point x="895" y="544"/>
			<point x="780" y="565"/>
			<point x="780" y="624" type="curve" smooth="yes"/>
			<point x="780" y="644"/>
			<point x="797" y="662"/>
			<point x="823" y="662" type="curve" smooth="yes"/>
			<point x="849" y="662"/>
			<point x="869" y="651"/>
			<point x="880" y="651" type="curve" smooth="yes"/>
			<point x="891" y="651"/>
			<point x="897" y="653"/>
			<point x="897" y="662" type="curve" smooth="yes"/>
			<point x="897" y="682"/>
			<point x="797" y="732"/>
			<point x="673" y="732" type="curve" smooth="yes"/>
			<point x="479" y="732"/>
			<point x="370" y="642"/>
			<point x="370" y="603" type="curve" smooth="yes"/>
			<point x="370" y="593"/>
			<point x="376" y="586"/>
			<point x="386" y="586" type="curve" smooth="yes"/>
			<point x="403" y="586"/>
			<point x="417" y="607"/>
			<point x="447" y="607" type="curve" smooth="yes"/>
			<point x="543" y="607"/>
			<point x="585" y="529"/>
			<point x="616" y="451" type="curve" smooth="yes"/>
			<point x="635" y="403"/>
			<point x="651" y="402"/>
			<point x="657" y="402" type="curve" smooth="yes"/>
			<point x="666" y="402"/>
			<point x="672" y="408"/>
			<point x="672" y="415" type="curve" smooth="yes"/>
			<point x="672" y="420"/>
			<point x="669" y="426"/>
			<point x="664" y="430" type="curve" smooth="yes"/>
			<point x="656" y="437"/>
			<point x="645" y="452"/>
			<point x="645" y="468" type="curve" smooth="yes"/>
			<point x="645" y="499"/>
			<point x="658" y="522"/>
			<point x="700" y="522" type="curve"/>
			<point x="769" y="522"/>
			<point x="804" y="474"/>
			<point x="804" y="414" type="curve" smooth="yes"/>
			<point x="804" y="327"/>
			<point x="675" y="286"/>
			<point x="544" y="257" type="curve" smooth="yes"/>
			<point x="358" y="214"/>
			<point x="174" y="124"/>
			<point x="174" y="-12" type="curve" smooth="yes"/>
			<point x="174" y="-119"/>
			<point x="238" y="-195"/>
		</contour>
		<contour>
			<point x="454" y="58" type="curve"/>
			<point x="626" y="91" type="line"/>
			<point x="626" y="243"/>
			<point x="439" y="449"/>
			<point x="188" y="449" type="curve" smooth="yes"/>
			<point x="117" y="449"/>
			<point x="99" y="441"/>
			<point x="65" y="441" type="curve" smooth="yes"/>
			<point x="31" y="441"/>
			<point x="37" y="442"/>
			<point x="0" y="442" type="curve" smooth="yes"/>
			<point x="-10" y="442" type="line"/>
			<point x="-10" y="158" type="line"/>
			<point x="0" y="158" type="line"/>
			<point x="97" y="158"/>
			<point x="140" y="184"/>
			<point x="241" y="184" type="curve" smooth="yes"/>
			<point x="357" y="184"/>
			<point x="454" y="136"/>
		</contour>
	</outline>
</glyph>
<glyph name="v" format="2">
	<advance width="1000"/>
	<unicode hex="0076"/>
	<guideline x="1029" y="158" angle="0"/>
	<guideline x="-34" y="442" angle="0"/>
	<outline>
		<contour>
			<point x="361" y="-170" type="curve" smooth="yes"/>
			<point x="509" y="-170"/>
			<point x="623" y="-95"/>
			<point x="623" y="58" type="curve" smooth="yes"/>
			<point x="623" y="87"/>
			<point x="614" y="95"/>
			<point x="614" y="124" type="curve" smooth="yes"/>
			<point x="614" y="141"/>
			<point x="634" y="163"/>
			<point x="650" y="163" type="curve" smooth="yes"/>
			<point x="662" y="163"/>
			<point x="672" y="152"/>
			<point x="672" y="120" type="curve" smooth="yes"/>
			<point x="672" y="103"/>
			<point x="662" y="75"/>
			<point x="662" y="30" type="curve" smooth="yes"/>
			<point x="662" y="-41"/>
			<point x="700" y="-95"/>
			<point x="751" y="-95" type="curve" smooth="yes"/>
			<point x="761" y="-95"/>
			<point x="767" y="-87"/>
			<point x="767" y="-79" type="curve" smooth="yes"/>
			<point x="767" y="-72"/>
			<point x="762" y="-66"/>
			<point x="752" y="-66" type="curve" smooth="yes"/>
			<point x="742" y="-66"/>
			<point x="735" y="-59"/>
			<point x="735" y="-49" type="curve" smooth="yes"/>
			<point x="735" y="-42"/>
			<point x="738" y="-32"/>
			<point x="743" y="-24" type="curve" smooth="yes"/>
			<point x="755" y="-5"/>
			<point x="773" y="16"/>
			<point x="773" y="46" type="curve" smooth="yes"/>
			<point x="773" y="112"/>
			<point x="706" y="109"/>
			<point x="706" y="166" type="curve" smooth="yes"/>
			<point x="706" y="192"/>
			<point x="724" y="207"/>
			<point x="749" y="207" type="curve" smooth="yes"/>
			<point x="772" y="207"/>
			<point x="844" y="185"/>
			<point x="844" y="120" type="curve" smooth="yes"/>
			<point x="844" y="93"/>
			<point x="838" y="72"/>
			<point x="838" y="48" type="curve" smooth="yes"/>
			<point x="838" y="-48"/>
			<point x="912" y="-127"/>
			<point x="975" y="-127" type="curve" smooth="yes"/>
			<point x="985" y="-127"/>
			<point x="990" y="-120"/>
			<point x="990" y="-114" type="curve" smooth="yes"/>
			<point x="990" y="-110"/>
			<point x="989" y="-107"/>
			<point x="985" y="-105" type="curve" smooth="yes"/>
			<point x="975" y="-100"/>
			<point x="959" y="-91"/>
			<point x="959" y="-66" type="curve" smooth="yes"/>
			<point x="959" y="-41"/>
			<point x="982" y="-41"/>
			<point x="982" y="22" type="curve" smooth="yes"/>
			<point x="982" y="78"/>
			<point x="941" y="114"/>
			<point x="902" y="138" type="curve" smooth="yes"/>
			<point x="878" y="153"/>
			<point x="854" y="177"/>
			<point x="854" y="193" type="curve" smooth="yes"/>
			<point x="854" y="202"/>
			<point x="863" y="209"/>
			<point x="885" y="209" type="curve" smooth="yes"/>
			<point x="919" y="209"/>
			<point x="952" y="158"/>
			<point x="1000" y="158" type="curve" smooth="yes"/>
			<point x="1010" y="158" type="line"/>
			<point x="1010" y="442" type="line"/>
			<point x="1000" y="442" type="line" smooth="yes"/>
			<point x="927" y="442"/>
			<point x="917" y="376"/>
			<point x="880" y="376" type="curve" smooth="yes"/>
			<point x="865" y="376"/>
			<point x="855" y="388"/>
			<point x="855" y="406" type="curve" smooth="yes"/>
			<point x="855" y="442"/>
			<point x="938" y="486"/>
			<point x="938" y="575" type="curve" smooth="yes"/>
			<point x="938" y="620"/>
			<point x="925" y="650"/>
			<point x="925" y="678" type="curve" smooth="yes"/>
			<point x="925" y="707"/>
			<point x="939" y="729"/>
			<point x="957" y="729" type="curve" smooth="yes"/>
			<point x="967" y="729"/>
			<point x="971" y="735"/>
			<point x="971" y="741" type="curve" smooth="yes"/>
			<point x="971" y="748"/>
			<point x="966" y="755"/>
			<point x="958" y="755" type="curve" smooth="yes"/>
			<point x="867" y="755"/>
			<point x="796" y="682"/>
			<point x="796" y="590" type="curve" smooth="yes"/>
			<point x="796" y="533"/>
			<point x="821" y="495"/>
			<point x="821" y="437" type="curve" smooth="yes"/>
			<point x="821" y="379"/>
			<point x="792" y="344"/>
			<point x="771" y="344" type="curve" smooth="yes"/>
			<point x="750" y="344"/>
			<point x="736" y="358"/>
			<point x="736" y="378" type="curve" smooth="yes"/>
			<point x="736" y="398"/>
			<point x="771" y="420"/>
			<point x="771" y="459" type="curve" smooth="yes"/>
			<point x="771" y="497"/>
			<point x="748" y="511"/>
			<point x="728" y="523" type="curve" smooth="yes"/>
			<point x="712" y="533"/>
			<point x="698" y="542"/>
			<point x="698" y="559" type="curve" smooth="yes"/>
			<point x="698" y="575"/>
			<point x="707" y="584"/>
			<point x="707" y="593" type="curve" smooth="yes"/>
			<point x="707" y="601"/>
			<point x="703" y="605"/>
			<point x="697" y="605" type="curve" smooth="yes"/>
			<point x="671" y="605"/>
			<point x="657" y="551"/>
			<point x="657" y="511" type="curve" smooth="yes"/>
			<point x="657" y="455"/>
			<point x="695" y="418"/>
			<point x="695" y="389" type="curve" smooth="yes"/>
			<point x="695" y="360"/>
			<point x="683" y="347"/>
			<point x="657" y="347" type="curve" smooth="yes"/>
			<point x="618" y="347"/>
			<point x="608" y="372"/>
			<point x="608" y="401" type="curve" smooth="yes"/>
			<point x="608" y="430"/>
			<point x="622" y="461"/>
			<point x="622" y="510" type="curve" smooth="yes"/>
			<point x="622" y="619"/>
			<point x="539" y="705"/>
			<point x="433" y="705" type="curve" smooth="yes"/>
			<point x="354" y="705"/>
			<point x="295" y="662"/>
			<point x="240" y="662" type="curve" smooth="yes"/>
			<point x="195" y="662"/>
			<point x="203" y="702"/>
			<point x="183" y="702" type="curve" smooth="yes"/>
			<point x="175" y="702"/>
			<point x="169" y="695"/>
			<point x="169" y="681" type="curve" smooth="yes"/>
			<point x="169" y="637"/>
			<point x="229" y="615"/>
			<point x="285" y="615" type="curve" smooth="yes"/>
			<point x="381" y="615"/>
			<point x="466" y="540"/>
			<point x="466" y="451" type="curve" smooth="yes"/>
			<point x="466" y="379"/>
			<point x="465" y="331"/>
			<point x="523" y="314" type="curve" smooth="yes"/>
			<point x="552" y="305"/>
			<point x="559" y="293"/>
			<point x="559" y="281" type="curve" smooth="yes"/>
			<point x="559" y="272"/>
			<point x="553" y="266"/>
			<point x="541" y="266" type="curve" smooth="yes"/>
			<point x="519" y="266"/>
			<point x="487" y="289"/>
			<point x="427" y="377" type="curve" smooth="yes"/>
			<point x="364" y="469"/>
			<point x="303" y="516"/>
			<point x="224" y="516" type="curve" smooth="yes"/>
			<point x="126" y="516"/>
			<point x="37" y="471"/>
			<point x="37" y="431" type="curve" smooth="yes"/>
			<point x="37" y="421"/>
			<point x="43" y="414"/>
			<point x="52" y="414" type="curve" smooth="yes"/>
			<point x="70" y="414"/>
			<point x="78" y="442"/>
			<point x="119" y="442" type="curve" smooth="yes"/>
			<point x="168" y="442"/>
			<point x="225" y="390"/>
			<point x="257" y="334" type="curve" smooth="yes"/>
			<point x="303" y="252"/>
			<point x="340" y="195"/>
			<point x="418" y="195" type="curve" smooth="yes"/>
			<point x="458" y="195"/>
			<point x="493" y="232"/>
			<point x="510" y="232" type="curve" smooth="yes"/>
			<point x="522" y="232"/>
			<point x="529" y="226"/>
			<point x="529" y="216" type="curve" smooth="yes"/>
			<point x="529" y="209"/>
			<point x="525" y="200"/>
			<point x="517" y="190" type="curve" smooth="yes"/>
			<point x="503" y="172"/>
			<point x="476" y="153"/>
			<point x="429" y="153" type="curve" smooth="yes"/>
			<point x="363" y="153"/>
			<point x="307" y="201"/>
			<point x="235" y="201" type="curve" smooth="yes"/>
			<point x="163" y="201"/>
			<point x="86" y="163"/>
			<point x="86" y="112" type="curve" smooth="yes"/>
			<point x="86" y="99"/>
			<point x="92" y="92"/>
			<point x="99" y="92" type="curve" smooth="yes"/>
			<point x="126" y="92"/>
			<point x="126" y="133"/>
			<point x="157" y="133" type="curve" smooth="yes"/>
			<point x="220" y="133"/>
			<point x="272" y="7"/>
			<point x="369" y="7" type="curve" smooth="yes"/>
			<point x="478" y="7"/>
			<point x="523" y="167"/>
			<point x="569" y="167" type="curve" smooth="yes"/>
			<point x="580" y="167"/>
			<point x="585" y="160"/>
			<point x="585" y="151" type="curve" smooth="yes"/>
			<point x="585" y="90"/>
			<point x="499" y="68"/>
			<point x="465" y="6" type="curve" smooth="yes"/>
			<point x="455" y="-13"/>
			<point x="450" y="-39"/>
			<point x="443" y="-62" type="curve" smooth="yes"/>
			<point x="432" y="-106"/>
			<point x="394" y="-143"/>
			<point x="361" y="-143" type="curve" smooth="yes"/>
			<point x="349" y="-143"/>
			<point x="343" y="-150"/>
			<point x="343" y="-157" type="curve" smooth="yes"/>
			<point x="343" y="-163"/>
			<point x="349" y="-170"/>
		</contour>
	</outline>
</glyph>
<glyph name="w" format="2">
	<advance width="1000"/>
	<unicode hex="0077"/>
	<outline>
		<contour>
			<point x="551" y="-191" type="curve" smooth="yes"/>
			<point x="614" y="-191"/>
			<point x="725" y="-184"/>
			<point x="793" y="-83" type="curve" smooth="yes"/>
			<point x="852" y="0"/>
			<point x="831" y="44"/>
			<point x="872" y="88" type="curve" smooth="yes"/>
			<point x="912" y="130"/>
			<point x="944" y="158"/>
			<point x="990" y="158" type="curve" smooth="yes"/>
			<point x="1010" y="158" type="line"/>
			<point x="1010" y="442" type="line"/>
			<point x="990" y="442" type="line" smooth="yes"/>
			<point x="936" y="442"/>
			<point x="905" y="421"/>
			<point x="862" y="421" type="curve" smooth="yes"/>
			<point x="844" y="421"/>
			<point x="832" y="428"/>
			<point x="832" y="452" type="curve" smooth="yes"/>
			<point x="832" y="476"/>
			<point x="854" y="492"/>
			<point x="854" y="553" type="curve" smooth="yes"/>
			<point x="854" y="614"/>
			<point x="794" y="786"/>
			<point x="564" y="786" type="curve" smooth="yes"/>
			<point x="527" y="786"/>
			<point x="511" y="775"/>
			<point x="511" y="765" type="curve" smooth="yes"/>
			<point x="511" y="758"/>
			<point x="521" y="751"/>
			<point x="538" y="751" type="curve" smooth="yes"/>
			<point x="554" y="751"/>
			<point x="584" y="731"/>
			<point x="613" y="655" type="curve" smooth="yes"/>
			<point x="642" y="579"/>
			<point x="679" y="517"/>
			<point x="772" y="478" type="curve" smooth="yes"/>
			<point x="792" y="470"/>
			<point x="800" y="459"/>
			<point x="800" y="447" type="curve" smooth="yes"/>
			<point x="800" y="436"/>
			<point x="792" y="428"/>
			<point x="781" y="428" type="curve" smooth="yes"/>
			<point x="725" y="428"/>
			<point x="596" y="580"/>
			<point x="401" y="580" type="curve" smooth="yes"/>
			<point x="360" y="580"/>
			<point x="338" y="576"/>
			<point x="307" y="576" type="curve" smooth="yes"/>
			<point x="266" y="576"/>
			<point x="233" y="611"/>
			<point x="207" y="649" type="curve" smooth="yes"/>
			<point x="181" y="687"/>
			<point x="143" y="743"/>
			<point x="67" y="743" type="curve" smooth="yes"/>
			<point x="24" y="743"/>
			<point x="6" y="730"/>
			<point x="6" y="718" type="curve" smooth="yes"/>
			<point x="6" y="711"/>
			<point x="15" y="704"/>
			<point x="30" y="704" type="curve" smooth="yes"/>
			<point x="41" y="704"/>
			<point x="57" y="693"/>
			<point x="65" y="665" type="curve" smooth="yes"/>
			<point x="73" y="637"/>
			<point x="80" y="561"/>
			<point x="164" y="561" type="curve" smooth="yes"/>
			<point x="206" y="561"/>
			<point x="214" y="566"/>
			<point x="239" y="566" type="curve" smooth="yes"/>
			<point x="264" y="566"/>
			<point x="301" y="554"/>
			<point x="301" y="532" type="curve" smooth="yes"/>
			<point x="301" y="522"/>
			<point x="294" y="517"/>
			<point x="285" y="517" type="curve" smooth="yes"/>
			<point x="276" y="517"/>
			<point x="267" y="525"/>
			<point x="255" y="525" type="curve" smooth="yes"/>
			<point x="187" y="525"/>
			<point x="162" y="435"/>
			<point x="61" y="435" type="curve" smooth="yes"/>
			<point x="41" y="435"/>
			<point x="23" y="442"/>
			<point x="10" y="442" type="curve" smooth="yes"/>
			<point x="-10" y="442" type="line"/>
			<point x="-10" y="158" type="line"/>
			<point x="10" y="158" type="line" smooth="yes"/>
			<point x="40" y="158"/>
			<point x="44" y="146"/>
			<point x="79" y="146" type="curve" smooth="yes"/>
			<point x="114" y="146"/>
			<point x="134" y="184"/>
			<point x="156" y="184" type="curve" smooth="yes"/>
			<point x="164" y="184"/>
			<point x="168" y="175"/>
			<point x="168" y="166" type="curve" smooth="yes"/>
			<point x="168" y="105"/>
			<point x="64" y="73"/>
			<point x="64" y="-8" type="curve" smooth="yes"/>
			<point x="64" y="-49"/>
			<point x="91" y="-78"/>
			<point x="106" y="-104" type="curve" smooth="yes"/>
			<point x="117" y="-124"/>
			<point x="118" y="-143"/>
			<point x="130" y="-143" type="curve" smooth="yes"/>
			<point x="142" y="-143"/>
			<point x="141" y="-126"/>
			<point x="145" y="-108" type="curve" smooth="yes"/>
			<point x="155" y="-64"/>
			<point x="199" y="-48"/>
			<point x="199" y="-3" type="curve" smooth="yes"/>
			<point x="199" y="26"/>
			<point x="190" y="80"/>
			<point x="190" y="102" type="curve" smooth="yes"/>
			<point x="190" y="197"/>
			<point x="324" y="274"/>
			<point x="423" y="274" type="curve" smooth="yes"/>
			<point x="435" y="274"/>
			<point x="442" y="269"/>
			<point x="442" y="262" type="curve" smooth="yes"/>
			<point x="442" y="253"/>
			<point x="433" y="241"/>
			<point x="413" y="231" type="curve" smooth="yes"/>
			<point x="288" y="166"/>
			<point x="265" y="109"/>
			<point x="265" y="25" type="curve" smooth="yes"/>
			<point x="265" y="-5"/>
			<point x="270" y="-39"/>
			<point x="270" y="-78" type="curve" smooth="yes"/>
			<point x="270" y="-114"/>
			<point x="242" y="-131"/>
			<point x="242" y="-158" type="curve" smooth="yes"/>
			<point x="242" y="-167"/>
			<point x="246" y="-172"/>
			<point x="252" y="-172" type="curve" smooth="yes"/>
			<point x="271" y="-172"/>
			<point x="276" y="-143"/>
			<point x="303" y="-134" type="curve" smooth="yes"/>
			<point x="376" y="-110"/>
			<point x="495" y="-61"/>
			<point x="495" y="43" type="curve" smooth="yes"/>
			<point x="495" y="107"/>
			<point x="450" y="147"/>
			<point x="450" y="189" type="curve" smooth="yes"/>
			<point x="450" y="233"/>
			<point x="493" y="267"/>
			<point x="548" y="267" type="curve" smooth="yes"/>
			<point x="630" y="267"/>
			<point x="736" y="164"/>
			<point x="804" y="164" type="curve" smooth="yes"/>
			<point x="821" y="164"/>
			<point x="849" y="174"/>
			<point x="862" y="174" type="curve" smooth="yes"/>
			<point x="874" y="174"/>
			<point x="883" y="166"/>
			<point x="883" y="156" type="curve" smooth="yes"/>
			<point x="883" y="127"/>
			<point x="833" y="92"/>
			<point x="792" y="92" type="curve" smooth="yes"/>
			<point x="673" y="92"/>
			<point x="599" y="53"/>
			<point x="556" y="-54" type="curve" smooth="yes"/>
			<point x="537" y="-103"/>
			<point x="535" y="-148"/>
			<point x="514" y="-148" type="curve" smooth="yes"/>
			<point x="496" y="-148"/>
			<point x="486" y="-156"/>
			<point x="486" y="-166" type="curve" smooth="yes"/>
			<point x="486" y="-179"/>
			<point x="505" y="-191"/>
		</contour>
	</outline>
</glyph>
<glyph name="x" format="2">
	<advance width="1000"/>
	<unicode hex="0078"/>
	<guideline x="820" y="919" angle="90"/>
	<outline>
		<contour>
			<point x="590" y="-192" type="curve" smooth="yes"/>
			<point x="595" y="-192"/>
			<point x="598" y="-188"/>
			<point x="598" y="-184" type="curve" smooth="yes"/>
			<point x="598" y="-180"/>
			<point x="595" y="-176"/>
			<point x="589" y="-176" type="curve" smooth="yes"/>
			<point x="577" y="-176"/>
			<point x="542" y="-158"/>
			<point x="542" y="-123" type="curve" smooth="yes"/>
			<point x="542" y="-108"/>
			<point x="548" y="-99"/>
			<point x="564" y="-99" type="curve" smooth="yes"/>
			<point x="580" y="-99"/>
			<point x="594" y="-105"/>
			<point x="609" y="-105" type="curve" smooth="yes"/>
			<point x="624" y="-105"/>
			<point x="642" y="-96"/>
			<point x="662" y="-96" type="curve" smooth="yes"/>
			<point x="682" y="-96"/>
			<point x="702" y="-128"/>
			<point x="736" y="-128" type="curve" smooth="yes"/>
			<point x="745" y="-128"/>
			<point x="750" y="-123"/>
			<point x="750" y="-118" type="curve" smooth="yes"/>
			<point x="750" y="-113"/>
			<point x="745" y="-108"/>
			<point x="736" y="-108" type="curve" smooth="yes"/>
			<point x="713" y="-108"/>
			<point x="679" y="-52"/>
			<point x="631" y="-52" type="curve" smooth="yes"/>
			<point x="583" y="-52"/>
			<point x="572" y="-50"/>
			<point x="552" y="-50" type="curve"/>
			<point x="481" y="-50"/>
			<point x="469" y="13"/>
			<point x="450" y="29" type="curve" smooth="yes"/>
			<point x="431" y="45"/>
			<point x="385" y="66"/>
			<point x="328" y="66" type="curve" smooth="yes"/>
			<point x="271" y="66"/>
			<point x="251" y="143"/>
			<point x="251" y="157" type="curve" smooth="yes"/>
			<point x="251" y="171"/>
			<point x="257" y="191"/>
			<point x="281" y="191" type="curve" smooth="yes"/>
			<point x="312" y="191"/>
			<point x="399" y="134"/>
			<point x="425" y="134" type="curve" smooth="yes"/>
			<point x="451" y="134"/>
			<point x="468" y="140"/>
			<point x="488" y="140" type="curve" smooth="yes"/>
			<point x="508" y="140"/>
			<point x="527" y="122"/>
			<point x="555" y="108" type="curve" smooth="yes"/>
			<point x="583" y="94"/>
			<point x="601" y="104"/>
			<point x="633" y="93" type="curve" smooth="yes"/>
			<point x="665" y="82"/>
			<point x="689" y="19"/>
			<point x="738" y="19" type="curve" smooth="yes"/>
			<point x="762" y="19"/>
			<point x="795" y="41"/>
			<point x="814" y="41" type="curve" smooth="yes"/>
			<point x="826" y="41"/>
			<point x="836" y="36"/>
			<point x="844" y="36" type="curve" smooth="yes"/>
			<point x="852" y="36"/>
			<point x="861" y="43"/>
			<point x="861" y="53" type="curve" smooth="yes"/>
			<point x="861" y="63"/>
			<point x="838" y="74"/>
			<point x="815" y="74" type="curve" smooth="yes"/>
			<point x="792" y="74"/>
			<point x="774" y="62"/>
			<point x="757" y="62" type="curve" smooth="yes"/>
			<point x="740" y="62"/>
			<point x="723" y="57"/>
			<point x="691" y="114" type="curve" smooth="yes"/>
			<point x="659" y="171"/>
			<point x="613" y="163"/>
			<point x="587" y="163" type="curve" smooth="yes"/>
			<point x="561" y="163"/>
			<point x="545" y="190"/>
			<point x="545" y="202" type="curve" smooth="yes"/>
			<point x="545" y="214"/>
			<point x="552" y="223"/>
			<point x="566" y="223" type="curve" smooth="yes"/>
			<point x="612" y="223"/>
			<point x="631" y="174"/>
			<point x="711" y="174" type="curve" smooth="yes"/>
			<point x="791" y="174"/>
			<point x="837" y="233"/>
			<point x="872" y="233" type="curve" smooth="yes"/>
			<point x="907" y="233"/>
			<point x="919" y="223"/>
			<point x="940" y="223" type="curve" smooth="yes"/>
			<point x="949" y="223"/>
			<point x="953" y="226"/>
			<point x="953" y="230" type="curve" smooth="yes"/>
			<point x="953" y="236"/>
			<point x="945" y="245"/>
			<point x="935" y="252" type="curve" smooth="yes"/>
			<point x="917" y="264"/>
			<point x="839" y="281"/>
			<point x="806" y="290" type="curve" smooth="yes"/>
			<point x="773" y="299"/>
			<point x="731" y="358"/>
			<point x="676" y="358" type="curve" smooth="yes"/>
			<point x="612" y="358"/>
			<point x="513" y="304"/>
			<point x="499" y="304" type="curve" smooth="yes"/>
			<point x="485" y="304"/>
			<point x="456" y="317"/>
			<point x="456" y="342" type="curve" smooth="yes"/>
			<point x="456" y="372"/>
			<point x="484" y="378"/>
			<point x="515" y="378" type="curve" smooth="yes"/>
			<point x="536" y="378"/>
			<point x="560" y="375"/>
			<point x="577" y="375" type="curve" smooth="yes"/>
			<point x="620" y="375"/>
			<point x="634" y="424"/>
			<point x="667" y="424" type="curve" smooth="yes"/>
			<point x="700" y="424"/>
			<point x="689" y="416"/>
			<point x="736" y="416" type="curve" smooth="yes"/>
			<point x="763" y="416"/>
			<point x="762" y="430"/>
			<point x="789" y="430" type="curve" smooth="yes"/>
			<point x="816" y="430"/>
			<point x="840" y="412"/>
			<point x="845" y="412" type="curve" smooth="yes"/>
			<point x="850" y="412"/>
			<point x="852" y="413"/>
			<point x="852" y="424" type="curve" smooth="yes"/>
			<point x="852" y="435"/>
			<point x="819" y="472"/>
			<point x="773" y="472" type="curve" smooth="yes"/>
			<point x="741" y="472"/>
			<point x="727" y="454"/>
			<point x="688" y="454" type="curve" smooth="yes"/>
			<point x="681" y="454"/>
			<point x="677" y="459"/>
			<point x="677" y="463" type="curve" smooth="yes"/>
			<point x="677" y="469"/>
			<point x="682" y="474"/>
			<point x="691" y="474" type="curve" smooth="yes"/>
			<point x="703" y="474"/>
			<point x="708" y="479"/>
			<point x="721" y="499" type="curve" smooth="yes"/>
			<point x="736" y="523"/>
			<point x="758" y="541"/>
			<point x="780" y="541" type="curve" smooth="yes"/>
			<point x="791" y="541"/>
			<point x="795" y="546"/>
			<point x="795" y="550" type="curve" smooth="yes"/>
			<point x="795" y="556"/>
			<point x="790" y="561"/>
			<point x="780" y="561" type="curve" smooth="yes"/>
			<point x="753" y="561"/>
			<point x="698" y="540"/>
			<point x="676" y="514" type="curve" smooth="yes"/>
			<point x="654" y="488"/>
			<point x="634" y="464"/>
			<point x="612" y="464" type="curve" smooth="yes"/>
			<point x="590" y="464"/>
			<point x="563" y="428"/>
			<point x="540" y="428" type="curve" smooth="yes"/>
			<point x="517" y="428"/>
			<point x="511" y="435"/>
			<point x="465" y="435" type="curve" smooth="yes"/>
			<point x="402" y="435"/>
			<point x="403" y="346"/>
			<point x="339" y="346" type="curve" smooth="yes"/>
			<point x="305" y="346"/>
			<point x="274" y="374"/>
			<point x="274" y="405" type="curve" smooth="yes"/>
			<point x="274" y="436"/>
			<point x="317" y="457"/>
			<point x="400" y="457" type="curve" smooth="yes"/>
			<point x="483" y="457"/>
			<point x="474" y="591"/>
			<point x="534" y="591" type="curve" smooth="yes"/>
			<point x="564" y="591"/>
			<point x="562" y="569"/>
			<point x="611" y="569" type="curve" smooth="yes"/>
			<point x="682" y="569"/>
			<point x="686" y="625"/>
			<point x="709" y="625" type="curve" smooth="yes"/>
			<point x="732" y="625"/>
			<point x="729" y="612"/>
			<point x="754" y="612" type="curve" smooth="yes"/>
			<point x="779" y="612"/>
			<point x="805" y="627"/>
			<point x="823" y="627" type="curve" smooth="yes"/>
			<point x="832" y="627"/>
			<point x="838" y="632"/>
			<point x="838" y="637" type="curve" smooth="yes"/>
			<point x="838" y="642"/>
			<point x="834" y="646"/>
			<point x="825" y="646" type="curve" smooth="yes"/>
			<point x="807" y="646"/>
			<point x="795" y="639"/>
			<point x="774" y="639" type="curve" smooth="yes"/>
			<point x="753" y="639"/>
			<point x="741" y="652"/>
			<point x="741" y="664" type="curve" smooth="yes"/>
			<point x="741" y="676"/>
			<point x="760" y="674"/>
			<point x="783" y="690" type="curve" smooth="yes"/>
			<point x="806" y="706"/>
			<point x="810" y="723"/>
			<point x="838" y="723" type="curve" smooth="yes"/>
			<point x="851" y="723"/>
			<point x="856" y="727"/>
			<point x="856" y="731" type="curve" smooth="yes"/>
			<point x="856" y="736"/>
			<point x="848" y="741"/>
			<point x="839" y="741" type="curve" smooth="yes"/>
			<point x="771" y="741"/>
			<point x="709" y="686"/>
			<point x="685" y="662" type="curve" smooth="yes"/>
			<point x="661" y="638"/>
			<point x="635" y="623"/>
			<point x="602" y="623" type="curve" smooth="yes"/>
			<point x="569" y="623"/>
			<point x="562" y="631"/>
			<point x="562" y="643" type="curve" smooth="yes"/>
			<point x="562" y="655"/>
			<point x="577" y="655"/>
			<point x="604" y="655" type="curve" smooth="yes"/>
			<point x="631" y="655"/>
			<point x="653" y="689"/>
			<point x="663" y="713" type="curve" smooth="yes"/>
			<point x="673" y="737"/>
			<point x="692" y="753"/>
			<point x="714" y="753" type="curve" smooth="yes"/>
			<point x="725" y="753"/>
			<point x="730" y="757"/>
			<point x="730" y="761" type="curve" smooth="yes"/>
			<point x="730" y="766"/>
			<point x="724" y="771"/>
			<point x="715" y="771" type="curve" smooth="yes"/>
			<point x="666" y="771"/>
			<point x="641" y="743"/>
			<point x="617" y="716" type="curve" smooth="yes"/>
			<point x="593" y="689"/>
			<point x="562" y="684"/>
			<point x="517" y="684" type="curve" smooth="yes"/>
			<point x="435" y="684"/>
			<point x="403" y="578"/>
			<point x="393" y="554" type="curve" smooth="yes"/>
			<point x="383" y="530"/>
			<point x="358" y="508"/>
			<point x="338" y="508" type="curve" smooth="yes"/>
			<point x="318" y="508"/>
			<point x="304" y="521"/>
			<point x="304" y="545" type="curve" smooth="yes"/>
			<point x="304" y="569"/>
			<point x="321" y="578"/>
			<point x="335" y="592" type="curve" smooth="yes"/>
			<point x="349" y="606"/>
			<point x="362" y="637"/>
			<point x="373" y="663" type="curve" smooth="yes"/>
			<point x="384" y="689"/>
			<point x="426" y="731"/>
			<point x="462" y="731" type="curve" smooth="yes"/>
			<point x="478" y="731"/>
			<point x="487" y="737"/>
			<point x="487" y="743" type="curve" smooth="yes"/>
			<point x="487" y="748"/>
			<point x="479" y="753"/>
			<point x="460" y="753" type="curve" smooth="yes"/>
			<point x="413" y="753"/>
			<point x="357" y="728"/>
			<point x="333" y="698" type="curve" smooth="yes"/>
			<point x="309" y="668"/>
			<point x="290" y="620"/>
			<point x="282" y="609" type="curve" smooth="yes"/>
			<point x="274" y="598"/>
			<point x="251" y="585"/>
			<point x="239" y="572" type="curve" smooth="yes"/>
			<point x="227" y="559"/>
			<point x="224" y="544"/>
			<point x="213" y="524" type="curve"/>
			<point x="207" y="511"/>
			<point x="201" y="501"/>
			<point x="191" y="494" type="curve" smooth="yes"/>
			<point x="171" y="480"/>
			<point x="159" y="466"/>
			<point x="149" y="451" type="curve" smooth="yes"/>
			<point x="141" y="440"/>
			<point x="129" y="434"/>
			<point x="109" y="434" type="curve" smooth="yes"/>
			<point x="82" y="434"/>
			<point x="52" y="442"/>
			<point x="10" y="442" type="curve" smooth="yes"/>
			<point x="-10" y="442" type="line"/>
			<point x="-10" y="158" type="line"/>
			<point x="10" y="158" type="line" smooth="yes"/>
			<point x="24" y="158"/>
			<point x="34" y="161"/>
			<point x="48" y="161" type="curve" smooth="yes"/>
			<point x="72" y="161"/>
			<point x="80" y="140"/>
			<point x="104" y="140" type="curve" smooth="yes"/>
			<point x="135" y="140"/>
			<point x="142" y="152"/>
			<point x="163" y="152" type="curve" smooth="yes"/>
			<point x="184" y="152"/>
			<point x="189" y="126"/>
			<point x="189" y="104" type="curve" smooth="yes"/>
			<point x="189" y="82"/>
			<point x="204" y="36"/>
			<point x="242" y="18" type="curve" smooth="yes"/>
			<point x="280" y="0"/>
			<point x="303" y="-7"/>
			<point x="311" y="-27" type="curve" smooth="yes"/>
			<point x="319" y="-47"/>
			<point x="340" y="-76"/>
			<point x="365" y="-93" type="curve" smooth="yes"/>
			<point x="382" y="-104"/>
			<point x="385" y="-110"/>
			<point x="385" y="-114" type="curve" smooth="yes"/>
			<point x="385" y="-116"/>
			<point x="384" y="-118"/>
			<point x="384" y="-120" type="curve" smooth="yes"/>
			<point x="384" y="-124"/>
			<point x="390" y="-130"/>
			<point x="394" y="-130" type="curve" smooth="yes"/>
			<point x="398" y="-130"/>
			<point x="401" y="-127"/>
			<point x="401" y="-117" type="curve" smooth="yes"/>
			<point x="401" y="-94"/>
			<point x="394" y="-80"/>
			<point x="384" y="-71" type="curve" smooth="yes"/>
			<point x="374" y="-62"/>
			<point x="354" y="-43"/>
			<point x="354" y="-33" type="curve" smooth="yes"/>
			<point x="354" y="-24"/>
			<point x="357" y="-18"/>
			<point x="371" y="-18" type="curve" smooth="yes"/>
			<point x="385" y="-18"/>
			<point x="402" y="-19"/>
			<point x="421" y="-32" type="curve" smooth="yes"/>
			<point x="440" y="-45"/>
			<point x="444" y="-71"/>
			<point x="469" y="-82" type="curve" smooth="yes"/>
			<point x="479" y="-86"/>
			<point x="487" y="-88"/>
			<point x="494" y="-88" type="curve" smooth="yes"/>
			<point x="503" y="-88"/>
			<point x="508" y="-85"/>
			<point x="512" y="-85" type="curve" smooth="yes"/>
			<point x="518" y="-85"/>
			<point x="520" y="-91"/>
			<point x="520" y="-100" type="curve" smooth="yes"/>
			<point x="520" y="-109"/>
			<point x="509" y="-111"/>
			<point x="509" y="-128" type="curve" smooth="yes"/>
			<point x="509" y="-145"/>
			<point x="544" y="-192"/>
		</contour>
	</outline>
</glyph>
<glyph name="y" format="2">
	<advance width="1000"/>
	<unicode hex="0079"/>
	<outline>
		<contour>
			<point x="948" y="-133" type="curve" smooth="yes"/>
			<point x="956" y="-133"/>
			<point x="969" y="-127"/>
			<point x="969" y="-113" type="curve" smooth="yes"/>
			<point x="969" y="-99"/>
			<point x="953" y="-90"/>
			<point x="942" y="-87" type="curve" smooth="yes"/>
			<point x="931" y="-84"/>
			<point x="879" y="-29"/>
			<point x="879" y="46" type="curve" smooth="yes"/>
			<point x="879" y="96"/>
			<point x="904" y="124"/>
			<point x="904" y="155" type="curve" smooth="yes"/>
			<point x="904" y="171"/>
			<point x="892" y="177"/>
			<point x="892" y="184" type="curve" smooth="yes"/>
			<point x="892" y="188"/>
			<point x="895" y="191"/>
			<point x="899" y="191" type="curve" smooth="yes"/>
			<point x="901" y="191"/>
			<point x="906" y="187"/>
			<point x="913" y="182" type="curve" smooth="yes"/>
			<point x="937" y="166"/>
			<point x="957" y="158"/>
			<point x="990" y="158" type="curve" smooth="yes"/>
			<point x="1010" y="158" type="line"/>
			<point x="1010" y="442" type="line"/>
			<point x="990" y="442" type="line" smooth="yes"/>
			<point x="900" y="442"/>
			<point x="830" y="488"/>
			<point x="830" y="547" type="curve" smooth="yes"/>
			<point x="830" y="594"/>
			<point x="853" y="610"/>
			<point x="873" y="615" type="curve" smooth="yes"/>
			<point x="893" y="620"/>
			<point x="901" y="634"/>
			<point x="901" y="643" type="curve" smooth="yes"/>
			<point x="901" y="652"/>
			<point x="897" y="661"/>
			<point x="878" y="661" type="curve" smooth="yes"/>
			<point x="752" y="661"/>
			<point x="689" y="546"/>
			<point x="654" y="507" type="curve" smooth="yes"/>
			<point x="619" y="468"/>
			<point x="568" y="443"/>
			<point x="522" y="443" type="curve" smooth="yes"/>
			<point x="476" y="443"/>
			<point x="433" y="449"/>
			<point x="343" y="449" type="curve" smooth="yes"/>
			<point x="209" y="449"/>
			<point x="22" y="240"/>
			<point x="22" y="128" type="curve" smooth="yes"/>
			<point x="22" y="55"/>
			<point x="74" y="-2"/>
			<point x="141" y="-2" type="curve" smooth="yes"/>
			<point x="209" y="-2"/>
			<point x="260" y="55"/>
			<point x="323" y="55" type="curve" smooth="yes"/>
			<point x="381" y="55"/>
			<point x="401" y="44"/>
			<point x="438" y="44" type="curve" smooth="yes"/>
			<point x="475" y="44"/>
			<point x="511" y="80"/>
			<point x="536" y="99" type="curve" smooth="yes"/>
			<point x="561" y="118"/>
			<point x="613" y="139"/>
			<point x="658" y="139" type="curve" smooth="yes"/>
			<point x="679" y="139"/>
			<point x="683" y="129"/>
			<point x="683" y="121" type="curve" smooth="yes"/>
			<point x="683" y="113"/>
			<point x="673" y="108"/>
			<point x="673" y="97" type="curve" smooth="yes"/>
			<point x="673" y="86"/>
			<point x="689" y="-20"/>
			<point x="742" y="-57" type="curve" smooth="yes"/>
			<point x="795" y="-94"/>
			<point x="934" y="-133"/>
		</contour>
		<contour>
			<point x="92" y="54" type="curve" smooth="yes"/>
			<point x="86" y="54"/>
			<point x="82" y="59"/>
			<point x="82" y="66" type="curve" smooth="yes"/>
			<point x="82" y="81"/>
			<point x="98" y="97"/>
			<point x="108" y="97" type="curve" smooth="yes"/>
			<point x="112" y="97"/>
			<point x="116" y="93"/>
			<point x="116" y="84" type="curve" smooth="yes"/>
			<point x="116" y="68"/>
			<point x="98" y="54"/>
		</contour>
		<contour>
			<point x="428" y="137" type="curve" smooth="yes"/>
			<point x="389" y="137"/>
			<point x="351" y="163"/>
			<point x="351" y="199" type="curve" smooth="yes"/>
			<point x="351" y="236"/>
			<point x="377" y="294"/>
			<point x="440" y="294" type="curve" smooth="yes"/>
			<point x="469" y="294"/>
			<point x="520" y="288"/>
			<point x="520" y="233" type="curve" smooth="yes"/>
			<point x="520" y="178"/>
			<point x="467" y="137"/>
		</contour>
		<contour>
			<point x="442" y="171" type="curve" smooth="yes"/>
			<point x="457" y="171"/>
			<point x="469" y="191"/>
			<point x="469" y="216" type="curve" smooth="yes"/>
			<point x="469" y="242"/>
			<point x="457" y="262"/>
			<point x="441" y="262" type="curve" smooth="yes"/>
			<point x="426" y="262"/>
			<point x="415" y="241"/>
			<point x="415" y="215" type="curve" smooth="yes"/>
			<point x="415" y="190"/>
			<point x="427" y="171"/>
		</contour>
		<contour>
			<point x="173" y="465" type="curve" smooth="yes"/>
			<point x="188" y="465"/>
			<point x="201" y="475"/>
			<point x="201" y="500" type="curve" smooth="yes"/>
			<point x="201" y="521"/>
			<point x="183" y="537"/>
			<point x="160" y="537" type="curve" smooth="yes"/>
			<point x="144" y="537"/>
			<point x="132" y="526"/>
			<point x="132" y="511" type="curve" smooth="yes"/>
			<point x="132" y="483"/>
			<point x="154" y="465"/>
		</contour>
		<contour>
			<point x="125" y="592" type="curve" smooth="yes"/>
			<point x="149" y="592"/>
			<point x="168" y="614"/>
			<point x="168" y="643" type="curve" smooth="yes"/>
			<point x="168" y="673"/>
			<point x="147" y="696"/>
			<point x="120" y="696" type="curve" smooth="yes"/>
			<point x="95" y="696"/>
			<point x="76" y="673"/>
			<point x="76" y="644" type="curve" smooth="yes"/>
			<point x="76" y="615"/>
			<point x="98" y="592"/>
		</contour>
		<contour>
			<point x="255" y="563" type="curve" smooth="yes"/>
			<point x="266" y="563"/>
			<point x="275" y="572"/>
			<point x="275" y="586" type="curve" smooth="yes"/>
			<point x="275" y="600"/>
			<point x="262" y="613"/>
			<point x="251" y="613" type="curve" smooth="yes"/>
			<point x="238" y="613"/>
			<point x="229" y="596"/>
			<point x="229" y="582" type="curve" smooth="yes"/>
			<point x="229" y="568"/>
			<point x="244" y="563"/>
		</contour>
	</outline>
</glyph>
<glyph name="z" format="2">
	<advance width="1000"/>
	<unicode hex="007A"/>
	<outline>
		<contour>
			<point x="899" y="-162" type="curve" smooth="yes"/>
			<point x="921" y="-162"/>
			<point x="931" y="-150"/>
			<point x="931" y="-139" type="curve" smooth="yes"/>
			<point x="931" y="-128"/>
			<point x="922" y="-118"/>
			<point x="905" y="-118" type="curve" smooth="yes"/>
			<point x="883" y="-118"/>
			<point x="849" y="-97"/>
			<point x="814" y="-42" type="curve" smooth="yes"/>
			<point x="779" y="13"/>
			<point x="738" y="143"/>
			<point x="682" y="161" type="curve" smooth="yes"/>
			<point x="640" y="174"/>
			<point x="621" y="189"/>
			<point x="621" y="200" type="curve" smooth="yes"/>
			<point x="621" y="209"/>
			<point x="633" y="215"/>
			<point x="655" y="215" type="curve" smooth="yes"/>
			<point x="707" y="215"/>
			<point x="738" y="217"/>
			<point x="771" y="287" type="curve" smooth="yes"/>
			<point x="804" y="357"/>
			<point x="823" y="414"/>
			<point x="877" y="418" type="curve" smooth="yes"/>
			<point x="925" y="421"/>
			<point x="947" y="432"/>
			<point x="947" y="444" type="curve" smooth="yes"/>
			<point x="947" y="460"/>
			<point x="906" y="477"/>
			<point x="836" y="477" type="curve" smooth="yes"/>
			<point x="719" y="477"/>
			<point x="554" y="346"/>
			<point x="428" y="346" type="curve" smooth="yes"/>
			<point x="377" y="346"/>
			<point x="355" y="378"/>
			<point x="355" y="407" type="curve" smooth="yes"/>
			<point x="355" y="425"/>
			<point x="368" y="429"/>
			<point x="385" y="429" type="curve" smooth="yes"/>
			<point x="398" y="429"/>
			<point x="408" y="436"/>
			<point x="408" y="445" type="curve" smooth="yes"/>
			<point x="408" y="456"/>
			<point x="393" y="473"/>
			<point x="361" y="473" type="curve" smooth="yes"/>
			<point x="311" y="473"/>
			<point x="263" y="432"/>
			<point x="195" y="432" type="curve" smooth="yes"/>
			<point x="156" y="432"/>
			<point x="125" y="442"/>
			<point x="10" y="442" type="curve" smooth="yes"/>
			<point x="-10" y="442" type="line"/>
			<point x="-10" y="158" type="line"/>
			<point x="10" y="158" type="line" smooth="yes"/>
			<point x="107" y="158"/>
			<point x="142" y="189"/>
			<point x="208" y="189" type="curve" smooth="yes"/>
			<point x="258" y="189"/>
			<point x="273" y="158"/>
			<point x="319" y="125" type="curve" smooth="yes"/>
			<point x="365" y="92"/>
			<point x="385" y="111"/>
			<point x="424" y="80" type="curve" smooth="yes"/>
			<point x="463" y="49"/>
			<point x="481" y="-2"/>
			<point x="551" y="-40" type="curve" smooth="yes"/>
			<point x="621" y="-78"/>
			<point x="672" y="-65"/>
			<point x="725" y="-88" type="curve" smooth="yes"/>
			<point x="769" y="-107"/>
			<point x="838" y="-162"/>
		</contour>
	</outline>
</glyph>
<glyph name="zacute" format="2">
	<advance width="1000"/>
	<unicode hex="017A"/>
	<outline>
		<contour>
			<point x="269" y="-79" type="curve" smooth="yes"/>
			<point x="300" y="-79"/>
			<point x="476" y="-56"/>
			<point x="559" y="18" type="curve" smooth="yes"/>
			<point x="642" y="92"/>
			<point x="648" y="118"/>
			<point x="659" y="143" type="curve" smooth="yes"/>
			<point x="670" y="168"/>
			<point x="686" y="196"/>
			<point x="711" y="196" type="curve" smooth="yes"/>
			<point x="736" y="196"/>
			<point x="767" y="202"/>
			<point x="787" y="219" type="curve" smooth="yes"/>
			<point x="798" y="228"/>
			<point x="810" y="236"/>
			<point x="824" y="236" type="curve" smooth="yes"/>
			<point x="835" y="236"/>
			<point x="847" y="230"/>
			<point x="859" y="216" type="curve" smooth="yes"/>
			<point x="880" y="191"/>
			<point x="930" y="158"/>
			<point x="990" y="158" type="curve" smooth="yes"/>
			<point x="1010" y="158" type="line"/>
			<point x="1010" y="442" type="line"/>
			<point x="990" y="442" type="line" smooth="yes"/>
			<point x="947" y="442"/>
			<point x="904" y="469"/>
			<point x="892" y="504" type="curve" smooth="yes"/>
			<point x="879" y="540"/>
			<point x="870" y="558"/>
			<point x="862" y="573" type="curve" smooth="yes"/>
			<point x="858" y="581"/>
			<point x="858" y="595"/>
			<point x="882" y="595" type="curve" smooth="yes"/>
			<point x="895" y="595"/>
			<point x="904" y="597"/>
			<point x="904" y="605" type="curve" smooth="yes"/>
			<point x="904" y="614"/>
			<point x="880" y="626"/>
			<point x="859" y="631" type="curve" smooth="yes"/>
			<point x="814" y="641"/>
			<point x="791" y="655"/>
			<point x="791" y="675" type="curve" smooth="yes"/>
			<point x="791" y="685"/>
			<point x="799" y="693"/>
			<point x="803" y="696" type="curve" smooth="yes"/>
			<point x="809" y="701"/>
			<point x="828" y="712"/>
			<point x="849" y="715" type="curve" smooth="yes"/>
			<point x="859" y="716"/>
			<point x="863" y="720"/>
			<point x="863" y="724" type="curve" smooth="yes"/>
			<point x="863" y="728"/>
			<point x="858" y="732"/>
			<point x="851" y="734" type="curve" smooth="yes"/>
			<point x="843" y="736"/>
			<point x="825" y="739"/>
			<point x="801" y="739" type="curve" smooth="yes"/>
			<point x="784" y="739"/>
			<point x="764" y="737"/>
			<point x="743" y="732" type="curve" smooth="yes"/>
			<point x="693" y="719"/>
			<point x="666" y="698"/>
			<point x="653" y="698" type="curve" smooth="yes"/>
			<point x="640" y="698"/>
			<point x="643" y="711"/>
			<point x="655" y="720" type="curve" smooth="yes"/>
			<point x="666" y="728"/>
			<point x="672" y="733"/>
			<point x="672" y="739" type="curve" smooth="yes"/>
			<point x="672" y="741"/>
			<point x="670" y="745"/>
			<point x="666" y="745" type="curve" smooth="yes"/>
			<point x="657" y="745"/>
			<point x="637" y="737"/>
			<point x="618" y="725" type="curve" smooth="yes"/>
			<point x="592" y="709"/>
			<point x="564" y="676"/>
			<point x="549" y="654" type="curve" smooth="yes"/>
			<point x="534" y="632"/>
			<point x="520" y="609"/>
			<point x="513" y="609" type="curve" smooth="yes"/>
			<point x="506" y="609"/>
			<point x="506" y="624"/>
			<point x="510" y="636" type="curve" smooth="yes"/>
			<point x="514" y="648"/>
			<point x="517" y="660"/>
			<point x="507" y="660" type="curve" smooth="yes"/>
			<point x="497" y="660"/>
			<point x="484" y="626"/>
			<point x="475" y="592" type="curve" smooth="yes"/>
			<point x="466" y="558"/>
			<point x="459" y="524"/>
			<point x="439" y="491" type="curve" smooth="yes"/>
			<point x="419" y="458"/>
			<point x="386" y="427"/>
			<point x="349" y="414" type="curve" smooth="yes"/>
			<point x="312" y="401"/>
			<point x="264" y="381"/>
			<point x="213" y="344" type="curve" smooth="yes"/>
			<point x="122" y="279"/>
			<point x="51" y="175"/>
			<point x="51" y="108" type="curve" smooth="yes"/>
			<point x="51" y="101"/>
			<point x="55" y="97"/>
			<point x="60" y="97" type="curve" smooth="yes"/>
			<point x="66" y="97"/>
			<point x="73" y="101"/>
			<point x="81" y="120" type="curve" smooth="yes"/>
			<point x="97" y="157"/>
			<point x="115" y="190"/>
			<point x="201" y="220" type="curve" smooth="yes"/>
			<point x="287" y="250"/>
			<point x="370" y="248"/>
			<point x="403" y="258" type="curve" smooth="yes"/>
			<point x="436" y="268"/>
			<point x="457" y="284"/>
			<point x="464" y="284" type="curve" smooth="yes"/>
			<point x="471" y="284"/>
			<point x="473" y="280"/>
			<point x="473" y="274" type="curve" smooth="yes"/>
			<point x="473" y="268"/>
			<point x="465" y="256"/>
			<point x="446" y="241" type="curve" smooth="yes"/>
			<point x="427" y="226"/>
			<point x="369" y="193"/>
			<point x="339" y="171" type="curve" smooth="yes"/>
			<point x="309" y="149"/>
			<point x="287" y="128"/>
			<point x="268" y="106" type="curve" smooth="yes"/>
			<point x="249" y="84"/>
			<point x="244" y="70"/>
			<point x="244" y="61" type="curve" smooth="yes"/>
			<point x="244" y="56"/>
			<point x="248" y="51"/>
			<point x="253" y="51" type="curve" smooth="yes"/>
			<point x="258" y="51"/>
			<point x="262" y="56"/>
			<point x="267" y="62" type="curve" smooth="yes"/>
			<point x="272" y="68"/>
			<point x="283" y="84"/>
			<point x="308" y="91" type="curve" smooth="yes"/>
			<point x="333" y="98"/>
			<point x="389" y="112"/>
			<point x="414" y="122" type="curve" smooth="yes"/>
			<point x="439" y="132"/>
			<point x="454" y="144"/>
			<point x="469" y="159" type="curve" smooth="yes"/>
			<point x="479" y="169"/>
			<point x="494" y="190"/>
			<point x="506" y="202" type="curve" smooth="yes"/>
			<point x="519" y="216"/>
			<point x="530" y="214"/>
			<point x="530" y="199" type="curve" smooth="yes"/>
			<point x="530" y="132"/>
			<point x="391" y="5"/>
			<point x="258" y="-51" type="curve" smooth="yes"/>
			<point x="250" y="-54"/>
			<point x="244" y="-60"/>
			<point x="244" y="-66" type="curve" smooth="yes"/>
			<point x="244" y="-73"/>
			<point x="251" y="-79"/>
		</contour>
		<contour>
			<point x="628" y="403" type="curve" smooth="yes"/>
			<point x="652" y="403"/>
			<point x="670" y="421"/>
			<point x="670" y="443" type="curve" smooth="yes"/>
			<point x="670" y="465"/>
			<point x="652" y="482"/>
			<point x="630" y="482" type="curve"/>
			<point x="608" y="482"/>
			<point x="590" y="464"/>
			<point x="590" y="442" type="curve" smooth="yes"/>
			<point x="590" y="420"/>
			<point x="607" y="403"/>
		</contour>
		<contour>
			<point x="629" y="375" type="curve" smooth="yes"/>
			<point x="583" y="375"/>
			<point x="565" y="400"/>
			<point x="565" y="431" type="curve" smooth="yes"/>
			<point x="565" y="474"/>
			<point x="603" y="527"/>
			<point x="652" y="527" type="curve" smooth="yes"/>
			<point x="708" y="527"/>
			<point x="733" y="496"/>
			<point x="733" y="462" type="curve" smooth="yes"/>
			<point x="733" y="421"/>
			<point x="695" y="375"/>
		</contour>
	</outline>
</glyph>
<glyph name="zdotaccent" format="2">
	<advance width="1000"/>
	<unicode hex="017C"/>
	<outline>
		<contour>
			<point x="438" y="-107" type="curve" smooth="yes"/>
			<point x="444" y="-107"/>
			<point x="447" y="-103"/>
			<point x="447" y="-99" type="curve" smooth="yes"/>
			<point x="447" y="-95"/>
			<point x="444" y="-91"/>
			<point x="439" y="-91" type="curve" smooth="yes"/>
			<point x="427" y="-91"/>
			<point x="413" y="-80"/>
			<point x="390" y="-53" type="curve" smooth="yes"/>
			<point x="373" y="-34"/>
			<point x="361" y="-24"/>
			<point x="346" y="-14" type="curve" smooth="yes"/>
			<point x="331" y="-4"/>
			<point x="316" y="6"/>
			<point x="305" y="14" type="curve" smooth="yes"/>
			<point x="294" y="22"/>
			<point x="301" y="32"/>
			<point x="311" y="27" type="curve" smooth="yes"/>
			<point x="315" y="25"/>
			<point x="331" y="21"/>
			<point x="364" y="6" type="curve" smooth="yes"/>
			<point x="397" y="-9"/>
			<point x="482" y="-27"/>
			<point x="507" y="-27" type="curve" smooth="yes"/>
			<point x="532" y="-27"/>
			<point x="620" y="-56"/>
			<point x="642" y="-56" type="curve" smooth="yes"/>
			<point x="665" y="-56"/>
			<point x="657" y="-37"/>
			<point x="647" y="-37" type="curve" smooth="yes"/>
			<point x="637" y="-37"/>
			<point x="616" y="-27"/>
			<point x="592" y="-15" type="curve" smooth="yes"/>
			<point x="568" y="-3"/>
			<point x="538" y="29"/>
			<point x="512" y="41" type="curve" smooth="yes"/>
			<point x="486" y="53"/>
			<point x="460" y="66"/>
			<point x="415" y="94" type="curve" smooth="yes"/>
			<point x="370" y="122"/>
			<point x="316" y="142"/>
			<point x="306" y="142" type="curve" smooth="yes"/>
			<point x="296" y="142"/>
			<point x="291" y="147"/>
			<point x="291" y="153" type="curve" smooth="yes"/>
			<point x="291" y="159"/>
			<point x="297" y="165"/>
			<point x="309" y="165" type="curve" smooth="yes"/>
			<point x="322" y="165"/>
			<point x="366" y="157"/>
			<point x="424" y="128" type="curve" smooth="yes"/>
			<point x="482" y="99"/>
			<point x="597" y="52"/>
			<point x="662" y="52" type="curve" smooth="yes"/>
			<point x="732" y="52"/>
			<point x="873" y="72"/>
			<point x="903" y="75" type="curve" smooth="yes"/>
			<point x="933" y="78"/>
			<point x="919" y="91"/>
			<point x="903" y="94" type="curve" smooth="yes"/>
			<point x="887" y="97"/>
			<point x="829" y="113"/>
			<point x="770" y="144" type="curve" smooth="yes"/>
			<point x="711" y="175"/>
			<point x="653" y="184"/>
			<point x="613" y="192" type="curve" smooth="yes"/>
			<point x="573" y="200"/>
			<point x="509" y="216"/>
			<point x="497" y="221" type="curve" smooth="yes"/>
			<point x="485" y="226"/>
			<point x="480" y="230"/>
			<point x="480" y="235" type="curve" smooth="yes"/>
			<point x="480" y="242"/>
			<point x="484" y="245"/>
			<point x="490" y="245" type="curve" smooth="yes"/>
			<point x="498" y="245"/>
			<point x="530" y="230"/>
			<point x="595" y="230" type="curve" smooth="yes"/>
			<point x="643" y="230"/>
			<point x="678" y="229"/>
			<point x="708" y="239" type="curve" smooth="yes"/>
			<point x="738" y="249"/>
			<point x="725" y="256"/>
			<point x="710" y="256" type="curve" smooth="yes"/>
			<point x="695" y="256"/>
			<point x="664" y="265"/>
			<point x="612" y="290" type="curve" smooth="yes"/>
			<point x="560" y="315"/>
			<point x="503" y="312"/>
			<point x="469" y="312" type="curve" smooth="yes"/>
			<point x="429" y="312"/>
			<point x="425" y="317"/>
			<point x="425" y="322" type="curve" smooth="yes"/>
			<point x="425" y="330"/>
			<point x="446" y="338"/>
			<point x="469" y="338" type="curve" smooth="yes"/>
			<point x="513" y="338"/>
			<point x="588" y="334"/>
			<point x="638" y="334" type="curve" smooth="yes"/>
			<point x="746" y="334"/>
			<point x="840" y="388"/>
			<point x="861" y="401" type="curve" smooth="yes"/>
			<point x="882" y="414"/>
			<point x="958" y="440"/>
			<point x="967" y="444" type="curve" smooth="yes"/>
			<point x="976" y="448"/>
			<point x="982" y="452"/>
			<point x="982" y="459" type="curve" smooth="yes"/>
			<point x="982" y="466"/>
			<point x="907" y="471"/>
			<point x="871" y="471" type="curve" smooth="yes"/>
			<point x="835" y="471"/>
			<point x="780" y="457"/>
			<point x="735" y="457" type="curve" smooth="yes"/>
			<point x="690" y="457"/>
			<point x="678" y="457"/>
			<point x="607" y="457" type="curve" smooth="yes"/>
			<point x="536" y="457"/>
			<point x="453" y="419"/>
			<point x="440" y="413" type="curve" smooth="yes"/>
			<point x="427" y="407"/>
			<point x="413" y="403"/>
			<point x="408" y="403" type="curve" smooth="yes"/>
			<point x="402" y="403"/>
			<point x="400" y="405"/>
			<point x="400" y="408" type="curve" smooth="yes"/>
			<point x="400" y="414"/>
			<point x="407" y="422"/>
			<point x="419" y="427" type="curve" smooth="yes"/>
			<point x="430" y="432"/>
			<point x="530" y="473"/>
			<point x="562" y="486" type="curve" smooth="yes"/>
			<point x="594" y="499"/>
			<point x="713" y="615"/>
			<point x="775" y="658" type="curve" smooth="yes"/>
			<point x="804" y="678"/>
			<point x="848" y="700"/>
			<point x="866" y="707" type="curve" smooth="yes"/>
			<point x="884" y="714"/>
			<point x="880" y="727"/>
			<point x="868" y="727" type="curve" smooth="yes"/>
			<point x="785" y="727"/>
			<point x="714" y="700"/>
			<point x="679" y="685" type="curve" smooth="yes"/>
			<point x="644" y="670"/>
			<point x="578" y="640"/>
			<point x="494" y="587" type="curve" smooth="yes"/>
			<point x="459" y="565"/>
			<point x="426" y="548"/>
			<point x="388" y="534" type="curve" smooth="yes"/>
			<point x="350" y="520"/>
			<point x="305" y="504"/>
			<point x="289" y="502" type="curve" smooth="yes"/>
			<point x="273" y="500"/>
			<point x="277" y="515"/>
			<point x="282" y="517" type="curve" smooth="yes"/>
			<point x="287" y="519"/>
			<point x="340" y="547"/>
			<point x="357" y="557" type="curve" smooth="yes"/>
			<point x="374" y="567"/>
			<point x="403" y="589"/>
			<point x="431" y="613" type="curve" smooth="yes"/>
			<point x="459" y="637"/>
			<point x="547" y="701"/>
			<point x="563" y="712" type="curve" smooth="yes"/>
			<point x="592" y="732"/>
			<point x="649" y="750"/>
			<point x="666" y="758" type="curve" smooth="yes"/>
			<point x="683" y="766"/>
			<point x="675" y="773"/>
			<point x="669" y="773" type="curve" smooth="yes"/>
			<point x="517" y="773"/>
			<point x="423" y="720"/>
			<point x="394" y="697" type="curve" smooth="yes"/>
			<point x="365" y="674"/>
			<point x="323" y="636"/>
			<point x="310" y="623" type="curve" smooth="yes"/>
			<point x="297" y="610"/>
			<point x="291" y="602"/>
			<point x="286" y="602" type="curve" smooth="yes"/>
			<point x="281" y="602"/>
			<point x="278" y="604"/>
			<point x="278" y="609" type="curve" smooth="yes"/>
			<point x="278" y="615"/>
			<point x="291" y="629"/>
			<point x="301" y="641" type="curve" smooth="yes"/>
			<point x="312" y="654"/>
			<point x="337" y="698"/>
			<point x="337" y="709" type="curve" smooth="yes"/>
			<point x="337" y="713"/>
			<point x="334" y="717"/>
			<point x="330" y="717" type="curve" smooth="yes"/>
			<point x="325" y="717"/>
			<point x="315" y="710"/>
			<point x="296" y="694" type="curve" smooth="yes"/>
			<point x="282" y="682"/>
			<point x="249" y="650"/>
			<point x="232" y="629" type="curve" smooth="yes"/>
			<point x="215" y="608"/>
			<point x="158" y="546"/>
			<point x="125" y="511" type="curve" smooth="yes"/>
			<point x="92" y="476"/>
			<point x="62" y="442"/>
			<point x="10" y="442" type="curve"/>
			<point x="-10" y="442" type="line"/>
			<point x="-10" y="158" type="line"/>
			<point x="10" y="158" type="line"/>
			<point x="44" y="158"/>
			<point x="103" y="150"/>
			<point x="143" y="109" type="curve" smooth="yes"/>
			<point x="183" y="68"/>
			<point x="264" y="-29"/>
			<point x="337" y="-73" type="curve" smooth="yes"/>
			<point x="358" y="-86"/>
			<point x="421" y="-107"/>
		</contour>
	</outline>
</glyph>
